<?xml version="1.0" encoding="UTF-8" standalone="no"?><svg xmlns="http://www.w3.org/2000/svg" xmlns:xlink="http://www.w3.org/1999/xlink" contentStyleType="text/css" height="224px" preserveAspectRatio="none" style="width:262px;height:224px;background:#F9F9F9;" version="1.1" viewBox="0 0 262 224" width="262px" zoomAndPan="magnify"><defs/><g><rect fill="#F9F9F9" height="224" style="stroke:none;stroke-width:1.0;" width="262" x="0" y="0"/><rect fill="#ADD8E6" height="90.2031" rx="3.5" ry="3.5" style="stroke:#393939;stroke-width:1.0;" width="245" x="10" y="82.4297"/><path d="M10,128.6953 L255,128.6953 L255,169.1328 A3.5,3.5 0 0 1 251.5,172.6328 L13.5,172.6328 A3.5,3.5 0 0 1 10,169.1328 L10,128.6953 " fill="#FFC0CB" style="stroke:none;stroke-width:1.0;"/><line style="stroke:#393939;stroke-width:0.5;stroke-dasharray:5.0,5.0;" x1="43" x2="43" y1="36.2969" y2="189.6328"/><line style="stroke:#393939;stroke-width:0.5;stroke-dasharray:5.0,5.0;" x1="224" x2="224" y1="36.2969" y2="189.6328"/><rect fill="#E55756" height="30.2969" rx="3.5" ry="3.5" style="stroke:#191919;stroke-width:1.5;" width="46" x="20" y="5"/><text fill="#F9F9F9" font-family="sans-serif" font-size="14" lengthAdjust="spacing" textLength="32" x="27" y="24.9951">Alice</text><rect fill="#E55756" height="30.2969" rx="3.5" ry="3.5" style="stroke:#191919;stroke-width:1.5;" width="46" x="20" y="188.6328"/><text fill="#F9F9F9" font-family="sans-serif" font-size="14" lengthAdjust="spacing" textLength="32" x="27" y="208.6279">Alice</text><rect fill="#E55756" height="30.2969" rx="3.5" ry="3.5" style="stroke:#191919;stroke-width:1.5;" width="42" x="203" y="5"/><text fill="#F9F9F9" font-family="sans-serif" font-size="14" lengthAdjust="spacing" textLength="28" x="210" y="24.9951">Bob</text><rect fill="#E55756" height="30.2969" rx="3.5" ry="3.5" style="stroke:#191919;stroke-width:1.5;" width="42" x="203" y="188.6328"/><text fill="#F9F9F9" font-family="sans-serif" font-size="14" lengthAdjust="spacing" textLength="28" x="210" y="208.6279">Bob</text><polygon fill="#191919" points="212,63.4297,222,67.4297,212,71.4297,216,67.4297" style="stroke:#191919;stroke-width:1.0;"/><line style="stroke:#191919;stroke-width:1.0;" x1="43" x2="218" y1="67.4297" y2="67.4297"/><text fill="#000000" font-family="sans-serif" font-size="13" lengthAdjust="spacing" textLength="149" x="50" y="62.3638">Authentication Request</text><path d="M13.5,82.4297 L74,82.4297 L74,89.5625 L64,99.5625 L10,99.5625 L10,85.9297 A3.5,3.5 0 0 1 13.5,82.4297 " fill="#FFD700" style="stroke:#393939;stroke-width:1.5;"/><rect fill="none" height="90.2031" rx="3.5" ry="3.5" style="stroke:#393939;stroke-width:1.0;" width="245" x="10" y="82.4297"/><text fill="#191919" font-family="sans-serif" font-size="13" font-weight="bold" lengthAdjust="spacing" textLength="19" x="25" y="95.4966">alt</text><text fill="#393939" font-family="sans-serif" font-size="11" font-weight="bold" lengthAdjust="spacing" textLength="113" x="89" y="94.6401">[Successful case]</text><polygon fill="#191919" points="54,116.6953,44,120.6953,54,124.6953,50,120.6953" style="stroke:#191919;stroke-width:1.0;"/><line style="stroke:#191919;stroke-width:1.0;" x1="48" x2="223" y1="120.6953" y2="120.6953"/><text fill="#000000" font-family="sans-serif" font-size="13" lengthAdjust="spacing" textLength="157" x="60" y="115.6294">Authentication Accepted</text><line style="stroke:#393939;stroke-width:1.0;stroke-dasharray:2.0,2.0;" x1="10" x2="255" y1="129.6953" y2="129.6953"/><text fill="#393939" font-family="sans-serif" font-size="11" font-weight="bold" lengthAdjust="spacing" textLength="55" x="15" y="139.9058">[Failure]</text><polygon fill="#191919" points="54,160.6328,44,164.6328,54,168.6328,50,164.6328" style="stroke:#191919;stroke-width:1.0;"/><line style="stroke:#191919;stroke-width:1.0;" x1="48" x2="223" y1="164.6328" y2="164.6328"/><text fill="#000000" font-family="sans-serif" font-size="13" lengthAdjust="spacing" textLength="152" x="60" y="159.5669">Authentication Rejected</text><!--SRC=[XSmn4i8m34JHtgSGuveBK33Z5D1GCE44nbw8GB4XbkwFIKj1lVlVHYVCe3akpGNX1DhkQQZN7GNhKr5EKRaM6l4sD7LHr1-hPF8dlaywY84kbX9QkvbGYWskzrzczNwWqBylHNQG1l9dBaywH1PR_eGZ7aXhMF87]--></g></svg>