<?xml version="1.0" encoding="UTF-8" standalone="no"?><svg xmlns="http://www.w3.org/2000/svg" xmlns:xlink="http://www.w3.org/1999/xlink" contentStyleType="text/css" height="292px" preserveAspectRatio="none" style="width:371px;height:292px;background:#FFFFFF;" version="1.1" viewBox="0 0 371 292" width="371px" zoomAndPan="magnify"><defs/><g><text fill="#000000" font-family="Serif" font-size="10" lengthAdjust="spacing" textLength="14" x="1" y="25.2822">Tu</text><text fill="#000000" font-family="Serif" font-size="10" lengthAdjust="spacing" textLength="17" x="16" y="25.2822">We</text><text fill="#000000" font-family="Serif" font-size="10" lengthAdjust="spacing" textLength="14" x="33" y="25.2822">Th</text><text fill="#000000" font-family="Serif" font-size="10" lengthAdjust="spacing" textLength="12" x="50" y="25.2822">Fr</text><text fill="#000000" font-family="Serif" font-size="10" lengthAdjust="spacing" textLength="11" x="66.5" y="25.2822">Sa</text><text fill="#000000" font-family="Serif" font-size="10" lengthAdjust="spacing" textLength="12" x="82" y="25.2822">Su</text><text fill="#000000" font-family="Serif" font-size="10" lengthAdjust="spacing" textLength="16" x="96" y="25.2822">Mo</text><text fill="#000000" font-family="Serif" font-size="10" lengthAdjust="spacing" textLength="14" x="113" y="25.2822">Tu</text><text fill="#000000" font-family="Serif" font-size="10" lengthAdjust="spacing" textLength="17" x="128" y="25.2822">We</text><text fill="#000000" font-family="Serif" font-size="10" lengthAdjust="spacing" textLength="14" x="145" y="25.2822">Th</text><text fill="#000000" font-family="Serif" font-size="10" lengthAdjust="spacing" textLength="12" x="162" y="25.2822">Fr</text><text fill="#000000" font-family="Serif" font-size="10" lengthAdjust="spacing" textLength="11" x="178.5" y="25.2822">Sa</text><text fill="#000000" font-family="Serif" font-size="10" lengthAdjust="spacing" textLength="12" x="194" y="25.2822">Su</text><text fill="#000000" font-family="Serif" font-size="10" lengthAdjust="spacing" textLength="16" x="208" y="25.2822">Mo</text><text fill="#000000" font-family="Serif" font-size="10" lengthAdjust="spacing" textLength="14" x="225" y="25.2822">Tu</text><text fill="#000000" font-family="Serif" font-size="10" lengthAdjust="spacing" textLength="17" x="240" y="25.2822">We</text><text fill="#000000" font-family="Serif" font-size="10" lengthAdjust="spacing" textLength="14" x="257" y="25.2822">Th</text><text fill="#000000" font-family="Serif" font-size="10" lengthAdjust="spacing" textLength="12" x="274" y="25.2822">Fr</text><text fill="#000000" font-family="Serif" font-size="10" lengthAdjust="spacing" textLength="11" x="290.5" y="25.2822">Sa</text><text fill="#000000" font-family="Serif" font-size="10" lengthAdjust="spacing" textLength="12" x="306" y="25.2822">Su</text><text fill="#000000" font-family="Serif" font-size="10" lengthAdjust="spacing" textLength="16" x="320" y="25.2822">Mo</text><text fill="#000000" font-family="Serif" font-size="10" lengthAdjust="spacing" textLength="14" x="337" y="25.2822">Tu</text><text fill="#000000" font-family="Serif" font-size="10" lengthAdjust="spacing" textLength="17" x="352" y="25.2822">We</text><text fill="#000000" font-family="Serif" font-size="10" lengthAdjust="spacing" textLength="6" x="5" y="37.2822">1</text><text fill="#000000" font-family="Serif" font-size="10" lengthAdjust="spacing" textLength="6" x="21" y="37.2822">2</text><text fill="#000000" font-family="Serif" font-size="10" lengthAdjust="spacing" textLength="6" x="37" y="37.2822">3</text><text fill="#000000" font-family="Serif" font-size="10" lengthAdjust="spacing" textLength="6" x="53" y="37.2822">4</text><text fill="#000000" font-family="Serif" font-size="10" lengthAdjust="spacing" textLength="6" x="69" y="37.2822">5</text><text fill="#000000" font-family="Serif" font-size="10" lengthAdjust="spacing" textLength="6" x="85" y="37.2822">6</text><text fill="#000000" font-family="Serif" font-size="10" lengthAdjust="spacing" textLength="6" x="101" y="37.2822">7</text><text fill="#000000" font-family="Serif" font-size="10" lengthAdjust="spacing" textLength="6" x="117" y="37.2822">8</text><text fill="#000000" font-family="Serif" font-size="10" lengthAdjust="spacing" textLength="6" x="133" y="37.2822">9</text><text fill="#000000" font-family="Serif" font-size="10" lengthAdjust="spacing" textLength="12" x="146" y="37.2822">10</text><text fill="#000000" font-family="Serif" font-size="10" lengthAdjust="spacing" textLength="12" x="162" y="37.2822">11</text><text fill="#000000" font-family="Serif" font-size="10" lengthAdjust="spacing" textLength="12" x="178" y="37.2822">12</text><text fill="#000000" font-family="Serif" font-size="10" lengthAdjust="spacing" textLength="12" x="194" y="37.2822">13</text><text fill="#000000" font-family="Serif" font-size="10" lengthAdjust="spacing" textLength="12" x="210" y="37.2822">14</text><text fill="#000000" font-family="Serif" font-size="10" lengthAdjust="spacing" textLength="12" x="226" y="37.2822">15</text><text fill="#000000" font-family="Serif" font-size="10" lengthAdjust="spacing" textLength="12" x="242" y="37.2822">16</text><text fill="#000000" font-family="Serif" font-size="10" lengthAdjust="spacing" textLength="12" x="258" y="37.2822">17</text><text fill="#000000" font-family="Serif" font-size="10" lengthAdjust="spacing" textLength="12" x="274" y="37.2822">18</text><text fill="#000000" font-family="Serif" font-size="10" lengthAdjust="spacing" textLength="12" x="290" y="37.2822">19</text><text fill="#000000" font-family="Serif" font-size="10" lengthAdjust="spacing" textLength="12" x="306" y="37.2822">20</text><text fill="#000000" font-family="Serif" font-size="10" lengthAdjust="spacing" textLength="12" x="322" y="37.2822">21</text><text fill="#000000" font-family="Serif" font-size="10" lengthAdjust="spacing" textLength="12" x="338" y="37.2822">22</text><text fill="#000000" font-family="Serif" font-size="10" lengthAdjust="spacing" textLength="12" x="354" y="37.2822">23</text><text fill="#000000" font-family="Serif" font-size="12" font-weight="bold" lengthAdjust="spacing" textLength="112" x="128" y="11.2676">September 2020</text><line style="stroke:#C0C0C0;stroke-width:1.0;" x1="0" x2="0" y1="41" y2="253.3438"/><line style="stroke:#C0C0C0;stroke-width:1.0;" x1="16" x2="16" y1="41" y2="253.3438"/><line style="stroke:#C0C0C0;stroke-width:1.0;" x1="32" x2="32" y1="41" y2="253.3438"/><line style="stroke:#C0C0C0;stroke-width:1.0;" x1="48" x2="48" y1="41" y2="253.3438"/><line style="stroke:#C0C0C0;stroke-width:1.0;" x1="64" x2="64" y1="41" y2="253.3438"/><line style="stroke:#C0C0C0;stroke-width:1.0;" x1="80" x2="80" y1="41" y2="253.3438"/><line style="stroke:#C0C0C0;stroke-width:1.0;" x1="96" x2="96" y1="41" y2="253.3438"/><line style="stroke:#C0C0C0;stroke-width:1.0;" x1="112" x2="112" y1="41" y2="253.3438"/><line style="stroke:#C0C0C0;stroke-width:1.0;" x1="128" x2="128" y1="41" y2="253.3438"/><line style="stroke:#C0C0C0;stroke-width:1.0;" x1="144" x2="144" y1="41" y2="253.3438"/><line style="stroke:#C0C0C0;stroke-width:1.0;" x1="160" x2="160" y1="41" y2="253.3438"/><line style="stroke:#C0C0C0;stroke-width:1.0;" x1="176" x2="176" y1="41" y2="253.3438"/><line style="stroke:#C0C0C0;stroke-width:1.0;" x1="192" x2="192" y1="41" y2="253.3438"/><line style="stroke:#C0C0C0;stroke-width:1.0;" x1="208" x2="208" y1="41" y2="253.3438"/><line style="stroke:#C0C0C0;stroke-width:1.0;" x1="224" x2="224" y1="41" y2="253.3438"/><line style="stroke:#C0C0C0;stroke-width:1.0;" x1="240" x2="240" y1="41" y2="253.3438"/><line style="stroke:#C0C0C0;stroke-width:1.0;" x1="256" x2="256" y1="41" y2="253.3438"/><line style="stroke:#C0C0C0;stroke-width:1.0;" x1="272" x2="272" y1="41" y2="253.3438"/><line style="stroke:#C0C0C0;stroke-width:1.0;" x1="288" x2="288" y1="41" y2="253.3438"/><line style="stroke:#C0C0C0;stroke-width:1.0;" x1="304" x2="304" y1="41" y2="253.3438"/><line style="stroke:#C0C0C0;stroke-width:1.0;" x1="320" x2="320" y1="41" y2="253.3438"/><line style="stroke:#C0C0C0;stroke-width:1.0;" x1="336" x2="336" y1="41" y2="253.3438"/><line style="stroke:#C0C0C0;stroke-width:1.0;" x1="352" x2="352" y1="41" y2="253.3438"/><line style="stroke:#C0C0C0;stroke-width:1.0;" x1="368" x2="368" y1="41" y2="253.3438"/><line style="stroke:#C0C0C0;stroke-width:1.0;" x1="0" x2="368" y1="41" y2="41"/><line style="stroke:#C0C0C0;stroke-width:1.0;" x1="0" x2="368" y1="253.3438" y2="253.3438"/><line style="stroke:#181818;stroke-width:1.5;" x1="119" x2="119" y1="72.6094" y2="83.0117"/><line style="stroke:#181818;stroke-width:1.5;" x1="119" x2="127" y1="83.0117" y2="83.0117"/><polygon fill="#181818" points="123,79.0117,123,83.0117,123,87.0117,127,83.0117" style="stroke:#181818;stroke-width:1.5;"/><line style="stroke:#181818;stroke-width:1.5;" x1="247" x2="247" y1="89.4141" y2="99.8164"/><line style="stroke:#181818;stroke-width:1.5;" x1="247" x2="255" y1="99.8164" y2="99.8164"/><polygon fill="#181818" points="251,95.8164,251,99.8164,251,103.8164,255,99.8164" style="stroke:#181818;stroke-width:1.5;"/><line style="stroke:#181818;stroke-width:1.5;" x1="135" x2="135" y1="203.5859" y2="213.9883"/><line style="stroke:#181818;stroke-width:1.5;" x1="135" x2="143" y1="213.9883" y2="213.9883"/><polygon fill="#181818" points="139,209.9883,139,213.9883,139,217.9883,143,213.9883" style="stroke:#181818;stroke-width:1.5;"/><rect fill="#E2E2F0" height="12.8047" style="stroke:none;stroke-width:1.0;" width="44" x="2" y="43"/><line style="stroke:#181818;stroke-width:1.0;" x1="2" x2="46" y1="43" y2="43"/><line style="stroke:#181818;stroke-width:1.0;" x1="2" x2="46" y1="55.8047" y2="55.8047"/><line style="stroke:#181818;stroke-width:1.0;" x1="2" x2="2" y1="43" y2="55.8047"/><line style="stroke:#181818;stroke-width:1.0;" x1="46" x2="46" y1="43" y2="55.8047"/><rect fill="#E2E2F0" height="12.8047" style="stroke:none;stroke-width:1.0;" width="44" x="146" y="43"/><line style="stroke:#181818;stroke-width:1.0;" x1="146" x2="190" y1="43" y2="43"/><line style="stroke:#181818;stroke-width:1.0;" x1="146" x2="190" y1="55.8047" y2="55.8047"/><line style="stroke:#181818;stroke-width:1.0;" x1="146" x2="146" y1="43" y2="55.8047"/><line style="stroke:#181818;stroke-width:1.0;" x1="190" x2="190" y1="43" y2="55.8047"/><rect fill="#E2E2F0" height="12.8047" style="stroke:none;stroke-width:1.0;" width="60" x="66" y="59.8047"/><line style="stroke:#181818;stroke-width:1.0;" x1="66" x2="126" y1="59.8047" y2="59.8047"/><line style="stroke:#181818;stroke-width:1.0;" x1="66" x2="126" y1="72.6094" y2="72.6094"/><line style="stroke:#181818;stroke-width:1.0;" x1="66" x2="66" y1="59.8047" y2="72.6094"/><line style="stroke:#181818;stroke-width:1.0;" x1="126" x2="126" y1="59.8047" y2="72.6094"/><path d="M128,91.4141 L128,122.3672 L222,122.3672 L222,101.4141 L212,91.4141 L128,91.4141 " fill="#FEFFDD" style="stroke:#181818;stroke-width:0.5;"/><path d="M212,91.4141 L212,101.4141 L222,101.4141 L212,91.4141 " fill="#FEFFDD" style="stroke:#181818;stroke-width:0.5;"/><text fill="#000000" font-family="sans-serif" font-size="9" lengthAdjust="spacing" textLength="73" x="134" y="104.7681">note for task02</text><text fill="#000000" font-family="sans-serif" font-size="9" lengthAdjust="spacing" textLength="55" x="134" y="115.2446">more notes</text><rect fill="#E2E2F0" height="12.8047" style="stroke:none;stroke-width:1.0;" width="124" x="130" y="76.6094"/><line style="stroke:#181818;stroke-width:1.0;" x1="130" x2="254" y1="76.6094" y2="76.6094"/><line style="stroke:#181818;stroke-width:1.0;" x1="130" x2="254" y1="89.4141" y2="89.4141"/><line style="stroke:#181818;stroke-width:1.0;" x1="130" x2="130" y1="76.6094" y2="89.4141"/><line style="stroke:#181818;stroke-width:1.0;" x1="254" x2="254" y1="76.6094" y2="89.4141"/><path d="M256,108.2188 L256,139.1719 L350,139.1719 L350,118.2188 L340,108.2188 L256,108.2188 " fill="#FEFFDD" style="stroke:#181818;stroke-width:0.5;"/><path d="M340,108.2188 L340,118.2188 L350,118.2188 L340,108.2188 " fill="#FEFFDD" style="stroke:#181818;stroke-width:0.5;"/><text fill="#000000" font-family="sans-serif" font-size="9" lengthAdjust="spacing" textLength="73" x="262" y="121.5728">note for task03</text><text fill="#000000" font-family="sans-serif" font-size="9" lengthAdjust="spacing" textLength="55" x="262" y="132.0493">more notes</text><rect fill="#E2E2F0" height="12.8047" style="stroke:none;stroke-width:1.0;" width="108" x="258" y="93.4141"/><line style="stroke:#181818;stroke-width:1.0;" x1="258" x2="366" y1="93.4141" y2="93.4141"/><line style="stroke:#181818;stroke-width:1.0;" x1="258" x2="366" y1="106.2188" y2="106.2188"/><line style="stroke:#181818;stroke-width:1.0;" x1="258" x2="258" y1="93.4141" y2="106.2188"/><line style="stroke:#181818;stroke-width:1.0;" x1="366" x2="366" y1="93.4141" y2="106.2188"/><line style="stroke:#181818;stroke-width:1.0;" x1="0" x2="5" y1="155.5742" y2="155.5742"/><line style="stroke:#181818;stroke-width:1.0;" x1="71" x2="367" y1="155.5742" y2="155.5742"/><rect fill="#E2E2F0" height="12.8047" style="stroke:none;stroke-width:1.0;" width="76" x="18" y="173.9766"/><line style="stroke:#181818;stroke-width:1.0;" x1="18" x2="94" y1="173.9766" y2="173.9766"/><line style="stroke:#181818;stroke-width:1.0;" x1="18" x2="94" y1="186.7813" y2="186.7813"/><line style="stroke:#181818;stroke-width:1.0;" x1="18" x2="18" y1="173.9766" y2="186.7813"/><line style="stroke:#181818;stroke-width:1.0;" x1="94" x2="94" y1="173.9766" y2="186.7813"/><rect fill="#E2E2F0" height="12.8047" style="stroke:none;stroke-width:1.0;" width="76" x="130" y="173.9766"/><line style="stroke:#181818;stroke-width:1.0;" x1="130" x2="206" y1="173.9766" y2="173.9766"/><line style="stroke:#181818;stroke-width:1.0;" x1="130" x2="206" y1="186.7813" y2="186.7813"/><line style="stroke:#181818;stroke-width:1.0;" x1="130" x2="130" y1="173.9766" y2="186.7813"/><line style="stroke:#181818;stroke-width:1.0;" x1="206" x2="206" y1="173.9766" y2="186.7813"/><rect fill="#E2E2F0" height="12.8047" style="stroke:none;stroke-width:1.0;" width="76" x="66" y="190.7813"/><line style="stroke:#181818;stroke-width:1.0;" x1="66" x2="142" y1="190.7813" y2="190.7813"/><line style="stroke:#181818;stroke-width:1.0;" x1="66" x2="142" y1="203.5859" y2="203.5859"/><line style="stroke:#181818;stroke-width:1.0;" x1="66" x2="66" y1="190.7813" y2="203.5859"/><line style="stroke:#181818;stroke-width:1.0;" x1="142" x2="142" y1="190.7813" y2="203.5859"/><path d="M144,222.3906 L144,253.3438 L238,253.3438 L238,232.3906 L228,222.3906 L144,222.3906 " fill="#FEFFDD" style="stroke:#181818;stroke-width:0.5;"/><path d="M228,222.3906 L228,232.3906 L238,232.3906 L228,222.3906 " fill="#FEFFDD" style="stroke:#181818;stroke-width:0.5;"/><text fill="#000000" font-family="sans-serif" font-size="9" lengthAdjust="spacing" textLength="73" x="150" y="235.7446">note for task11</text><text fill="#000000" font-family="sans-serif" font-size="9" lengthAdjust="spacing" textLength="55" x="150" y="246.2212">more notes</text><rect fill="#E2E2F0" height="12.8047" style="stroke:none;stroke-width:1.0;" width="76" x="146" y="207.5859"/><line style="stroke:#181818;stroke-width:1.0;" x1="146" x2="222" y1="207.5859" y2="207.5859"/><line style="stroke:#181818;stroke-width:1.0;" x1="146" x2="222" y1="220.3906" y2="220.3906"/><line style="stroke:#181818;stroke-width:1.0;" x1="146" x2="146" y1="207.5859" y2="220.3906"/><line style="stroke:#181818;stroke-width:1.0;" x1="222" x2="222" y1="207.5859" y2="220.3906"/><text fill="#000000" font-family="sans-serif" font-size="11" lengthAdjust="spacing" textLength="31" x="6" y="53.2104">taskA</text><text fill="#000000" font-family="sans-serif" font-size="11" lengthAdjust="spacing" textLength="32" x="150" y="53.2104">taskB</text><text fill="#000000" font-family="sans-serif" font-size="11" lengthAdjust="spacing" textLength="38" x="70" y="70.0151">task01</text><text fill="#000000" font-family="sans-serif" font-size="11" lengthAdjust="spacing" textLength="38" x="134" y="86.8198">task02</text><text fill="#000000" font-family="sans-serif" font-size="11" lengthAdjust="spacing" textLength="38" x="262" y="103.6245">task03</text><text fill="#000000" font-family="sans-serif" font-size="11" lengthAdjust="spacing" textLength="56" x="10" y="159.3823">separator</text><text fill="#000000" font-family="sans-serif" font-size="11" lengthAdjust="spacing" textLength="32" x="22" y="184.187">taskC</text><text fill="#000000" font-family="sans-serif" font-size="11" lengthAdjust="spacing" textLength="32" x="134" y="184.187">taskD</text><text fill="#000000" font-family="sans-serif" font-size="11" lengthAdjust="spacing" textLength="42" x="70" y="200.9917">task 10</text><text fill="#000000" font-family="sans-serif" font-size="11" lengthAdjust="spacing" textLength="42" x="150" y="217.7964">task 11</text><text fill="#000000" font-family="Serif" font-size="10" lengthAdjust="spacing" textLength="6" x="5" y="274.626">1</text><text fill="#000000" font-family="Serif" font-size="10" lengthAdjust="spacing" textLength="6" x="21" y="274.626">2</text><text fill="#000000" font-family="Serif" font-size="10" lengthAdjust="spacing" textLength="6" x="37" y="274.626">3</text><text fill="#000000" font-family="Serif" font-size="10" lengthAdjust="spacing" textLength="6" x="53" y="274.626">4</text><text fill="#000000" font-family="Serif" font-size="10" lengthAdjust="spacing" textLength="6" x="69" y="274.626">5</text><text fill="#000000" font-family="Serif" font-size="10" lengthAdjust="spacing" textLength="6" x="85" y="274.626">6</text><text fill="#000000" font-family="Serif" font-size="10" lengthAdjust="spacing" textLength="6" x="101" y="274.626">7</text><text fill="#000000" font-family="Serif" font-size="10" lengthAdjust="spacing" textLength="6" x="117" y="274.626">8</text><text fill="#000000" font-family="Serif" font-size="10" lengthAdjust="spacing" textLength="6" x="133" y="274.626">9</text><text fill="#000000" font-family="Serif" font-size="10" lengthAdjust="spacing" textLength="12" x="146" y="274.626">10</text><text fill="#000000" font-family="Serif" font-size="10" lengthAdjust="spacing" textLength="12" x="162" y="274.626">11</text><text fill="#000000" font-family="Serif" font-size="10" lengthAdjust="spacing" textLength="12" x="178" y="274.626">12</text><text fill="#000000" font-family="Serif" font-size="10" lengthAdjust="spacing" textLength="12" x="194" y="274.626">13</text><text fill="#000000" font-family="Serif" font-size="10" lengthAdjust="spacing" textLength="12" x="210" y="274.626">14</text><text fill="#000000" font-family="Serif" font-size="10" lengthAdjust="spacing" textLength="12" x="226" y="274.626">15</text><text fill="#000000" font-family="Serif" font-size="10" lengthAdjust="spacing" textLength="12" x="242" y="274.626">16</text><text fill="#000000" font-family="Serif" font-size="10" lengthAdjust="spacing" textLength="12" x="258" y="274.626">17</text><text fill="#000000" font-family="Serif" font-size="10" lengthAdjust="spacing" textLength="12" x="274" y="274.626">18</text><text fill="#000000" font-family="Serif" font-size="10" lengthAdjust="spacing" textLength="12" x="290" y="274.626">19</text><text fill="#000000" font-family="Serif" font-size="10" lengthAdjust="spacing" textLength="12" x="306" y="274.626">20</text><text fill="#000000" font-family="Serif" font-size="10" lengthAdjust="spacing" textLength="12" x="322" y="274.626">21</text><text fill="#000000" font-family="Serif" font-size="10" lengthAdjust="spacing" textLength="12" x="338" y="274.626">22</text><text fill="#000000" font-family="Serif" font-size="10" lengthAdjust="spacing" textLength="12" x="354" y="274.626">23</text><text fill="#000000" font-family="Serif" font-size="10" lengthAdjust="spacing" textLength="14" x="1" y="262.626">Tu</text><text fill="#000000" font-family="Serif" font-size="10" lengthAdjust="spacing" textLength="17" x="16" y="262.626">We</text><text fill="#000000" font-family="Serif" font-size="10" lengthAdjust="spacing" textLength="14" x="33" y="262.626">Th</text><text fill="#000000" font-family="Serif" font-size="10" lengthAdjust="spacing" textLength="12" x="50" y="262.626">Fr</text><text fill="#000000" font-family="Serif" font-size="10" lengthAdjust="spacing" textLength="11" x="66.5" y="262.626">Sa</text><text fill="#000000" font-family="Serif" font-size="10" lengthAdjust="spacing" textLength="12" x="82" y="262.626">Su</text><text fill="#000000" font-family="Serif" font-size="10" lengthAdjust="spacing" textLength="16" x="96" y="262.626">Mo</text><text fill="#000000" font-family="Serif" font-size="10" lengthAdjust="spacing" textLength="14" x="113" y="262.626">Tu</text><text fill="#000000" font-family="Serif" font-size="10" lengthAdjust="spacing" textLength="17" x="128" y="262.626">We</text><text fill="#000000" font-family="Serif" font-size="10" lengthAdjust="spacing" textLength="14" x="145" y="262.626">Th</text><text fill="#000000" font-family="Serif" font-size="10" lengthAdjust="spacing" textLength="12" x="162" y="262.626">Fr</text><text fill="#000000" font-family="Serif" font-size="10" lengthAdjust="spacing" textLength="11" x="178.5" y="262.626">Sa</text><text fill="#000000" font-family="Serif" font-size="10" lengthAdjust="spacing" textLength="12" x="194" y="262.626">Su</text><text fill="#000000" font-family="Serif" font-size="10" lengthAdjust="spacing" textLength="16" x="208" y="262.626">Mo</text><text fill="#000000" font-family="Serif" font-size="10" lengthAdjust="spacing" textLength="14" x="225" y="262.626">Tu</text><text fill="#000000" font-family="Serif" font-size="10" lengthAdjust="spacing" textLength="17" x="240" y="262.626">We</text><text fill="#000000" font-family="Serif" font-size="10" lengthAdjust="spacing" textLength="14" x="257" y="262.626">Th</text><text fill="#000000" font-family="Serif" font-size="10" lengthAdjust="spacing" textLength="12" x="274" y="262.626">Fr</text><text fill="#000000" font-family="Serif" font-size="10" lengthAdjust="spacing" textLength="11" x="290.5" y="262.626">Sa</text><text fill="#000000" font-family="Serif" font-size="10" lengthAdjust="spacing" textLength="12" x="306" y="262.626">Su</text><text fill="#000000" font-family="Serif" font-size="10" lengthAdjust="spacing" textLength="16" x="320" y="262.626">Mo</text><text fill="#000000" font-family="Serif" font-size="10" lengthAdjust="spacing" textLength="14" x="337" y="262.626">Tu</text><text fill="#000000" font-family="Serif" font-size="10" lengthAdjust="spacing" textLength="17" x="352" y="262.626">We</text><text fill="#000000" font-family="Serif" font-size="12" font-weight="bold" lengthAdjust="spacing" textLength="112" x="128" y="288.6113">September 2020</text><!--SRC=[XPBBRi8m44Nt_efPmYB83ey2AmffaIXHKNbiAXO6XZHjOYDxGiNVrpH1W5BeAgEvrsTchjAp90r5KX4nDZ7w4zS4lpqBFlUvnpiU5uozaxHVZyko159j897MDUkmaGURM_ibg-2thPlOxXBN0At0oXJ1w6-G5egfnNWkolER5z163cNqWIf_olrbeRLpJMb2M6aYdURrLXl8dIpL1k7Oj0mTyrXTiUedriD_hFhVBCy3Ypjf93cZvnLN3Sf7-HT7DI-I2ihMpcthtL07fr11yFkf5jHp4234ybgxcOGGVoRHSzNfbqlSTnwEOO_6ncvJKNDR-3NHgCmoX03Nm5iWsbs_qHLr68QpuvP-bLM6ap5OdPar7Yyb4wyoSe0g6yczXBTCKPnY5rvtg4R1owa1JseV6wrILCH6Y_1iQ3MyVammHUDMWKN80jpAB27tOgqtiOgwC9yzUsqsbYhAPEJOgDX0EwuvE6tw0m00]--></g></svg>