<?xml version="1.0" encoding="UTF-8" standalone="no"?>
<!DOCTYPE svg PUBLIC "-//W3C//DTD SVG 1.1//EN"
 "http://www.w3.org/Graphics/SVG/1.1/DTD/svg11.dtd">
<!-- Generated by graphviz version 7.0.5 (20221223.1930)
 -->
<!-- Title: finite_state_machine Pages: 1 -->
<svg width="576pt" height="249pt"
 viewBox="0.00 0.00 576.00 249.47" xmlns="http://www.w3.org/2000/svg" xmlns:xlink="http://www.w3.org/1999/xlink">
<g id="graph0" class="graph" transform="scale(0.7177 0.7177) rotate(0) translate(4 343.59)">
<title>finite_state_machine</title>
<polygon fill="white" stroke="none" points="-4,4 -4,-343.59 798.56,-343.59 798.56,4 -4,4"/>
<!-- LR_0 -->
<g id="node1" class="node">
<title>LR_0</title>
<ellipse fill="none" stroke="black" cx="37.8" cy="-87.8" rx="33.62" ry="33.62"/>
<ellipse fill="none" stroke="black" cx="37.8" cy="-87.8" rx="37.6" ry="37.6"/>
<text text-anchor="middle" x="37.8" y="-84.1" font-family="Times,serif" font-size="14.00">LR_0</text>
</g>
<!-- LR_2 -->
<g id="node5" class="node">
<title>LR_2</title>
<ellipse fill="none" stroke="black" cx="185.39" cy="-157.8" rx="33.6" ry="33.6"/>
<text text-anchor="middle" x="185.39" y="-154.1" font-family="Times,serif" font-size="14.00">LR_2</text>
</g>
<!-- LR_0&#45;&gt;LR_2 -->
<g id="edge1" class="edge">
<title>LR_0&#45;&gt;LR_2</title>
<path fill="none" stroke="black" d="M72.2,-103.86C93.65,-114.17 121.64,-127.63 144.29,-138.52"/>
<polygon fill="black" stroke="black" points="142.71,-141.64 153.24,-142.82 145.74,-135.33 142.71,-141.64"/>
<text text-anchor="middle" x="113.59" y="-136.6" font-family="Times,serif" font-size="14.00">SS(B)</text>
</g>
<!-- LR_1 -->
<g id="node6" class="node">
<title>LR_1</title>
<ellipse fill="none" stroke="black" cx="185.39" cy="-44.8" rx="33.6" ry="33.6"/>
<text text-anchor="middle" x="185.39" y="-41.1" font-family="Times,serif" font-size="14.00">LR_1</text>
</g>
<!-- LR_0&#45;&gt;LR_1 -->
<g id="edge2" class="edge">
<title>LR_0&#45;&gt;LR_1</title>
<path fill="none" stroke="black" d="M74.04,-77.39C94.54,-71.33 120.5,-63.67 142.1,-57.29"/>
<polygon fill="black" stroke="black" points="142.89,-60.7 151.49,-54.51 140.91,-53.99 142.89,-60.7"/>
<text text-anchor="middle" x="113.59" y="-75.6" font-family="Times,serif" font-size="14.00">SS(S)</text>
</g>
<!-- LR_3 -->
<g id="node2" class="node">
<title>LR_3</title>
<ellipse fill="none" stroke="black" cx="348.99" cy="-37.8" rx="33.62" ry="33.62"/>
<ellipse fill="none" stroke="black" cx="348.99" cy="-37.8" rx="37.6" ry="37.6"/>
<text text-anchor="middle" x="348.99" y="-34.1" font-family="Times,serif" font-size="14.00">LR_3</text>
</g>
<!-- LR_4 -->
<g id="node3" class="node">
<title>LR_4</title>
<ellipse fill="none" stroke="black" cx="348.99" cy="-301.8" rx="33.62" ry="33.62"/>
<ellipse fill="none" stroke="black" cx="348.99" cy="-301.8" rx="37.6" ry="37.6"/>
<text text-anchor="middle" x="348.99" y="-298.1" font-family="Times,serif" font-size="14.00">LR_4</text>
</g>
<!-- LR_8 -->
<g id="node4" class="node">
<title>LR_8</title>
<ellipse fill="none" stroke="black" cx="756.77" cy="-158.8" rx="33.62" ry="33.62"/>
<ellipse fill="none" stroke="black" cx="756.77" cy="-158.8" rx="37.6" ry="37.6"/>
<text text-anchor="middle" x="756.77" y="-155.1" font-family="Times,serif" font-size="14.00">LR_8</text>
</g>
<!-- LR_6 -->
<g id="node7" class="node">
<title>LR_6</title>
<ellipse fill="none" stroke="black" cx="348.99" cy="-178.8" rx="33.6" ry="33.6"/>
<text text-anchor="middle" x="348.99" y="-175.1" font-family="Times,serif" font-size="14.00">LR_6</text>
</g>
<!-- LR_8&#45;&gt;LR_6 -->
<g id="edge13" class="edge">
<title>LR_8&#45;&gt;LR_6</title>
<path fill="none" stroke="black" d="M719.35,-165.57C662.4,-175.42 548.7,-192.07 451.78,-187.8 432.73,-186.96 411.74,-185.24 393.79,-183.52"/>
<polygon fill="black" stroke="black" points="394.29,-180.05 383.99,-182.55 393.6,-187.02 394.29,-180.05"/>
<text text-anchor="middle" x="552.38" y="-190.6" font-family="Times,serif" font-size="14.00">S(b)</text>
</g>
<!-- LR_5 -->
<g id="node8" class="node">
<title>LR_5</title>
<ellipse fill="none" stroke="black" cx="485.58" cy="-111.8" rx="33.6" ry="33.6"/>
<text text-anchor="middle" x="485.58" y="-108.1" font-family="Times,serif" font-size="14.00">LR_5</text>
</g>
<!-- LR_8&#45;&gt;LR_5 -->
<g id="edge14" class="edge">
<title>LR_8&#45;&gt;LR_5</title>
<path fill="none" stroke="black" d="M719.13,-153.45C684.57,-148.3 631.36,-140.09 585.38,-131.8 567.01,-128.48 546.8,-124.46 529.47,-120.89"/>
<polygon fill="black" stroke="black" points="530.53,-117.54 520.03,-118.94 529.11,-124.39 530.53,-117.54"/>
<text text-anchor="middle" x="619.17" y="-146.6" font-family="Times,serif" font-size="14.00">S(a)</text>
</g>
<!-- LR_2&#45;&gt;LR_4 -->
<g id="edge6" class="edge">
<title>LR_2&#45;&gt;LR_4</title>
<path fill="none" stroke="black" d="M210.93,-179.67C237.81,-203.62 281.17,-242.25 311.91,-269.65"/>
<polygon fill="black" stroke="black" points="309.3,-272.01 319.09,-276.05 313.96,-266.79 309.3,-272.01"/>
<text text-anchor="middle" x="265.19" y="-254.6" font-family="Times,serif" font-size="14.00">S(A)</text>
</g>
<!-- LR_2&#45;&gt;LR_6 -->
<g id="edge4" class="edge">
<title>LR_2&#45;&gt;LR_6</title>
<path fill="none" stroke="black" d="M219.09,-162.05C243.51,-165.22 277.15,-169.59 303.94,-173.07"/>
<polygon fill="black" stroke="black" points="303.46,-176.54 313.83,-174.36 304.37,-169.6 303.46,-176.54"/>
<text text-anchor="middle" x="265.19" y="-174.6" font-family="Times,serif" font-size="14.00">SS(b)</text>
</g>
<!-- LR_2&#45;&gt;LR_5 -->
<g id="edge5" class="edge">
<title>LR_2&#45;&gt;LR_5</title>
<path fill="none" stroke="black" d="M217.45,-146.35C242.41,-137.71 278.56,-126.4 311.19,-120.8 354.69,-113.33 405.17,-111.46 440.4,-111.23"/>
<polygon fill="black" stroke="black" points="440.22,-114.73 450.21,-111.21 440.21,-107.73 440.22,-114.73"/>
<text text-anchor="middle" x="348.99" y="-124.6" font-family="Times,serif" font-size="14.00">SS(a)</text>
</g>
<!-- LR_1&#45;&gt;LR_3 -->
<g id="edge3" class="edge">
<title>LR_1&#45;&gt;LR_3</title>
<path fill="none" stroke="black" d="M219.09,-43.38C242.31,-42.37 273.86,-41.01 299.93,-39.88"/>
<polygon fill="black" stroke="black" points="299.75,-43.39 309.59,-39.46 299.44,-36.4 299.75,-43.39"/>
<text text-anchor="middle" x="265.19" y="-46.6" font-family="Times,serif" font-size="14.00">S($end)</text>
</g>
<!-- LR_6&#45;&gt;LR_6 -->
<g id="edge9" class="edge">
<title>LR_6&#45;&gt;LR_6</title>
<path fill="none" stroke="black" d="M335.82,-210.15C335.53,-221.41 339.92,-230.59 348.99,-230.59 354.79,-230.59 358.68,-226.83 360.65,-221.16"/>
<polygon fill="black" stroke="black" points="364.06,-222.03 361.95,-211.65 357.12,-221.09 364.06,-222.03"/>
<text text-anchor="middle" x="348.99" y="-234.39" font-family="Times,serif" font-size="14.00">S(b)</text>
</g>
<!-- LR_6&#45;&gt;LR_5 -->
<g id="edge10" class="edge">
<title>LR_6&#45;&gt;LR_5</title>
<path fill="none" stroke="black" d="M379.52,-164.09C398.72,-154.54 423.98,-141.96 444.92,-131.54"/>
<polygon fill="black" stroke="black" points="446.36,-134.73 453.76,-127.14 443.24,-128.46 446.36,-134.73"/>
<text text-anchor="middle" x="419.28" y="-154.6" font-family="Times,serif" font-size="14.00">S(a)</text>
</g>
<!-- LR_5&#45;&gt;LR_5 -->
<g id="edge8" class="edge">
<title>LR_5&#45;&gt;LR_5</title>
<path fill="none" stroke="black" d="M473.16,-143.41C472.96,-154.55 477.1,-163.59 485.58,-163.59 490.88,-163.59 494.49,-160.06 496.4,-154.69"/>
<polygon fill="black" stroke="black" points="499.84,-155.3 497.79,-144.91 492.91,-154.31 499.84,-155.3"/>
<text text-anchor="middle" x="485.58" y="-167.39" font-family="Times,serif" font-size="14.00">S(a)</text>
</g>
<!-- LR_7 -->
<g id="node9" class="node">
<title>LR_7</title>
<ellipse fill="none" stroke="black" cx="619.17" cy="-88.8" rx="33.6" ry="33.6"/>
<text text-anchor="middle" x="619.17" y="-85.1" font-family="Times,serif" font-size="14.00">LR_7</text>
</g>
<!-- LR_5&#45;&gt;LR_7 -->
<g id="edge7" class="edge">
<title>LR_5&#45;&gt;LR_7</title>
<path fill="none" stroke="black" d="M519.11,-106.11C535.79,-103.2 556.36,-99.6 574.41,-96.45"/>
<polygon fill="black" stroke="black" points="574.82,-99.93 584.07,-94.76 573.62,-93.03 574.82,-99.93"/>
<text text-anchor="middle" x="552.38" y="-106.6" font-family="Times,serif" font-size="14.00">S(b)</text>
</g>
<!-- LR_7&#45;&gt;LR_8 -->
<g id="edge11" class="edge">
<title>LR_7&#45;&gt;LR_8</title>
<path fill="none" stroke="black" d="M649.78,-103.67C665.1,-111.4 684.07,-121.04 700.97,-129.8 704.89,-131.83 708.96,-133.95 713.03,-136.09"/>
<polygon fill="black" stroke="black" points="711.25,-139.11 721.73,-140.67 714.52,-132.92 711.25,-139.11"/>
<text text-anchor="middle" x="685.97" y="-133.6" font-family="Times,serif" font-size="14.00">S(b)</text>
</g>
<!-- LR_7&#45;&gt;LR_5 -->
<g id="edge12" class="edge">
<title>LR_7&#45;&gt;LR_5</title>
<path fill="none" stroke="black" d="M586.61,-79.67C571.48,-76.7 553.24,-75.22 537.38,-79.8 532.26,-81.27 527.17,-83.43 522.29,-85.95"/>
<polygon fill="black" stroke="black" points="520.87,-82.72 513.95,-90.74 524.36,-88.79 520.87,-82.72"/>
<text text-anchor="middle" x="552.38" y="-83.6" font-family="Times,serif" font-size="14.00">S(a)</text>
</g>
</g>
</svg>
