<?xml version="1.0" encoding="UTF-8" standalone="no"?><svg xmlns="http://www.w3.org/2000/svg" xmlns:xlink="http://www.w3.org/1999/xlink" contentStyleType="text/css" height="519px" preserveAspectRatio="none" style="width:527px;height:519px;background:#FFFFFF;" version="1.1" viewBox="0 0 527 519" width="527px" zoomAndPan="magnify"><defs/><g><rect fill="#F1F1F1" height="142.0781" rx="5" ry="5" style="stroke:#F1F1F1;stroke-width:1.5;" width="212" x="10" y="18.5"/><text fill="#000000" font-family="sans-serif" font-size="14" font-weight="bold" lengthAdjust="spacing" textLength="28" x="15" y="33.4951">null</text><text fill="#000000" font-family="sans-serif" font-size="14" lengthAdjust="spacing" textLength="11" x="131" y="33.4951">␀</text><line style="stroke:#000000;stroke-width:1.0;" x1="126" x2="126" y1="18.5" y2="38.7969"/><line style="stroke:#000000;stroke-width:1.0;" x1="10" x2="222" y1="38.7969" y2="38.7969"/><text fill="#000000" font-family="sans-serif" font-size="14" font-weight="bold" lengthAdjust="spacing" textLength="33" x="15" y="53.792">true</text><text fill="#000000" font-family="sans-serif" font-size="14" lengthAdjust="spacing" textLength="45" x="131" y="53.792">☑ true</text><line style="stroke:#000000;stroke-width:1.0;" x1="126" x2="126" y1="38.7969" y2="59.0938"/><line style="stroke:#000000;stroke-width:1.0;" x1="10" x2="222" y1="59.0938" y2="59.0938"/><text fill="#000000" font-family="sans-serif" font-size="14" font-weight="bold" lengthAdjust="spacing" textLength="38" x="15" y="74.0889">false</text><text fill="#000000" font-family="sans-serif" font-size="14" lengthAdjust="spacing" textLength="49" x="131" y="74.0889">☐ false</text><line style="stroke:#000000;stroke-width:1.0;" x1="126" x2="126" y1="59.0938" y2="79.3906"/><line style="stroke:#000000;stroke-width:1.0;" x1="10" x2="222" y1="79.3906" y2="79.3906"/><text fill="#000000" font-family="sans-serif" font-size="14" font-weight="bold" lengthAdjust="spacing" textLength="106" x="15" y="94.3857">JSON_Number</text><text fill="#000000" font-family="sans-serif" font-size="14" lengthAdjust="spacing" textLength="12" x="131" y="94.3857">   </text><line style="stroke:#000000;stroke-width:1.0;" x1="126" x2="126" y1="79.3906" y2="99.6875"/><line style="stroke:#000000;stroke-width:1.0;" x1="10" x2="222" y1="99.6875" y2="99.6875"/><text fill="#000000" font-family="sans-serif" font-size="14" font-weight="bold" lengthAdjust="spacing" textLength="91" x="15" y="114.6826">JSON_String</text><text fill="#000000" font-family="sans-serif" font-size="14" lengthAdjust="spacing" textLength="25" x="131" y="114.6826">a
b&#13;c</text><text fill="#000000" font-family="sans-serif" font-size="14" lengthAdjust="spacing" textLength="9" x="163" y="114.6826">d</text><text fill="#008000" font-family="sans-serif" font-size="14" lengthAdjust="spacing" textLength="41" x="176" y="114.6826">TBC...</text><line style="stroke:#000000;stroke-width:1.0;" x1="126" x2="126" y1="99.6875" y2="119.9844"/><line style="stroke:#000000;stroke-width:1.0;" x1="10" x2="222" y1="119.9844" y2="119.9844"/><text fill="#000000" font-family="sans-serif" font-size="14" font-weight="bold" lengthAdjust="spacing" textLength="95" x="15" y="134.9795">JSON_Object</text><text fill="#000000" font-family="sans-serif" font-size="14" lengthAdjust="spacing" textLength="12" x="131" y="134.9795">   </text><line style="stroke:#000000;stroke-width:1.0;" x1="126" x2="126" y1="119.9844" y2="140.2813"/><line style="stroke:#000000;stroke-width:1.0;" x1="10" x2="222" y1="140.2813" y2="140.2813"/><text fill="#000000" font-family="sans-serif" font-size="14" font-weight="bold" lengthAdjust="spacing" textLength="87" x="15" y="155.2764">JSON_Array</text><text fill="#000000" font-family="sans-serif" font-size="14" lengthAdjust="spacing" textLength="12" x="131" y="155.2764">   </text><line style="stroke:#000000;stroke-width:1.0;" x1="126" x2="126" y1="140.2813" y2="160.5781"/><rect fill="none" height="142.0781" rx="5" ry="5" style="stroke:#000000;stroke-width:1.5;" width="212" x="10" y="18.5"/><rect fill="#F1F1F1" height="60.8906" rx="5" ry="5" style="stroke:#F1F1F1;stroke-width:1.5;" width="39" x="283" y="10"/><text fill="#000000" font-family="sans-serif" font-size="14" lengthAdjust="spacing" textLength="14" x="288" y="24.9951">-1</text><line style="stroke:#000000;stroke-width:1.0;" x1="283" x2="322" y1="30.2969" y2="30.2969"/><text fill="#000000" font-family="sans-serif" font-size="14" lengthAdjust="spacing" textLength="27" x="288" y="45.292">-1.1</text><line style="stroke:#000000;stroke-width:1.0;" x1="283" x2="322" y1="50.5938" y2="50.5938"/><text fill="#008000" font-family="sans-serif" font-size="14" lengthAdjust="spacing" textLength="29" x="288" y="65.5889">TBC</text><rect fill="none" height="60.8906" rx="5" ry="5" style="stroke:#000000;stroke-width:1.5;" width="39" x="283" y="10"/><rect fill="#F1F1F1" height="81.1875" rx="5" ry="5" style="stroke:#F1F1F1;stroke-width:1.5;" width="87" x="259" y="89"/><text fill="#000000" font-family="sans-serif" font-size="14" font-weight="bold" lengthAdjust="spacing" textLength="20" x="264" y="103.9951">{}</text><text fill="#000000" font-family="sans-serif" font-size="14" lengthAdjust="spacing" textLength="12" x="314" y="103.9951">   </text><line style="stroke:#000000;stroke-width:1.0;" x1="309" x2="309" y1="89" y2="109.2969"/><line style="stroke:#000000;stroke-width:1.0;" x1="259" x2="346" y1="109.2969" y2="109.2969"/><text fill="#000000" font-family="sans-serif" font-size="14" font-weight="bold" lengthAdjust="spacing" textLength="36" x="264" y="124.292">k_int</text><text fill="#000000" font-family="sans-serif" font-size="14" lengthAdjust="spacing" textLength="27" x="314" y="124.292">123</text><line style="stroke:#000000;stroke-width:1.0;" x1="309" x2="309" y1="109.2969" y2="129.5938"/><line style="stroke:#000000;stroke-width:1.0;" x1="259" x2="346" y1="129.5938" y2="129.5938"/><text fill="#000000" font-family="sans-serif" font-size="14" font-weight="bold" lengthAdjust="spacing" textLength="38" x="264" y="144.5889">k_str</text><text fill="#000000" font-family="sans-serif" font-size="14" lengthAdjust="spacing" textLength="25" x="314" y="144.5889">abc</text><line style="stroke:#000000;stroke-width:1.0;" x1="309" x2="309" y1="129.5938" y2="149.8906"/><line style="stroke:#000000;stroke-width:1.0;" x1="259" x2="346" y1="149.8906" y2="149.8906"/><text fill="#000000" font-family="sans-serif" font-size="14" font-weight="bold" lengthAdjust="spacing" textLength="40" x="264" y="164.8857">k_obj</text><text fill="#000000" font-family="sans-serif" font-size="14" lengthAdjust="spacing" textLength="12" x="314" y="164.8857">   </text><line style="stroke:#000000;stroke-width:1.0;" x1="309" x2="309" y1="149.8906" y2="170.1875"/><rect fill="none" height="81.1875" rx="5" ry="5" style="stroke:#000000;stroke-width:1.5;" width="87" x="259" y="89"/><rect fill="#F1F1F1" height="15" rx="5" ry="5" style="stroke:#F1F1F1;stroke-width:1.5;" width="30" x="400.5" y="90.5"/><rect fill="none" height="15" rx="5" ry="5" style="stroke:#000000;stroke-width:1.5;" width="30" x="400.5" y="90.5"/><rect fill="#F1F1F1" height="20.2969" rx="5" ry="5" style="stroke:#F1F1F1;stroke-width:1.5;" width="36" x="394.5" y="136.5"/><text fill="#000000" font-family="sans-serif" font-size="14" font-weight="bold" lengthAdjust="spacing" textLength="9" x="399.5" y="151.4951">k</text><text fill="#000000" font-family="sans-serif" font-size="14" lengthAdjust="spacing" textLength="7" x="418.5" y="151.4951">v</text><line style="stroke:#000000;stroke-width:1.0;" x1="413.5" x2="413.5" y1="136.5" y2="156.7969"/><rect fill="none" height="20.2969" rx="5" ry="5" style="stroke:#000000;stroke-width:1.5;" width="36" x="394.5" y="136.5"/><rect fill="#F1F1F1" height="101.4844" rx="5" ry="5" style="stroke:#F1F1F1;stroke-width:1.5;" width="22" x="290.5" y="219"/><text fill="#000000" font-family="sans-serif" font-size="14" lengthAdjust="spacing" textLength="12" x="295.5" y="233.9951">   </text><line style="stroke:#000000;stroke-width:1.0;" x1="290.5" x2="312.5" y1="239.2969" y2="239.2969"/><text fill="#000000" font-family="sans-serif" font-size="14" lengthAdjust="spacing" textLength="12" x="295.5" y="254.292">   </text><line style="stroke:#000000;stroke-width:1.0;" x1="290.5" x2="312.5" y1="259.5938" y2="259.5938"/><text fill="#000000" font-family="sans-serif" font-size="14" lengthAdjust="spacing" textLength="12" x="295.5" y="274.5889">   </text><line style="stroke:#000000;stroke-width:1.0;" x1="290.5" x2="312.5" y1="279.8906" y2="279.8906"/><text fill="#000000" font-family="sans-serif" font-size="14" lengthAdjust="spacing" textLength="12" x="295.5" y="294.8857">   </text><line style="stroke:#000000;stroke-width:1.0;" x1="290.5" x2="312.5" y1="300.1875" y2="300.1875"/><text fill="#000000" font-family="sans-serif" font-size="14" lengthAdjust="spacing" textLength="12" x="295.5" y="315.1826">   </text><rect fill="none" height="101.4844" rx="5" ry="5" style="stroke:#000000;stroke-width:1.5;" width="22" x="290.5" y="219"/><rect fill="#F1F1F1" height="15" rx="5" ry="5" style="stroke:#F1F1F1;stroke-width:1.5;" width="30" x="400.5" y="174.5"/><rect fill="none" height="15" rx="5" ry="5" style="stroke:#000000;stroke-width:1.5;" width="30" x="400.5" y="174.5"/><rect fill="#F1F1F1" height="40.5938" rx="5" ry="5" style="stroke:#F1F1F1;stroke-width:1.5;" width="59" x="383" y="209"/><text fill="#000000" font-family="sans-serif" font-size="14" lengthAdjust="spacing" textLength="45" x="388" y="223.9951">☑ true</text><line style="stroke:#000000;stroke-width:1.0;" x1="383" x2="442" y1="229.2969" y2="229.2969"/><text fill="#000000" font-family="sans-serif" font-size="14" lengthAdjust="spacing" textLength="49" x="388" y="244.292">☐ false</text><rect fill="none" height="40.5938" rx="5" ry="5" style="stroke:#000000;stroke-width:1.5;" width="59" x="383" y="209"/><rect fill="#F1F1F1" height="40.5938" rx="5" ry="5" style="stroke:#F1F1F1;stroke-width:1.5;" width="24" x="400.5" y="268"/><text fill="#000000" font-family="sans-serif" font-size="14" lengthAdjust="spacing" textLength="14" x="405.5" y="282.9951">-1</text><line style="stroke:#000000;stroke-width:1.0;" x1="400.5" x2="424.5" y1="288.2969" y2="288.2969"/><text fill="#000000" font-family="sans-serif" font-size="14" lengthAdjust="spacing" textLength="9" x="405.5" y="303.292">1</text><rect fill="none" height="40.5938" rx="5" ry="5" style="stroke:#000000;stroke-width:1.5;" width="24" x="400.5" y="268"/><rect fill="#F1F1F1" height="60.8906" rx="5" ry="5" style="stroke:#F1F1F1;stroke-width:1.5;" width="19" x="400.5" y="327"/><text fill="#000000" font-family="sans-serif" font-size="14" lengthAdjust="spacing" textLength="8" x="405.5" y="341.9951">a</text><line style="stroke:#000000;stroke-width:1.0;" x1="400.5" x2="419.5" y1="347.2969" y2="347.2969"/><text fill="#000000" font-family="sans-serif" font-size="14" lengthAdjust="spacing" textLength="9" x="405.5" y="362.292">b</text><line style="stroke:#000000;stroke-width:1.0;" x1="400.5" x2="419.5" y1="367.5938" y2="367.5938"/><text fill="#000000" font-family="sans-serif" font-size="14" lengthAdjust="spacing" textLength="8" x="405.5" y="382.5889">c</text><rect fill="none" height="60.8906" rx="5" ry="5" style="stroke:#000000;stroke-width:1.5;" width="19" x="400.5" y="327"/><rect fill="#F1F1F1" height="101.4844" rx="5" ry="5" style="stroke:#F1F1F1;stroke-width:1.5;" width="55" x="385" y="406"/><text fill="#000000" font-family="sans-serif" font-size="14" lengthAdjust="spacing" textLength="23" x="390" y="420.9951">mix</text><line style="stroke:#000000;stroke-width:1.0;" x1="385" x2="440" y1="426.2969" y2="426.2969"/><text fill="#000000" font-family="sans-serif" font-size="14" lengthAdjust="spacing" textLength="11" x="390" y="441.292">␀</text><line style="stroke:#000000;stroke-width:1.0;" x1="385" x2="440" y1="446.5938" y2="446.5938"/><text fill="#000000" font-family="sans-serif" font-size="14" lengthAdjust="spacing" textLength="45" x="390" y="461.5889">☑ true</text><line style="stroke:#000000;stroke-width:1.0;" x1="385" x2="440" y1="466.8906" y2="466.8906"/><text fill="#000000" font-family="sans-serif" font-size="14" lengthAdjust="spacing" textLength="9" x="390" y="481.8857">1</text><line style="stroke:#000000;stroke-width:1.0;" x1="385" x2="440" y1="487.1875" y2="487.1875"/><text fill="#000000" font-family="sans-serif" font-size="14" lengthAdjust="spacing" textLength="12" x="390" y="502.1826">   </text><rect fill="none" height="101.4844" rx="5" ry="5" style="stroke:#000000;stroke-width:1.5;" width="55" x="385" y="406"/><rect fill="#F1F1F1" height="20.2969" rx="5" ry="5" style="stroke:#F1F1F1;stroke-width:1.5;" width="36" x="479" y="486.5"/><text fill="#000000" font-family="sans-serif" font-size="14" font-weight="bold" lengthAdjust="spacing" textLength="9" x="484" y="501.4951">k</text><text fill="#000000" font-family="sans-serif" font-size="14" lengthAdjust="spacing" textLength="7" x="503" y="501.4951">v</text><line style="stroke:#000000;stroke-width:1.0;" x1="498" x2="498" y1="486.5" y2="506.7969"/><rect fill="none" height="20.2969" rx="5" ry="5" style="stroke:#000000;stroke-width:1.5;" width="36" x="479" y="486.5"/><path d="M210,88.5 L223,88.5 C243.3615,88.5 262.9448,76.71 277.52,64.8164 " fill="none" style="stroke:#000000;stroke-width:1.0;stroke-dasharray:3.0,3.0;"/><path d="M279.5478,67.1874 L279.2983,63.2955 L275.4922,62.4454 L283.4476,59.7469 L279.5478,67.1874 " fill="#000000" style="stroke:#000000;stroke-width:1.0;"/><ellipse cx="210" cy="88.5" fill="#000000" rx="3" ry="3" style="stroke:#000000;stroke-width:1.0;"/><path d="M334,98.5 L347,98.5 C362.5518,98.5 380.1965,98.5 393.1739,98.5 " fill="none" style="stroke:#000000;stroke-width:1.0;stroke-dasharray:3.0,3.0;"/><path d="M393.1739,101.614 L395.5095,98.5 L393.1739,95.386 L400.959,98.5 L393.1739,101.614 " fill="#000000" style="stroke:#000000;stroke-width:1.0;"/><ellipse cx="334" cy="98.5" fill="#000000" rx="3" ry="3" style="stroke:#000000;stroke-width:1.0;"/><path d="M334,159.5 L347,159.5 C360.4997,159.5 375.2755,156.7704 387.3235,153.8128 " fill="none" style="stroke:#000000;stroke-width:1.0;stroke-dasharray:3.0,3.0;"/><path d="M388.1035,156.8058 L389.5682,153.2277 L386.5434,150.8198 L394.806,151.8627 L388.1035,156.8058 " fill="#000000" style="stroke:#000000;stroke-width:1.0;"/><ellipse cx="334" cy="159.5" fill="#000000" rx="3" ry="3" style="stroke:#000000;stroke-width:1.0;"/><path d="M210,129.5 L223,129.5 C232.3071,129.5 242.231,129.5 251.7907,129.5 " fill="none" style="stroke:#000000;stroke-width:1.0;stroke-dasharray:3.0,3.0;"/><path d="M251.7907,132.5279 L254.0616,129.5 L251.7907,126.4721 L259.3605,129.5 L251.7907,132.5279 " fill="#000000" style="stroke:#000000;stroke-width:1.0;"/><ellipse cx="210" cy="129.5" fill="#000000" rx="3" ry="3" style="stroke:#000000;stroke-width:1.0;"/><path d="M303,228.5 L316,228.5 C324.3263,228.5 368.5023,205.705 393.9292,192.208 " fill="none" style="stroke:#000000;stroke-width:1.0;stroke-dasharray:3.0,3.0;"/><path d="M395.4069,194.9797 L396.0079,191.0997 L392.4515,189.4363 L400.8584,188.5137 L395.4069,194.9797 " fill="#000000" style="stroke:#000000;stroke-width:1.0;"/><ellipse cx="303" cy="228.5" fill="#000000" rx="3" ry="3" style="stroke:#000000;stroke-width:1.0;"/><path d="M303,248.5 L316,248.5 C336.0694,248.5 358.0574,244.4546 375.9204,240.0972 " fill="none" style="stroke:#000000;stroke-width:1.0;stroke-dasharray:3.0,3.0;"/><path d="M376.6707,243.0513 L378.1361,239.5345 L375.1702,237.143 L383.3058,238.2215 L376.6707,243.0513 " fill="#000000" style="stroke:#000000;stroke-width:1.0;"/><ellipse cx="303" cy="248.5" fill="#000000" rx="3" ry="3" style="stroke:#000000;stroke-width:1.0;"/><path d="M303,268.5 L316,268.5 C343.5318,268.5 374.5892,276.4812 393.7309,282.36 " fill="none" style="stroke:#000000;stroke-width:1.0;stroke-dasharray:3.0,3.0;"/><path d="M392.8174,285.2372 L395.8888,283.0451 L394.6444,279.4828 L400.9238,284.6438 L392.8174,285.2372 " fill="#000000" style="stroke:#000000;stroke-width:1.0;"/><ellipse cx="303" cy="268.5" fill="#000000" rx="3" ry="3" style="stroke:#000000;stroke-width:1.0;"/><path d="M303,289.5 L316,289.5 C348.9468,289.5 378.49,316.5001 395.8372,336.4733 " fill="none" style="stroke:#000000;stroke-width:1.0;stroke-dasharray:3.0,3.0;"/><path d="M393.4631,338.4662 L397.3319,338.2539 L398.2113,334.4804 L400.8195,342.4086 L393.4631,338.4662 " fill="#000000" style="stroke:#000000;stroke-width:1.0;"/><ellipse cx="303" cy="289.5" fill="#000000" rx="3" ry="3" style="stroke:#000000;stroke-width:1.0;"/><path d="M429,496.5 L442,496.5 C451.6599,496.5 462.2829,496.5 471.5645,496.5 " fill="none" style="stroke:#000000;stroke-width:1.0;stroke-dasharray:3.0,3.0;"/><path d="M471.5645,499.6013 L473.8905,496.5 L471.5645,493.3987 L479.3178,496.5 L471.5645,499.6013 " fill="#000000" style="stroke:#000000;stroke-width:1.0;"/><ellipse cx="429" cy="496.5" fill="#000000" rx="3" ry="3" style="stroke:#000000;stroke-width:1.0;"/><path d="M303,308.5 L303,321.5 C303,370.4976 347.0036,411.7313 379.0931,435.2866 " fill="none" style="stroke:#000000;stroke-width:1.0;stroke-dasharray:3.0,3.0;"/><path d="M377.3042,437.7836 L380.9659,436.6283 L380.8821,432.7896 L385.3356,439.759 L377.3042,437.7836 " fill="#000000" style="stroke:#000000;stroke-width:1.0;"/><ellipse cx="303" cy="308.5" fill="#000000" rx="3" ry="3" style="stroke:#000000;stroke-width:1.0;"/><path d="M210,150.5 L223,150.5 C243.8069,150.5 271.2818,201.6347 287.7419,236.8647 " fill="none" style="stroke:#000000;stroke-width:1.0;stroke-dasharray:3.0,3.0;"/><path d="M285.0163,238.1207 L288.6839,238.9089 L290.4675,235.6087 L290.8818,243.6788 L285.0163,238.1207 " fill="#000000" style="stroke:#000000;stroke-width:1.0;"/><ellipse cx="210" cy="150.5" fill="#000000" rx="3" ry="3" style="stroke:#000000;stroke-width:1.0;"/><!--SRC=[NL7VQy8m47xFNt7aIK6BhI9Ind3g9ZX_iNQ-g4XQOudMPAI9JAJ_-ouL4VQIo_VTTr_kBlt2C6sEXPBaHgYqUKv3SA51gD6M8t81qO7bXODLH3o95lFTt9uJhf5TD_q6D7qFJ_gIgbpfCDESozTuCAJRXpmoMiWCvPHjPBBHwSRiuR_SyppwA5WaHvuQBC3cRgMB9QPEEo4TwGVj2XL6Lvv9IYkiagEJqfDZBxGavSFlJMjsfO3zaZLsjQvcku_ae1l2TnVAA0wIk2Eb5N4MluYgpTmt0gXzFh4bMrAIFfVxQfTacJDflcTJk71T22N1zu9M47X-fnPR3YEUGgiBVYyCEg7VXl4i1fUlazfuEOL2MPros0kSJ2JMe46TJDY5mPULHfnv28iVBYUZpmS1x_8Yj99dBWsPh6PFGRVJ70W34TVO2gncPCGFpEO6ArArn-y8uJl-QFR8bCdCiWozkIH3XRxwYhde3m00]--></g></svg>