<?xml version="1.0" encoding="UTF-8" standalone="no"?><svg xmlns="http://www.w3.org/2000/svg" xmlns:xlink="http://www.w3.org/1999/xlink" contentStyleType="text/css" height="427.9828px" preserveAspectRatio="none" style="width:500px;height:427px;background:#003153;" version="1.1" viewBox="0 0 500 427" width="500.0574px" zoomAndPan="magnify"><defs/><g><rect fill="#003153" height="427.9828" style="stroke:none;stroke-width:0.6378283221288158;" width="500.0574" x="0" y="0"/><ellipse cx="317.3834" cy="23.5996" fill="#D9D3D0" rx="6.3783" ry="6.3783" style="stroke:none;stroke-width:0.6378283221288158;"/><g id="State1"><rect fill="#003153" height="31.8914" rx="7.9729" ry="7.9729" style="stroke:#D9D3D0;stroke-width:0.6378283221288158;" width="58.6802" x="346.0856" y="7.6539"/><line style="stroke:#D9D3D0;stroke-width:0.6378283221288158;" x1="346.0856" x2="404.7659" y1="30.3666" y2="30.3666"/><text fill="#D9D3D0" font-family="Verdana" font-size="14.0322" lengthAdjust="spacing" textLength="45.9236" x="352.4639" y="23.8681">State1</text></g><g id="State2"><rect fill="#003153" height="31.8914" rx="7.9729" ry="7.9729" style="stroke:#D9D3D0;stroke-width:0.6378283221288158;" width="58.6802" x="205.1256" y="88.6581"/><line style="stroke:#D9D3D0;stroke-width:0.6378283221288158;" x1="205.1256" x2="263.8058" y1="111.3708" y2="111.3708"/><text fill="#D9D3D0" font-family="Verdana" font-size="14.0322" lengthAdjust="spacing" textLength="45.9236" x="211.5039" y="104.8723">State2</text></g><ellipse cx="234.4657" cy="417.7776" fill="none" rx="6.3783" ry="6.3783" style="stroke:#D9D3D0;stroke-width:0.6378283221288158;"/><ellipse cx="234.7846" cy="418.0965" fill="#D9D3D0" rx="3.827" ry="3.827" style="stroke:none;stroke-width:0.6378283221288158;"/><path d="M111.0459,169.6623 L357.8855,169.6623 A7.9729,7.9729 0 0 1 365.8583,177.6352 L365.8583,192.375 L103.0731,192.375 L103.0731,177.6352 A7.9729,7.9729 0 0 1 111.0459,169.6623 " fill="#003153" style="stroke:#003153;stroke-width:0.6378283221288158;"/><path d="M103.0731,192.375 L365.8583,192.375 L365.8583,354.0645 A7.9729,7.9729 0 0 1 357.8855,362.0373 L111.0459,362.0373 A7.9729,7.9729 0 0 1 103.0731,354.0645 L103.0731,192.375 " fill="#003153" style="stroke:#003153;stroke-width:0.6378283221288158;"/><rect fill="none" height="192.375" rx="7.9729" ry="7.9729" style="stroke:#D9D3D0;stroke-width:0.6378283221288158;" width="262.7853" x="103.0731" y="169.6623"/><line style="stroke:#D9D3D0;stroke-width:0.6378283221288158;" x1="103.0731" x2="365.8583" y1="192.375" y2="192.375"/><text fill="#D9D3D0" font-family="Verdana" font-size="14.0322" lengthAdjust="spacing" textLength="45.9236" x="211.5039" y="185.8765">State3</text><g id="State3.long1"><rect fill="#003153" height="54.335" rx="7.9729" ry="7.9729" style="stroke:#D9D3D0;stroke-width:0.6378283221288158;" width="190.7107" x="110.727" y="235.7473"/><line style="stroke:#D9D3D0;stroke-width:0.6378283221288158;" x1="110.727" x2="301.4377" y1="274.7944" y2="274.7944"/><text fill="#D9D3D0" font-family="Verdana" font-size="14.0322" lengthAdjust="spacing" textLength="177.9541" x="117.1053" y="251.9615">Accumulate Enough Data</text><text fill="#D9D3D0" font-family="Verdana" font-size="14.0322" lengthAdjust="spacing" textLength="120.5496" x="145.8076" y="268.2959">Long State Name</text><text fill="#D9D3D0" font-family="Verdana" font-size="7.6539" lengthAdjust="spacing" textLength="40.821" x="113.9161" y="285.0881">Just a test</text></g><ellipse cx="206.0823" cy="205.7694" fill="#D9D3D0" rx="6.3783" ry="6.3783" style="stroke:none;stroke-width:0.6378283221288158;"/><g id="State3.ProcessData"><rect fill="#003153" height="31.8914" rx="7.9729" ry="7.9729" style="stroke:#D9D3D0;stroke-width:0.6378283221288158;" width="98.2256" x="156.9696" y="323.7676"/><line style="stroke:#D9D3D0;stroke-width:0.6378283221288158;" x1="156.9696" x2="255.1951" y1="346.4803" y2="346.4803"/><text fill="#D9D3D0" font-family="Verdana" font-size="14.0322" lengthAdjust="spacing" textLength="85.469" x="163.3478" y="339.9818">ProcessData</text></g><!--link *start*State3 to long1--><g id="link_*start*State3_long1"><path d="M206.0823,212.3773 C206.0823,217.1227 206.0823,224.158 206.0823,231.4484 " fill="none" id="*start*State3-to-long1" style="stroke:#D9D3D0;stroke-width:0.6378283221288158;"/><polygon fill="#D9D3D0" points="206.0823,234.5546,208.6336,228.8141,206.0823,231.3654,203.531,228.8141,206.0823,234.5546" style="stroke:#D9D3D0;stroke-width:0.6378283221288158;"/></g><!--link long1 to long1--><g id="link_long1_long1"><path d="M301.7374,257.4718 C308.6706,258.6836 312.9186,260.4823 312.9186,262.855 C312.9186,264.7494 310.2206,266.2738 305.6154,267.4283 " fill="none" id="long1-to-long1" style="stroke:#D9D3D0;stroke-width:0.6378283221288158;"/><polygon fill="#D9D3D0" points="302.6814,268.0406,308.8206,269.3718,305.804,267.3923,307.7834,264.3757,302.6814,268.0406" style="stroke:#D9D3D0;stroke-width:0.6378283221288158;"/><text fill="#D9D3D0" font-family="Verdana" font-size="8.2918" lengthAdjust="spacing" textLength="39.5454" x="316.7455" y="265.7679">New Data</text></g><!--link long1 to ProcessData--><g id="link_long1_ProcessData"><path d="M206.0823,290.1413 C206.0823,299.8682 206.0823,310.6858 206.0823,319.6664 " fill="none" id="long1-to-ProcessData" style="stroke:#D9D3D0;stroke-width:0.6378283221288158;"/><polygon fill="#D9D3D0" points="206.0823,322.6897,208.6336,316.9493,206.0823,319.5006,203.531,316.9493,206.0823,322.6897" style="stroke:#D9D3D0;stroke-width:0.6378283221288158;"/><text fill="#D9D3D0" font-family="Verdana" font-size="8.2918" lengthAdjust="spacing" textLength="52.9398" x="206.7202" y="309.7781">Enough Data</text></g><!--link *start to State1--><g id="link_*start_State1"><path d="M323.9594,23.5996 C329.8976,23.5996 335.8294,23.5996 341.7675,23.5996 " fill="none" id="*start-to-State1" style="stroke:#D9D3D0;stroke-width:0.6378283221288158;"/><polygon fill="#D9D3D0" points="344.9057,23.5996,339.1652,21.0483,341.7165,23.5996,339.1652,26.151,344.9057,23.5996" style="stroke:#D9D3D0;stroke-width:0.6378283221288158;"/></g><!--link State1 to State2--><g id="link_State1_State2"><path d="M347.9162,39.8005 C324.24,53.1885 290.1098,72.4956 265.4769,86.4257 " fill="none" id="State1-to-State2" style="stroke:#D9D3D0;stroke-width:0.6378283221288158;"/><polygon fill="#D9D3D0" points="262.7534,87.9693,269.0068,87.3718,265.5313,86.4027,266.5003,82.9272,262.7534,87.9693" style="stroke:#D9D3D0;stroke-width:0.6378283221288158;"/><text fill="#D9D3D0" font-family="Verdana" font-size="8.2918" lengthAdjust="spacing" textLength="45.2858" x="313.5564" y="67.0146">Succeeded</text></g><!--link State1 to *end--><g id="link_State1_*end"><path d="M384.4574,39.8069 C413.1788,91.5858 496.173,260.4444 420.0737,362.2865 C398.3302,391.3842 280.9187,410.4617 244.9516,415.6855 " fill="none" id="State1-to-*end" style="stroke:#D9D3D0;stroke-width:0.6378283221288158;"/><polygon fill="#D9D3D0" points="241.9347,416.1192,247.981,417.8233,245.091,415.6631,247.2512,412.7731,241.9347,416.1192" style="stroke:#D9D3D0;stroke-width:0.6378283221288158;"/><text fill="#D9D3D0" font-family="Verdana" font-size="8.2918" lengthAdjust="spacing" textLength="32.5292" x="432.1925" y="148.0188">Aborted</text></g><!--link State2 to State3--><g id="link_State2_State3"><path d="M234.4657,120.5942 C234.4657,131.7626 234.4657,147.9507 234.4657,165.4909 " fill="none" id="State2-to-State3" style="stroke:#D9D3D0;stroke-width:0.6378283221288158;"/><polygon fill="#D9D3D0" points="234.4657,168.527,237.017,162.7865,234.4657,165.3379,231.9144,162.7865,234.4657,168.527" style="stroke:#D9D3D0;stroke-width:0.6378283221288158;"/><text fill="#D9D3D0" font-family="Verdana" font-size="8.2918" lengthAdjust="spacing" textLength="45.2858" x="235.1035" y="148.0188">Succeeded</text></g><!--link State2 to *end--><g id="link_State2_*end"><path d="M204.8832,106.2494 C163.9155,109.4322 91.2031,121.9145 57.7872,169.6623 C8.7064,239.8043 7.0161,293.3564 57.7872,362.2865 C78.2934,390.1213 189.2692,409.9323 224.0436,415.5324 " fill="none" id="State2-to-*end" style="stroke:#D9D3D0;stroke-width:0.6378283221288158;"/><polygon fill="#D9D3D0" points="227.1179,416.0171,221.8492,412.5963,223.9683,415.5165,221.0481,417.6356,227.1179,416.0171" style="stroke:#D9D3D0;stroke-width:0.6378283221288158;"/><text fill="#D9D3D0" font-family="Verdana" font-size="8.2918" lengthAdjust="spacing" textLength="32.5292" x="58.4251" y="268.8873">Aborted</text></g><!--link State3 to State3--><g id="link_State3_State3"><path d="M365.9349,247.2733 C379.5079,250.9472 388.1823,257.1788 388.1823,265.9744 C388.1823,273.9409 381.0578,279.8089 369.6215,283.5785 " fill="none" id="State3-to-State3" style="stroke:#D9D3D0;stroke-width:0.6378283221288158;"/><polygon fill="#D9D3D0" points="366.8597,284.4013,373.0894,285.2091,369.9164,283.4916,371.6339,280.3185,366.8597,284.4013" style="stroke:#D9D3D0;stroke-width:0.6378283221288158;"/><text fill="#D9D3D0" font-family="Verdana" font-size="8.2918" lengthAdjust="spacing" textLength="23.5996" x="392.0093" y="268.8873">Failed</text></g><!--link State3 to *end--><g id="link_State3_*end"><path d="M161.3961,362.5735 C160.3118,372.8107 162.3018,382.8947 168.7694,392.2644 C181.2581,410.3469 208.7229,415.2964 223.8841,416.6422 " fill="none" id="State3-to-*end" style="stroke:#D9D3D0;stroke-width:0.6378283221288158;"/><polygon fill="#D9D3D0" points="227.0286,416.8782,221.4845,413.9244,223.8476,416.651,221.121,419.0141,227.0286,416.8782" style="stroke:#D9D3D0;stroke-width:0.6378283221288158;"/><text fill="#D9D3D0" font-family="Verdana" font-size="8.2918" lengthAdjust="spacing" textLength="100.7769" x="169.4072" y="389.7558">Succeeded / Save Result</text></g><!--link State3 to *end--><g id="link_State3_*end"><path d="M269.4952,362.497 C271.026,368.8434 272.3463,375.1898 273.3732,381.4213 C274.1577,386.1732 275.6885,388.0356 273.3732,392.2644 C267.2437,403.4647 253.6835,410.3532 244.3138,413.9633 " fill="none" id="State3-to-*end-1" style="stroke:#D9D3D0;stroke-width:0.6378283221288158;"/><polygon fill="#D9D3D0" points="241.4946,414.9839,247.7601,415.4366,244.4946,413.902,246.0292,410.6365,241.4946,414.9839" style="stroke:#D9D3D0;stroke-width:0.6378283221288158;"/><text fill="#D9D3D0" font-family="Verdana" font-size="8.2918" lengthAdjust="spacing" textLength="32.5292" x="274.6489" y="389.7558">Aborted</text></g><!--SRC=[RL0zRy8m4DtzArupLeeQWbWOa91e1rIXgXbfXyCvaKXEWk9p6Qh-zpfVO0IBxNiVT_Vy90LNZ8DnV6hBMfJLP1YB9C6vpALGQl_yZNY5J4XufeOByOIaM29pMZFdd8TiPrjYVMXQcOZqQflVsz87DjiHa-DtBAErrgvofdk_reqx5jYGq5VztjJ7GOmTLHo1B8p7Pge_VT-jimA2i9KXbvyOAYwrr-xutFSDg8-sqMnjXtf1C5lzgN79cuHlL9eftZo8TqcE5sJqm_XawupS2yT_-0S0]--></g></svg>