<?xml version="1.0" encoding="UTF-8" standalone="no"?>
<!DOCTYPE svg PUBLIC "-//W3C//DTD SVG 1.1//EN"
 "http://www.w3.org/Graphics/SVG/1.1/DTD/svg11.dtd">
<!-- Generated by graphviz version 7.0.5 (20221223.1930)
 -->
<!-- Title: finite_state_machine Pages: 1 -->
<svg width="395pt" height="256pt"
 viewBox="0.00 0.00 394.78 255.59" xmlns="http://www.w3.org/2000/svg" xmlns:xlink="http://www.w3.org/1999/xlink">
<g id="graph0" class="graph" transform="scale(1 1) rotate(0) translate(4 251.59)">
<title>finite_state_machine</title>
<polygon fill="white" stroke="none" points="-4,4 -4,-251.59 390.78,-251.59 390.78,4 -4,4"/>
<!-- LR_0 -->
<g id="node1" class="node">
<title>LR_0</title>
<ellipse fill="none" stroke="black" cx="37.8" cy="-82.8" rx="33.62" ry="33.62"/>
<ellipse fill="none" stroke="black" cx="37.8" cy="-82.8" rx="37.6" ry="37.6"/>
<text text-anchor="middle" x="37.8" y="-79.1" font-family="Times,serif" font-size="14.00">LR_0</text>
</g>
<!-- LR_2 -->
<g id="node3" class="node">
<title>LR_2</title>
<ellipse fill="none" stroke="black" cx="185.39" cy="-127.8" rx="33.6" ry="33.6"/>
<text text-anchor="middle" x="185.39" y="-124.1" font-family="Times,serif" font-size="14.00">LR_2</text>
</g>
<!-- LR_0&#45;&gt;LR_2 -->
<g id="edge1" class="edge">
<title>LR_0&#45;&gt;LR_2</title>
<path fill="none" stroke="black" d="M74.04,-93.69C94.54,-100.03 120.5,-108.05 142.1,-114.73"/>
<polygon fill="black" stroke="black" points="140.91,-118.02 151.49,-117.63 142.97,-111.33 140.91,-118.02"/>
<text text-anchor="middle" x="113.59" y="-115.6" font-family="Times,serif" font-size="14.00">SS(B)</text>
</g>
<!-- LR_1 -->
<g id="node4" class="node">
<title>LR_1</title>
<ellipse fill="none" stroke="black" cx="185.39" cy="-39.8" rx="33.6" ry="33.6"/>
<text text-anchor="middle" x="185.39" y="-36.1" font-family="Times,serif" font-size="14.00">LR_1</text>
</g>
<!-- LR_0&#45;&gt;LR_1 -->
<g id="edge2" class="edge">
<title>LR_0&#45;&gt;LR_1</title>
<path fill="none" stroke="black" d="M74.04,-72.39C94.54,-66.33 120.5,-58.67 142.1,-52.29"/>
<polygon fill="black" stroke="black" points="142.89,-55.7 151.49,-49.51 140.91,-48.99 142.89,-55.7"/>
<text text-anchor="middle" x="113.59" y="-70.6" font-family="Times,serif" font-size="14.00">SS(S)</text>
</g>
<!-- LR_3 -->
<g id="node2" class="node">
<title>LR_3</title>
<ellipse fill="none" stroke="black" cx="348.99" cy="-37.8" rx="33.62" ry="33.62"/>
<ellipse fill="none" stroke="black" cx="348.99" cy="-37.8" rx="37.6" ry="37.6"/>
<text text-anchor="middle" x="348.99" y="-34.1" font-family="Times,serif" font-size="14.00">LR_3</text>
</g>
<!-- LR_6 -->
<g id="node5" class="node">
<title>LR_6</title>
<ellipse fill="none" stroke="black" cx="348.99" cy="-213.8" rx="33.6" ry="33.6"/>
<text text-anchor="middle" x="348.99" y="-210.1" font-family="Times,serif" font-size="14.00">LR_6</text>
</g>
<!-- LR_2&#45;&gt;LR_6 -->
<g id="edge4" class="edge">
<title>LR_2&#45;&gt;LR_6</title>
<path fill="none" stroke="black" d="M215.65,-143.37C241.74,-157.25 280.12,-177.68 308.84,-192.96"/>
<polygon fill="black" stroke="black" points="307.13,-196.02 317.6,-197.63 310.42,-189.84 307.13,-196.02"/>
<text text-anchor="middle" x="265.19" y="-186.6" font-family="Times,serif" font-size="14.00">SS(b)</text>
</g>
<!-- LR_5 -->
<g id="node6" class="node">
<title>LR_5</title>
<ellipse fill="none" stroke="black" cx="348.99" cy="-127.8" rx="33.6" ry="33.6"/>
<text text-anchor="middle" x="348.99" y="-124.1" font-family="Times,serif" font-size="14.00">LR_5</text>
</g>
<!-- LR_2&#45;&gt;LR_5 -->
<g id="edge5" class="edge">
<title>LR_2&#45;&gt;LR_5</title>
<path fill="none" stroke="black" d="M219.48,-127.8C243.77,-127.8 277.03,-127.8 303.62,-127.8"/>
<polygon fill="black" stroke="black" points="303.42,-131.3 313.42,-127.8 303.42,-124.3 303.42,-131.3"/>
<text text-anchor="middle" x="265.19" y="-131.6" font-family="Times,serif" font-size="14.00">SS(a)</text>
</g>
<!-- LR_1&#45;&gt;LR_3 -->
<g id="edge3" class="edge">
<title>LR_1&#45;&gt;LR_3</title>
<path fill="none" stroke="black" d="M219.09,-39.39C242.31,-39.1 273.86,-38.71 299.93,-38.39"/>
<polygon fill="black" stroke="black" points="299.63,-41.9 309.59,-38.27 299.54,-34.9 299.63,-41.9"/>
<text text-anchor="middle" x="265.19" y="-43.6" font-family="Times,serif" font-size="14.00">S($end)</text>
</g>
</g>
</svg>
