<?xml version="1.0" encoding="UTF-8" standalone="no"?><svg xmlns="http://www.w3.org/2000/svg" xmlns:xlink="http://www.w3.org/1999/xlink" contentStyleType="text/css" height="196px" preserveAspectRatio="none" style="width:216px;height:196px;background:#FFFFFF;" version="1.1" viewBox="0 0 216 196" width="216px" zoomAndPan="magnify"><defs/><g><ellipse cx="108" cy="20" fill="#222222" rx="10" ry="10" style="stroke:#222222;stroke-width:1.0;"/><rect fill="#555555" height="6" rx="2.5" ry="2.5" style="stroke:#555555;stroke-width:1.0;" width="194" x="11" y="50"/><rect fill="#F1F1F1" height="33.9688" rx="12.5" ry="12.5" style="stroke:#181818;stroke-width:0.5;" width="71" x="23" y="76"/><text fill="#000000" font-family="sans-serif" font-size="12" lengthAdjust="spacing" textLength="51" x="33" y="97.1387">action 1</text><rect fill="#F1F1F1" height="33.9688" rx="12.5" ry="12.5" style="stroke:#181818;stroke-width:0.5;" width="71" x="122" y="76"/><text fill="#000000" font-family="sans-serif" font-size="12" lengthAdjust="spacing" textLength="51" x="132" y="97.1387">action 2</text><polygon fill="#F1F1F1" points="108,119.9688,120,131.9688,108,143.9688,96,131.9688,108,119.9688" style="stroke:#181818;stroke-width:0.5;"/><ellipse cx="108" cy="174.9688" fill="none" rx="11" ry="11" style="stroke:#222222;stroke-width:1.0;"/><ellipse cx="108" cy="174.9688" fill="#222222" rx="6" ry="6" style="stroke:#111111;stroke-width:1.0;"/><line style="stroke:#181818;stroke-width:1.0;" x1="58.5" x2="58.5" y1="56" y2="76"/><polygon fill="#181818" points="54.5,66,58.5,76,62.5,66,58.5,70" style="stroke:#181818;stroke-width:1.0;"/><line style="stroke:#181818;stroke-width:1.0;" x1="157.5" x2="157.5" y1="56" y2="76"/><polygon fill="#181818" points="153.5,66,157.5,76,161.5,66,157.5,70" style="stroke:#181818;stroke-width:1.0;"/><line style="stroke:#181818;stroke-width:1.0;" x1="58.5" x2="58.5" y1="109.9688" y2="131.9688"/><line style="stroke:#181818;stroke-width:1.0;" x1="58.5" x2="96" y1="131.9688" y2="131.9688"/><polygon fill="#181818" points="86,127.9688,96,131.9688,86,135.9688,90,131.9688" style="stroke:#181818;stroke-width:1.0;"/><line style="stroke:#181818;stroke-width:1.0;" x1="157.5" x2="157.5" y1="109.9688" y2="131.9688"/><line style="stroke:#181818;stroke-width:1.0;" x1="157.5" x2="120" y1="131.9688" y2="131.9688"/><polygon fill="#181818" points="130,127.9688,120,131.9688,130,135.9688,126,131.9688" style="stroke:#181818;stroke-width:1.0;"/><line style="stroke:#181818;stroke-width:1.0;" x1="108" x2="108" y1="30" y2="50"/><polygon fill="#181818" points="104,40,108,50,112,40,108,44" style="stroke:#181818;stroke-width:1.0;"/><line style="stroke:#181818;stroke-width:1.0;" x1="108" x2="108" y1="143.9688" y2="163.9688"/><polygon fill="#181818" points="104,153.9688,108,163.9688,112,153.9688,108,157.9688" style="stroke:#181818;stroke-width:1.0;"/><!--SRC=[Aov9B2hXIiilokQoIamkoSpFKp2q1lCL4jCJC_FWeaRMNAbvAGgvgKNfgLp59Va50000]--></g></svg>