<?xml version="1.0" encoding="UTF-8" standalone="no"?><svg xmlns="http://www.w3.org/2000/svg" xmlns:xlink="http://www.w3.org/1999/xlink" contentStyleType="text/css" height="305px" preserveAspectRatio="none" style="width:899px;height:305px;background:#FFFFFF;" version="1.1" viewBox="0 0 899 305" width="899px" zoomAndPan="magnify"><defs/><g><line style="stroke:#333333;stroke-width:0.5;" x1="10" x2="10" y1="10" y2="275.5313"/><line style="stroke:#333333;stroke-width:0.5;" x1="882" x2="882" y1="10" y2="275.5313"/><rect fill="#FFD700" height="265.5313" style="stroke:none;stroke-width:1.0;" width="120" x="277" y="10"/><rect fill="#ADD8E6" height="265.5313" style="stroke:none;stroke-width:1.0;" width="120" x="547" y="10"/><line style="stroke:#333333;stroke-width:0.5;stroke-dasharray:3.0,5.0;" x1="97" x2="97" y1="10" y2="275.5313"/><line style="stroke:#333333;stroke-width:0.5;stroke-dasharray:3.0,5.0;" x1="247" x2="247" y1="10" y2="275.5313"/><line style="stroke:#333333;stroke-width:0.5;stroke-dasharray:3.0,5.0;" x1="397" x2="397" y1="10" y2="275.5313"/><line style="stroke:#333333;stroke-width:0.5;stroke-dasharray:3.0,5.0;" x1="547" x2="547" y1="10" y2="275.5313"/><line style="stroke:#333333;stroke-width:0.5;stroke-dasharray:3.0,5.0;" x1="697" x2="697" y1="10" y2="275.5313"/><line style="stroke:#333333;stroke-width:0.5;stroke-dasharray:3.0,5.0;" x1="847" x2="847" y1="10" y2="275.5313"/><line style="stroke:#333333;stroke-width:0.5;" x1="10" x2="882" y1="10" y2="10"/><line style="stroke:#006400;stroke-width:1.5;" x1="97" x2="97" y1="31.9688" y2="45.9688"/><line style="stroke:#006400;stroke-width:1.5;" x1="97" x2="112" y1="31.9688" y2="31.9688"/><line style="stroke:#006400;stroke-width:1.5;" x1="112" x2="112" y1="31.9688" y2="45.9688"/><line style="stroke:#006400;stroke-width:1.5;" x1="112" x2="127" y1="45.9688" y2="45.9688"/><line style="stroke:#006400;stroke-width:1.5;" x1="127" x2="127" y1="31.9688" y2="45.9688"/><line style="stroke:#006400;stroke-width:1.5;" x1="127" x2="142" y1="31.9688" y2="31.9688"/><line style="stroke:#006400;stroke-width:1.5;" x1="142" x2="142" y1="31.9688" y2="45.9688"/><line style="stroke:#006400;stroke-width:1.5;" x1="142" x2="157" y1="45.9688" y2="45.9688"/><line style="stroke:#006400;stroke-width:1.5;" x1="157" x2="157" y1="31.9688" y2="45.9688"/><line style="stroke:#006400;stroke-width:1.5;" x1="157" x2="172" y1="31.9688" y2="31.9688"/><line style="stroke:#006400;stroke-width:1.5;" x1="172" x2="172" y1="31.9688" y2="45.9688"/><line style="stroke:#006400;stroke-width:1.5;" x1="172" x2="187" y1="45.9688" y2="45.9688"/><line style="stroke:#006400;stroke-width:1.5;" x1="187" x2="187" y1="31.9688" y2="45.9688"/><line style="stroke:#006400;stroke-width:1.5;" x1="187" x2="202" y1="31.9688" y2="31.9688"/><line style="stroke:#006400;stroke-width:1.5;" x1="202" x2="202" y1="31.9688" y2="45.9688"/><line style="stroke:#006400;stroke-width:1.5;" x1="202" x2="217" y1="45.9688" y2="45.9688"/><line style="stroke:#006400;stroke-width:1.5;" x1="217" x2="217" y1="31.9688" y2="45.9688"/><line style="stroke:#006400;stroke-width:1.5;" x1="217" x2="232" y1="31.9688" y2="31.9688"/><line style="stroke:#006400;stroke-width:1.5;" x1="232" x2="232" y1="31.9688" y2="45.9688"/><line style="stroke:#006400;stroke-width:1.5;" x1="232" x2="247" y1="45.9688" y2="45.9688"/><line style="stroke:#006400;stroke-width:1.5;" x1="247" x2="247" y1="31.9688" y2="45.9688"/><line style="stroke:#006400;stroke-width:1.5;" x1="247" x2="262" y1="31.9688" y2="31.9688"/><line style="stroke:#006400;stroke-width:1.5;" x1="262" x2="262" y1="31.9688" y2="45.9688"/><line style="stroke:#006400;stroke-width:1.5;" x1="262" x2="277" y1="45.9688" y2="45.9688"/><line style="stroke:#006400;stroke-width:1.5;" x1="277" x2="277" y1="31.9688" y2="45.9688"/><line style="stroke:#006400;stroke-width:1.5;" x1="277" x2="292" y1="31.9688" y2="31.9688"/><line style="stroke:#006400;stroke-width:1.5;" x1="292" x2="292" y1="31.9688" y2="45.9688"/><line style="stroke:#006400;stroke-width:1.5;" x1="292" x2="307" y1="45.9688" y2="45.9688"/><line style="stroke:#006400;stroke-width:1.5;" x1="307" x2="307" y1="31.9688" y2="45.9688"/><line style="stroke:#006400;stroke-width:1.5;" x1="307" x2="322" y1="31.9688" y2="31.9688"/><line style="stroke:#006400;stroke-width:1.5;" x1="322" x2="322" y1="31.9688" y2="45.9688"/><line style="stroke:#006400;stroke-width:1.5;" x1="322" x2="337" y1="45.9688" y2="45.9688"/><line style="stroke:#006400;stroke-width:1.5;" x1="337" x2="337" y1="31.9688" y2="45.9688"/><line style="stroke:#006400;stroke-width:1.5;" x1="337" x2="352" y1="31.9688" y2="31.9688"/><line style="stroke:#006400;stroke-width:1.5;" x1="352" x2="352" y1="31.9688" y2="45.9688"/><line style="stroke:#006400;stroke-width:1.5;" x1="352" x2="367" y1="45.9688" y2="45.9688"/><line style="stroke:#006400;stroke-width:1.5;" x1="367" x2="367" y1="31.9688" y2="45.9688"/><line style="stroke:#006400;stroke-width:1.5;" x1="367" x2="382" y1="31.9688" y2="31.9688"/><line style="stroke:#006400;stroke-width:1.5;" x1="382" x2="382" y1="31.9688" y2="45.9688"/><line style="stroke:#006400;stroke-width:1.5;" x1="382" x2="397" y1="45.9688" y2="45.9688"/><line style="stroke:#006400;stroke-width:1.5;" x1="397" x2="397" y1="31.9688" y2="45.9688"/><line style="stroke:#006400;stroke-width:1.5;" x1="397" x2="412" y1="31.9688" y2="31.9688"/><line style="stroke:#006400;stroke-width:1.5;" x1="412" x2="412" y1="31.9688" y2="45.9688"/><line style="stroke:#006400;stroke-width:1.5;" x1="412" x2="427" y1="45.9688" y2="45.9688"/><line style="stroke:#006400;stroke-width:1.5;" x1="427" x2="427" y1="31.9688" y2="45.9688"/><line style="stroke:#006400;stroke-width:1.5;" x1="427" x2="442" y1="31.9688" y2="31.9688"/><line style="stroke:#006400;stroke-width:1.5;" x1="442" x2="442" y1="31.9688" y2="45.9688"/><line style="stroke:#006400;stroke-width:1.5;" x1="442" x2="457" y1="45.9688" y2="45.9688"/><line style="stroke:#006400;stroke-width:1.5;" x1="457" x2="457" y1="31.9688" y2="45.9688"/><line style="stroke:#006400;stroke-width:1.5;" x1="457" x2="472" y1="31.9688" y2="31.9688"/><line style="stroke:#006400;stroke-width:1.5;" x1="472" x2="472" y1="31.9688" y2="45.9688"/><line style="stroke:#006400;stroke-width:1.5;" x1="472" x2="487" y1="45.9688" y2="45.9688"/><line style="stroke:#006400;stroke-width:1.5;" x1="487" x2="487" y1="31.9688" y2="45.9688"/><line style="stroke:#006400;stroke-width:1.5;" x1="487" x2="502" y1="31.9688" y2="31.9688"/><line style="stroke:#006400;stroke-width:1.5;" x1="502" x2="502" y1="31.9688" y2="45.9688"/><line style="stroke:#006400;stroke-width:1.5;" x1="502" x2="517" y1="45.9688" y2="45.9688"/><line style="stroke:#006400;stroke-width:1.5;" x1="517" x2="517" y1="31.9688" y2="45.9688"/><line style="stroke:#006400;stroke-width:1.5;" x1="517" x2="532" y1="31.9688" y2="31.9688"/><line style="stroke:#006400;stroke-width:1.5;" x1="532" x2="532" y1="31.9688" y2="45.9688"/><line style="stroke:#006400;stroke-width:1.5;" x1="532" x2="547" y1="45.9688" y2="45.9688"/><line style="stroke:#006400;stroke-width:1.5;" x1="547" x2="547" y1="31.9688" y2="45.9688"/><line style="stroke:#006400;stroke-width:1.5;" x1="547" x2="562" y1="31.9688" y2="31.9688"/><line style="stroke:#006400;stroke-width:1.5;" x1="562" x2="562" y1="31.9688" y2="45.9688"/><line style="stroke:#006400;stroke-width:1.5;" x1="562" x2="577" y1="45.9688" y2="45.9688"/><line style="stroke:#006400;stroke-width:1.5;" x1="577" x2="577" y1="31.9688" y2="45.9688"/><line style="stroke:#006400;stroke-width:1.5;" x1="577" x2="592" y1="31.9688" y2="31.9688"/><line style="stroke:#006400;stroke-width:1.5;" x1="592" x2="592" y1="31.9688" y2="45.9688"/><line style="stroke:#006400;stroke-width:1.5;" x1="592" x2="607" y1="45.9688" y2="45.9688"/><line style="stroke:#006400;stroke-width:1.5;" x1="607" x2="607" y1="31.9688" y2="45.9688"/><line style="stroke:#006400;stroke-width:1.5;" x1="607" x2="622" y1="31.9688" y2="31.9688"/><line style="stroke:#006400;stroke-width:1.5;" x1="622" x2="622" y1="31.9688" y2="45.9688"/><line style="stroke:#006400;stroke-width:1.5;" x1="622" x2="637" y1="45.9688" y2="45.9688"/><line style="stroke:#006400;stroke-width:1.5;" x1="637" x2="637" y1="31.9688" y2="45.9688"/><line style="stroke:#006400;stroke-width:1.5;" x1="637" x2="652" y1="31.9688" y2="31.9688"/><line style="stroke:#006400;stroke-width:1.5;" x1="652" x2="652" y1="31.9688" y2="45.9688"/><line style="stroke:#006400;stroke-width:1.5;" x1="652" x2="667" y1="45.9688" y2="45.9688"/><line style="stroke:#006400;stroke-width:1.5;" x1="667" x2="667" y1="31.9688" y2="45.9688"/><line style="stroke:#006400;stroke-width:1.5;" x1="667" x2="682" y1="31.9688" y2="31.9688"/><line style="stroke:#006400;stroke-width:1.5;" x1="682" x2="682" y1="31.9688" y2="45.9688"/><line style="stroke:#006400;stroke-width:1.5;" x1="682" x2="697" y1="45.9688" y2="45.9688"/><line style="stroke:#006400;stroke-width:1.5;" x1="697" x2="697" y1="31.9688" y2="45.9688"/><line style="stroke:#006400;stroke-width:1.5;" x1="697" x2="712" y1="31.9688" y2="31.9688"/><line style="stroke:#006400;stroke-width:1.5;" x1="712" x2="712" y1="31.9688" y2="45.9688"/><line style="stroke:#006400;stroke-width:1.5;" x1="712" x2="727" y1="45.9688" y2="45.9688"/><line style="stroke:#006400;stroke-width:1.5;" x1="727" x2="727" y1="31.9688" y2="45.9688"/><line style="stroke:#006400;stroke-width:1.5;" x1="727" x2="742" y1="31.9688" y2="31.9688"/><line style="stroke:#006400;stroke-width:1.5;" x1="742" x2="742" y1="31.9688" y2="45.9688"/><line style="stroke:#006400;stroke-width:1.5;" x1="742" x2="757" y1="45.9688" y2="45.9688"/><line style="stroke:#006400;stroke-width:1.5;" x1="757" x2="757" y1="31.9688" y2="45.9688"/><line style="stroke:#006400;stroke-width:1.5;" x1="757" x2="772" y1="31.9688" y2="31.9688"/><line style="stroke:#006400;stroke-width:1.5;" x1="772" x2="772" y1="31.9688" y2="45.9688"/><line style="stroke:#006400;stroke-width:1.5;" x1="772" x2="787" y1="45.9688" y2="45.9688"/><line style="stroke:#006400;stroke-width:1.5;" x1="787" x2="787" y1="31.9688" y2="45.9688"/><line style="stroke:#006400;stroke-width:1.5;" x1="787" x2="802" y1="31.9688" y2="31.9688"/><line style="stroke:#006400;stroke-width:1.5;" x1="802" x2="802" y1="31.9688" y2="45.9688"/><line style="stroke:#006400;stroke-width:1.5;" x1="802" x2="817" y1="45.9688" y2="45.9688"/><line style="stroke:#006400;stroke-width:1.5;" x1="817" x2="817" y1="31.9688" y2="45.9688"/><line style="stroke:#006400;stroke-width:1.5;" x1="817" x2="832" y1="31.9688" y2="31.9688"/><line style="stroke:#006400;stroke-width:1.5;" x1="832" x2="832" y1="31.9688" y2="45.9688"/><line style="stroke:#006400;stroke-width:1.5;" x1="832" x2="847" y1="45.9688" y2="45.9688"/><line style="stroke:#006400;stroke-width:1.5;" x1="847" x2="847" y1="31.9688" y2="45.9688"/><line style="stroke:#006400;stroke-width:1.5;" x1="847" x2="862" y1="31.9688" y2="31.9688"/><line style="stroke:#006400;stroke-width:1.5;" x1="862" x2="862" y1="31.9688" y2="45.9688"/><line style="stroke:#006400;stroke-width:1.5;" x1="862" x2="877" y1="45.9688" y2="45.9688"/><line style="stroke:#006400;stroke-width:1.5;" x1="877" x2="877" y1="31.9688" y2="45.9688"/><line style="stroke:#006400;stroke-width:1.5;" x1="877" x2="877" y1="31.9688" y2="31.9688"/><line style="stroke:#333333;stroke-width:0.5;" x1="10" x2="882" y1="53.9688" y2="53.9688"/><text fill="#333333" font-family="sans-serif" font-size="14" font-weight="bold" lengthAdjust="spacing" textLength="53" x="15" y="73.8154">enable</text><line style="stroke:#006400;stroke-width:2.0;" x1="97" x2="97" y1="75.9688" y2="75.9688"/><line style="stroke:#006400;stroke-width:2.0;" x1="97" x2="187" y1="75.9688" y2="75.9688"/><line style="stroke:#006400;stroke-width:2.0;" x1="187" x2="187" y1="61.9688" y2="75.9688"/><line style="stroke:#006400;stroke-width:2.0;" x1="187" x2="697" y1="61.9688" y2="61.9688"/><line style="stroke:#006400;stroke-width:2.0;" x1="697" x2="697" y1="61.9688" y2="75.9688"/><line style="stroke:#006400;stroke-width:2.0;" x1="697" x2="877" y1="75.9688" y2="75.9688"/><line style="stroke:#333333;stroke-width:0.5;" x1="10" x2="882" y1="83.9688" y2="83.9688"/><text fill="#333333" font-family="sans-serif" font-size="14" font-weight="bold" lengthAdjust="spacing" textLength="30" x="15" y="103.8154">R/W</text><line style="stroke:#006400;stroke-width:2.0;" x1="97" x2="97" y1="105.9688" y2="105.9688"/><line style="stroke:#006400;stroke-width:2.0;" x1="97" x2="277" y1="105.9688" y2="105.9688"/><line style="stroke:#006400;stroke-width:2.0;" x1="277" x2="277" y1="91.9688" y2="105.9688"/><line style="stroke:#006400;stroke-width:2.0;" x1="277" x2="397" y1="91.9688" y2="91.9688"/><line style="stroke:#006400;stroke-width:2.0;" x1="397" x2="397" y1="91.9688" y2="105.9688"/><line style="stroke:#006400;stroke-width:2.0;" x1="397" x2="427" y1="105.9688" y2="105.9688"/><line style="stroke:#006400;stroke-width:2.0;" x1="427" x2="877" y1="105.9688" y2="105.9688"/><line style="stroke:#333333;stroke-width:0.5;" x1="10" x2="882" y1="113.9688" y2="113.9688"/><text fill="#333333" font-family="sans-serif" font-size="14" font-weight="bold" lengthAdjust="spacing" textLength="77" x="15" y="133.8154">data Valid</text><line style="stroke:#006400;stroke-width:2.0;" x1="97" x2="97" y1="135.9688" y2="135.9688"/><line style="stroke:#006400;stroke-width:2.0;" x1="97" x2="247" y1="135.9688" y2="135.9688"/><line style="stroke:#006400;stroke-width:2.0;" x1="247" x2="247" y1="121.9688" y2="135.9688"/><line style="stroke:#006400;stroke-width:2.0;" x1="247" x2="397" y1="121.9688" y2="121.9688"/><line style="stroke:#006400;stroke-width:2.0;" x1="397" x2="397" y1="121.9688" y2="135.9688"/><line style="stroke:#006400;stroke-width:2.0;" x1="397" x2="457" y1="135.9688" y2="135.9688"/><line style="stroke:#006400;stroke-width:2.0;" x1="457" x2="457" y1="121.9688" y2="135.9688"/><line style="stroke:#006400;stroke-width:2.0;" x1="457" x2="697" y1="121.9688" y2="121.9688"/><line style="stroke:#006400;stroke-width:2.0;" x1="697" x2="697" y1="121.9688" y2="135.9688"/><line style="stroke:#006400;stroke-width:2.0;" x1="697" x2="877" y1="135.9688" y2="135.9688"/><line style="stroke:#333333;stroke-width:0.5;" x1="10" x2="882" y1="143.9688" y2="143.9688"/><text fill="#333333" font-family="sans-serif" font-size="14" font-weight="bold" lengthAdjust="spacing" textLength="63" x="15" y="156.9639">dataBus</text><line style="stroke:#333333;stroke-width:0.5;" x1="10" x2="79" y1="161.2656" y2="161.2656"/><line style="stroke:#333333;stroke-width:0.5;" x1="79" x2="89" y1="161.2656" y2="143.9688"/><polygon fill="#E2E2F0" points="109,185.2344,205,185.2344,217,197.2344,205,209.2344,109,209.2344,97,197.2344" style="stroke:#006400;stroke-width:1.5;"/><polygon fill="#E2E2F0" points="229,185.2344,415,185.2344,427,197.2344,415,209.2344,229,209.2344,217,197.2344" style="stroke:#006400;stroke-width:1.5;"/><polygon fill="#E2E2F0" points="439,185.2344,475,185.2344,487,197.2344,475,209.2344,439,209.2344,427,197.2344" style="stroke:#006400;stroke-width:1.5;"/><polygon fill="#E2E2F0" points="499,185.2344,715,185.2344,727,197.2344,715,209.2344,499,209.2344,487,197.2344" style="stroke:#006400;stroke-width:1.5;"/><polygon fill="#E2E2F0" points="739,185.2344,877,185.2344,877,209.2344,739,209.2344,727,197.2344" style="stroke:#E2E2F0;stroke-width:1.5;"/><path d="M877,185.2344 L739,185.2344 L727,197.2344 L739,209.2344 L877,209.2344 " fill="#E2E2F0" style="stroke:#006400;stroke-width:1.5;"/><text fill="#333333" font-family="sans-serif" font-size="12" font-weight="bold" lengthAdjust="spacing" textLength="23" x="145.5" y="201.3887">0x0</text><text fill="#333333" font-family="sans-serif" font-size="12" font-weight="bold" lengthAdjust="spacing" textLength="85" x="279.5" y="201.3887">0xDEADBEEF</text><text fill="#333333" font-family="sans-serif" font-size="12" font-weight="bold" lengthAdjust="spacing" textLength="23" x="445.5" y="201.3887">0x0</text><text fill="#333333" font-family="sans-serif" font-size="12" font-weight="bold" lengthAdjust="spacing" textLength="47" x="583.5" y="201.3887">0xFFFF</text><text fill="#333333" font-family="sans-serif" font-size="12" font-weight="bold" lengthAdjust="spacing" textLength="23" x="739" y="201.3887">0x0</text><line style="stroke:#8B0000;stroke-width:1.5;" x1="248" x2="396" y1="175.75" y2="175.75"/><polygon fill="#8B0000" points="256,179.75,256,171.75,248,175.75" style="stroke:#8B0000;stroke-width:1.0;"/><polygon fill="#8B0000" points="388,179.75,388,171.75,396,175.75" style="stroke:#8B0000;stroke-width:1.0;"/><text fill="#8B0000" font-family="sans-serif" font-size="12" lengthAdjust="spacing" textLength="67" x="288.5" y="167.9199">setup time</text><line style="stroke:#333333;stroke-width:0.5;" x1="10" x2="882" y1="219.2344" y2="219.2344"/><text fill="#333333" font-family="sans-serif" font-size="14" font-weight="bold" lengthAdjust="spacing" textLength="98" x="15" y="232.2295">address bus</text><line style="stroke:#333333;stroke-width:0.5;" x1="10" x2="114" y1="236.5313" y2="236.5313"/><line style="stroke:#333333;stroke-width:0.5;" x1="114" x2="124" y1="236.5313" y2="219.2344"/><polygon fill="#E2E2F0" points="109,241.5313,415,241.5313,427,253.5313,415,265.5313,109,265.5313,97,253.5313" style="stroke:#006400;stroke-width:1.5;"/><polygon fill="#E2E2F0" points="439,241.5313,877,241.5313,877,265.5313,439,265.5313,427,253.5313" style="stroke:#E2E2F0;stroke-width:1.5;"/><path d="M877,241.5313 L439,241.5313 L427,253.5313 L439,265.5313 L877,265.5313 " fill="#E2E2F0" style="stroke:#006400;stroke-width:1.5;"/><text fill="#333333" font-family="sans-serif" font-size="12" font-weight="bold" lengthAdjust="spacing" textLength="36" x="244" y="257.6855">0x03f</text><text fill="#333333" font-family="sans-serif" font-size="12" font-weight="bold" lengthAdjust="spacing" textLength="31" x="439" y="257.6855">0x23</text><line style="stroke:#333333;stroke-width:2.0;" x1="97" x2="97" y1="275.5313" y2="280.5313"/><line style="stroke:#333333;stroke-width:2.0;" x1="247" x2="247" y1="275.5313" y2="280.5313"/><line style="stroke:#333333;stroke-width:2.0;" x1="397" x2="397" y1="275.5313" y2="280.5313"/><line style="stroke:#333333;stroke-width:2.0;" x1="547" x2="547" y1="275.5313" y2="280.5313"/><line style="stroke:#333333;stroke-width:2.0;" x1="697" x2="697" y1="275.5313" y2="280.5313"/><line style="stroke:#333333;stroke-width:2.0;" x1="847" x2="847" y1="275.5313" y2="280.5313"/><line style="stroke:#333333;stroke-width:2.0;" x1="97" x2="847" y1="275.5313" y2="275.5313"/><text fill="#333333" font-family="sans-serif" font-size="11" lengthAdjust="spacing" textLength="7" x="93.5" y="291.7417">0</text><text fill="#333333" font-family="sans-serif" font-size="11" lengthAdjust="spacing" textLength="7" x="243.5" y="291.7417">5</text><text fill="#333333" font-family="sans-serif" font-size="11" lengthAdjust="spacing" textLength="14" x="390" y="291.7417">10</text><text fill="#333333" font-family="sans-serif" font-size="11" lengthAdjust="spacing" textLength="14" x="540" y="291.7417">15</text><text fill="#333333" font-family="sans-serif" font-size="11" lengthAdjust="spacing" textLength="14" x="690" y="291.7417">20</text><text fill="#333333" font-family="sans-serif" font-size="11" lengthAdjust="spacing" textLength="14" x="840" y="291.7417">25</text><line style="stroke:#00008B;stroke-width:1.5;" x1="247" x2="427" y1="209.2344" y2="253.5313"/><polygon fill="#00008B" points="419.0464,254.3917,420.3541,249.0779,427,253.5313" style="stroke:#00008B;stroke-width:1.5;"/><text fill="#00008B" font-family="Serif" font-size="14" lengthAdjust="spacing" textLength="30" x="419.7003" y="248.4331">hold</text><line style="stroke:#333333;stroke-width:2.0;stroke-dasharray:4.0,4.0;" x1="277" x2="277" y1="10" y2="275.5313"/><line style="stroke:#333333;stroke-width:2.0;stroke-dasharray:4.0,4.0;" x1="397" x2="397" y1="10" y2="275.5313"/><text fill="#000000" font-family="sans-serif" font-size="12" lengthAdjust="spacing" textLength="32" x="280" y="23.1387">Write</text><line style="stroke:#333333;stroke-width:2.0;stroke-dasharray:4.0,4.0;" x1="547" x2="547" y1="10" y2="275.5313"/><line style="stroke:#333333;stroke-width:2.0;stroke-dasharray:4.0,4.0;" x1="667" x2="667" y1="10" y2="275.5313"/><text fill="#000000" font-family="sans-serif" font-size="12" lengthAdjust="spacing" textLength="32" x="550" y="23.1387">Read</text><!--SRC=[RL7BRi8m4BpxArRcMA76YQZKgAee0dhdK8wL4s-9XPiWsn3wzxLDm4vBf4ZhcTdPbwcvGfW1Dy1c6Hpa6PKXf5PTlOTQxQ6Nje43Qja9OAIIBTS_GB7bbKBgqx2zePl7RO1qVuC4jnm-k98YCE94wgwjfS4BjJYQ2rv5d0kXqHYe1iw_2Pa_-RZijRJuMU6Ep5cM8DWAfs5Xa58Z5uFcEG91GkOPmHQa0TNrH5G-ejaveyINkRwABqfqVrETV9Ivt5X-MWmsZTmr8oAFhilLstAnMgtfIC06GvQYGxdW5Wlvbl_suQE4Vs2fuluyUK7zSlB1uT8oAw9yxJuloKVBYULoDh8cta6vtoO70Tibnu39UwT4kVNlL7uzJL1VpmAJm2xK4SkDmuYhDjeOl4nV8HaQIZ1eZmUmyXl_YPtM3pzQaijeN4E_]--></g></svg>