<?xml version="1.0" encoding="UTF-8" standalone="no"?><svg xmlns="http://www.w3.org/2000/svg" xmlns:xlink="http://www.w3.org/1999/xlink" contentStyleType="text/css" height="184px" preserveAspectRatio="none" style="width:389px;height:184px;background:#003153;" version="1.1" viewBox="0 0 389 184" width="389px" zoomAndPan="magnify"><defs/><g><rect fill="#003153" height="184" style="stroke:none;stroke-width:1.0;" width="389" x="0" y="0"/><!--class Car--><g id="elem_Car"><rect codeLine="2" fill="#003153" height="44" id="Car" rx="2.5" ry="2.5" style="stroke:#D9D3D0;stroke-width:1.0;" width="51" x="167.5" y="12"/><ellipse cx="180.5" cy="26" fill="#003153" rx="9" ry="9" style="stroke:#D9D3D0;stroke-width:1.0;"/><path d="M183.4688,31.6406 Q182.8906,31.9375 182.25,32.0781 Q181.6094,32.2344 180.9063,32.2344 Q178.4063,32.2344 177.0781,30.5938 Q175.7656,28.9375 175.7656,25.8125 Q175.7656,22.6875 177.0781,21.0313 Q178.4063,19.375 180.9063,19.375 Q181.6094,19.375 182.25,19.5313 Q182.9063,19.6875 183.4688,19.9844 L183.4688,22.7031 Q182.8438,22.125 182.25,21.8594 Q181.6563,21.5781 181.0313,21.5781 Q179.6875,21.5781 179,22.6563 Q178.3125,23.7188 178.3125,25.8125 Q178.3125,27.9063 179,28.9844 Q179.6875,30.0469 181.0313,30.0469 Q181.6563,30.0469 182.25,29.7813 Q182.8438,29.5 183.4688,28.9219 L183.4688,31.6406 Z " fill="#D9D3D0"/><text fill="#D9D3D0" font-family="Verdana" font-size="14" lengthAdjust="spacing" textLength="23" x="192.5" y="30.8467">Car</text><line style="stroke:#D9D3D0;stroke-width:1.0;" x1="168.5" x2="217.5" y1="40" y2="40"/><line style="stroke:#D9D3D0;stroke-width:1.0;" x1="168.5" x2="217.5" y1="48" y2="48"/></g><!--class Driver--><g id="elem_Driver"><rect fill="#003153" height="44" id="Driver" rx="2.5" ry="2.5" style="stroke:#D9D3D0;stroke-width:1.0;" width="68" x="12" y="12"/><ellipse cx="25" cy="26" fill="#003153" rx="9" ry="9" style="stroke:#D9D3D0;stroke-width:1.0;"/><path d="M27.9688,31.6406 Q27.3906,31.9375 26.75,32.0781 Q26.1094,32.2344 25.4063,32.2344 Q22.9063,32.2344 21.5781,30.5938 Q20.2656,28.9375 20.2656,25.8125 Q20.2656,22.6875 21.5781,21.0313 Q22.9063,19.375 25.4063,19.375 Q26.1094,19.375 26.75,19.5313 Q27.4063,19.6875 27.9688,19.9844 L27.9688,22.7031 Q27.3438,22.125 26.75,21.8594 Q26.1563,21.5781 25.5313,21.5781 Q24.1875,21.5781 23.5,22.6563 Q22.8125,23.7188 22.8125,25.8125 Q22.8125,27.9063 23.5,28.9844 Q24.1875,30.0469 25.5313,30.0469 Q26.1563,30.0469 26.75,29.7813 Q27.3438,29.5 27.9688,28.9219 L27.9688,31.6406 Z " fill="#D9D3D0"/><text fill="#D9D3D0" font-family="Verdana" font-size="14" lengthAdjust="spacing" textLength="40" x="37" y="30.8467">Driver</text><line style="stroke:#D9D3D0;stroke-width:1.0;" x1="13" x2="79" y1="40" y2="40"/><line style="stroke:#D9D3D0;stroke-width:1.0;" x1="13" x2="79" y1="48" y2="48"/></g><!--class Wheel--><g id="elem_Wheel"><rect fill="#003153" height="44" id="Wheel" rx="2.5" ry="2.5" style="stroke:#D9D3D0;stroke-width:1.0;" width="71" x="311.5" y="12"/><ellipse cx="324.5" cy="26" fill="#003153" rx="9" ry="9" style="stroke:#D9D3D0;stroke-width:1.0;"/><path d="M327.4688,31.6406 Q326.8906,31.9375 326.25,32.0781 Q325.6094,32.2344 324.9063,32.2344 Q322.4063,32.2344 321.0781,30.5938 Q319.7656,28.9375 319.7656,25.8125 Q319.7656,22.6875 321.0781,21.0313 Q322.4063,19.375 324.9063,19.375 Q325.6094,19.375 326.25,19.5313 Q326.9063,19.6875 327.4688,19.9844 L327.4688,22.7031 Q326.8438,22.125 326.25,21.8594 Q325.6563,21.5781 325.0313,21.5781 Q323.6875,21.5781 323,22.6563 Q322.3125,23.7188 322.3125,25.8125 Q322.3125,27.9063 323,28.9844 Q323.6875,30.0469 325.0313,30.0469 Q325.6563,30.0469 326.25,29.7813 Q326.8438,29.5 327.4688,28.9219 L327.4688,31.6406 Z " fill="#D9D3D0"/><text fill="#D9D3D0" font-family="Verdana" font-size="14" lengthAdjust="spacing" textLength="43" x="336.5" y="30.8467">Wheel</text><line style="stroke:#D9D3D0;stroke-width:1.0;" x1="312.5" x2="381.5" y1="40" y2="40"/><line style="stroke:#D9D3D0;stroke-width:1.0;" x1="312.5" x2="381.5" y1="48" y2="48"/></g><!--class Person--><g id="elem_Person"><rect fill="#003153" height="44" id="Person" rx="2.5" ry="2.5" style="stroke:#D9D3D0;stroke-width:1.0;" width="77" x="154.5" y="133"/><ellipse cx="167.5" cy="147" fill="#003153" rx="9" ry="9" style="stroke:#D9D3D0;stroke-width:1.0;"/><path d="M170.4688,152.6406 Q169.8906,152.9375 169.25,153.0781 Q168.6094,153.2344 167.9063,153.2344 Q165.4063,153.2344 164.0781,151.5938 Q162.7656,149.9375 162.7656,146.8125 Q162.7656,143.6875 164.0781,142.0313 Q165.4063,140.375 167.9063,140.375 Q168.6094,140.375 169.25,140.5313 Q169.9063,140.6875 170.4688,140.9844 L170.4688,143.7031 Q169.8438,143.125 169.25,142.8594 Q168.6563,142.5781 168.0313,142.5781 Q166.6875,142.5781 166,143.6563 Q165.3125,144.7188 165.3125,146.8125 Q165.3125,148.9063 166,149.9844 Q166.6875,151.0469 168.0313,151.0469 Q168.6563,151.0469 169.25,150.7813 Q169.8438,150.5 170.4688,149.9219 L170.4688,152.6406 Z " fill="#D9D3D0"/><text fill="#D9D3D0" font-family="Verdana" font-size="14" lengthAdjust="spacing" textLength="49" x="179.5" y="151.8467">Person</text><line style="stroke:#D9D3D0;stroke-width:1.0;" x1="155.5" x2="230.5" y1="161" y2="161"/><line style="stroke:#D9D3D0;stroke-width:1.0;" x1="155.5" x2="230.5" y1="169" y2="169"/></g><!--link Driver to Car--><g id="link_Driver_Car"><path codeLine="4" d="M80.46,34 C106.94,34 142.94,34 167.02,34 " fill="none" id="Driver-Car" style="stroke:#D9D3D0;stroke-width:1.0;"/><polygon fill="#D9D3D0" points="107.25,22.5664,98.2049,19.6275,98.2049,25.5053,107.25,22.5664" style="stroke:#D9D3D0;stroke-width:1.0;"/><text fill="#D9D3D0" font-family="Verdana" font-size="13" lengthAdjust="spacing" textLength="38" x="111.25" y="27.0669">drives</text></g><!--reverse link Car to Wheel--><g id="link_Car_Wheel"><path codeLine="5" d="M233.21,34 C257.33,34 287.73,34 311.04,34 " fill="none" id="Car-backto-Wheel" style="stroke:#D9D3D0;stroke-width:1.0;"/><polygon fill="#D9D3D0" points="220.29,34,226.29,38,232.29,34,226.29,30,220.29,34" style="stroke:#D9D3D0;stroke-width:1.0;"/><polygon fill="#D9D3D0" points="246,22.5664,236.9549,19.6275,236.9549,25.5053,246,22.5664" style="stroke:#D9D3D0;stroke-width:1.0;"/><text fill="#D9D3D0" font-family="Verdana" font-size="13" lengthAdjust="spacing" textLength="43" x="250" y="27.0669">have 4</text></g><!--link Car to Person--><g id="link_Car_Person"><path codeLine="6" d="M193,56.27 C193,77.8 193,110.9 193,132.51 " fill="none" id="Car-Person" style="stroke:#D9D3D0;stroke-width:1.0;"/><polygon fill="#D9D3D0" points="198,89.5664,195.0611,98.6115,200.9389,98.6115,198,89.5664" style="stroke:#D9D3D0;stroke-width:1.0;"/><text fill="#D9D3D0" font-family="Verdana" font-size="13" lengthAdjust="spacing" textLength="32" x="207" y="99.0669">owns</text></g><!--SRC=[Kop9ICrDLKZAAKqjAChCA-5ApaaiBbPmJYpYud8foYnBBLBG1V4Kh1HIGDnY1Jik45TBLo4y8pKr1oYUaLYMgc025TVLLGX8BIhEpmDAs2Zab-SL0m00]--></g></svg>