<?xml version="1.0" encoding="UTF-8" standalone="no"?><svg xmlns="http://www.w3.org/2000/svg" xmlns:xlink="http://www.w3.org/1999/xlink" contentStyleType="text/css" height="460px" preserveAspectRatio="none" style="width:606px;height:460px;background:#F9F9F9;" version="1.1" viewBox="0 0 606 460" width="606px" zoomAndPan="magnify"><defs/><g><rect fill="#F9F9F9" height="460" style="stroke:none;stroke-width:1.0;" width="606" x="0" y="0"/><rect fill="none" height="20.9531" style="stroke:none;stroke-width:1.0;" width="573" x="15" y="12.7451"/><rect fill="#FFC0CB" height="435.7969" style="stroke:#FFC0CB;stroke-width:1.0;" width="190" x="15" y="12.7451"/><ellipse cx="130" cy="48.6982" fill="#222222" rx="10" ry="10" style="stroke:#222222;stroke-width:1.0;"/><polygon fill="#F1F1F1" points="113,78.6982,147,78.6982,159,90.6982,147,102.6982,113,102.6982,101,90.6982,113,78.6982" style="stroke:#181818;stroke-width:0.5;"/><text fill="#000000" font-family="sans-serif" font-size="11" lengthAdjust="spacing" textLength="34" x="113" y="94.5063">color?</text><text fill="#000000" font-family="sans-serif" font-size="11" lengthAdjust="spacing" textLength="19" x="82" y="88.104">red</text><text fill="#000000" font-family="sans-serif" font-size="11" lengthAdjust="spacing" textLength="41" x="159" y="88.104">not red</text><rect fill="#FFC0CB" height="33.9688" rx="3.5" ry="3.5" style="stroke:#181818;stroke-width:0.5;" width="92" x="21" y="122.6982"/><text fill="#000000" font-family="sans-serif" font-size="12" font-weight="bold" lengthAdjust="spacing" textLength="72" x="31" y="143.8369">action red</text><rect fill="#F1F1F1" height="33.9688" rx="3.5" ry="3.5" style="stroke:#181818;stroke-width:0.5;" width="48" x="43" y="176.667"/><text fill="#000000" font-family="sans-serif" font-size="12" lengthAdjust="spacing" textLength="28" x="53" y="197.8057">foo1</text><polygon fill="#F1F1F1" points="130,220.6357,142,232.6357,130,244.6357,118,232.6357,130,220.6357" style="stroke:#181818;stroke-width:0.5;"/><line style="stroke:#000000;stroke-width:1.5;" x1="15" x2="15" y1="12.7451" y2="448.542"/><rect fill="#D3D3D3" height="435.7969" style="stroke:#D3D3D3;stroke-width:1.0;" width="165" x="205" y="12.7451"/><rect fill="#D3D3D3" height="33.9688" rx="3.5" ry="3.5" style="stroke:#181818;stroke-width:0.5;" width="120" x="228.5" y="122.6982"/><text fill="#000000" font-family="sans-serif" font-size="12" font-weight="bold" lengthAdjust="spacing" textLength="100" x="238.5" y="143.8369">action not red</text><rect fill="#F1F1F1" height="33.9688" rx="3.5" ry="3.5" style="stroke:#181818;stroke-width:0.5;" width="48" x="264.5" y="176.667"/><text fill="#000000" font-family="sans-serif" font-size="12" lengthAdjust="spacing" textLength="28" x="274.5" y="197.8057">foo2</text><line style="stroke:#000000;stroke-width:1.5;" x1="205" x2="205" y1="12.7451" y2="448.542"/><rect fill="#ADD8E6" height="33.9688" rx="3.5" ry="3.5" style="stroke:#181818;stroke-width:0.5;" width="48" x="401.5" y="264.6357"/><text fill="#000000" font-family="sans-serif" font-size="12" lengthAdjust="spacing" textLength="28" x="411.5" y="285.7744">foo3</text><rect fill="#F1F1F1" height="33.9688" rx="3.5" ry="3.5" style="stroke:#181818;stroke-width:0.5;" width="48" x="401.5" y="318.6045"/><text fill="#000000" font-family="sans-serif" font-size="12" lengthAdjust="spacing" textLength="28" x="411.5" y="339.7432">foo4</text><line style="stroke:#000000;stroke-width:1.5;" x1="370" x2="370" y1="12.7451" y2="448.542"/><rect fill="#98FB98" height="33.9688" rx="3.5" ry="3.5" style="stroke:#181818;stroke-width:0.5;" width="48" x="509.5" y="372.5732"/><text fill="#000000" font-family="sans-serif" font-size="12" lengthAdjust="spacing" textLength="28" x="519.5" y="393.7119">foo5</text><ellipse cx="533.5" cy="437.542" fill="none" rx="11" ry="11" style="stroke:#222222;stroke-width:1.0;"/><ellipse cx="533.5" cy="437.542" fill="#222222" rx="6" ry="6" style="stroke:#111111;stroke-width:1.0;"/><line style="stroke:#000000;stroke-width:1.5;" x1="479" x2="479" y1="12.7451" y2="448.542"/><line style="stroke:#000000;stroke-width:1.5;" x1="586" x2="586" y1="12.7451" y2="448.542"/><line style="stroke:#191919;stroke-width:1.0;" x1="67" x2="67" y1="156.667" y2="176.667"/><polygon fill="#191919" points="63,166.667,67,176.667,71,166.667,67,170.667" style="stroke:#191919;stroke-width:1.0;"/><line style="stroke:#191919;stroke-width:1.0;" x1="101" x2="67" y1="90.6982" y2="90.6982"/><line style="stroke:#191919;stroke-width:1.0;" x1="67" x2="67" y1="90.6982" y2="122.6982"/><polygon fill="#191919" points="63,112.6982,67,122.6982,71,112.6982,67,116.6982" style="stroke:#191919;stroke-width:1.0;"/><line style="stroke:#191919;stroke-width:1.0;" x1="67" x2="67" y1="210.6357" y2="232.6357"/><line style="stroke:#191919;stroke-width:1.0;" x1="67" x2="118" y1="232.6357" y2="232.6357"/><polygon fill="#191919" points="108,228.6357,118,232.6357,108,236.6357,112,232.6357" style="stroke:#191919;stroke-width:1.0;"/><line style="stroke:#191919;stroke-width:1.0;" x1="130" x2="130" y1="58.6982" y2="78.6982"/><polygon fill="#191919" points="126,68.6982,130,78.6982,134,68.6982,130,72.6982" style="stroke:#191919;stroke-width:1.0;"/><line style="stroke:#191919;stroke-width:1.0;" x1="288.5" x2="288.5" y1="156.667" y2="176.667"/><polygon fill="#191919" points="284.5,166.667,288.5,176.667,292.5,166.667,288.5,170.667" style="stroke:#191919;stroke-width:1.0;"/><line style="stroke:#191919;stroke-width:1.0;" x1="425.5" x2="425.5" y1="298.6045" y2="318.6045"/><polygon fill="#191919" points="421.5,308.6045,425.5,318.6045,429.5,308.6045,425.5,312.6045" style="stroke:#191919;stroke-width:1.0;"/><line style="stroke:#191919;stroke-width:1.0;" x1="533.5" x2="533.5" y1="406.542" y2="426.542"/><polygon fill="#191919" points="529.5,416.542,533.5,426.542,537.5,416.542,533.5,420.542" style="stroke:#191919;stroke-width:1.0;"/><line style="stroke:#191919;stroke-width:1.0;" x1="159" x2="288.5" y1="90.6982" y2="90.6982"/><line style="stroke:#191919;stroke-width:1.0;" x1="288.5" x2="288.5" y1="90.6982" y2="122.6982"/><polygon fill="#191919" points="284.5,112.6982,288.5,122.6982,292.5,112.6982,288.5,116.6982" style="stroke:#191919;stroke-width:1.0;"/><line style="stroke:#191919;stroke-width:1.0;" x1="288.5" x2="288.5" y1="210.6357" y2="232.6357"/><line style="stroke:#191919;stroke-width:1.0;" x1="288.5" x2="142" y1="232.6357" y2="232.6357"/><polygon fill="#191919" points="152,228.6357,142,232.6357,152,236.6357,148,232.6357" style="stroke:#191919;stroke-width:1.0;"/><line style="stroke:#191919;stroke-width:1.0;" x1="130" x2="130" y1="244.6357" y2="249.6357"/><line style="stroke:#191919;stroke-width:1.0;" x1="130" x2="425.5" y1="249.6357" y2="249.6357"/><line style="stroke:#191919;stroke-width:1.0;" x1="425.5" x2="425.5" y1="249.6357" y2="264.6357"/><polygon fill="#191919" points="421.5,254.6357,425.5,264.6357,429.5,254.6357,425.5,258.6357" style="stroke:#191919;stroke-width:1.0;"/><line style="stroke:#191919;stroke-width:1.0;" x1="425.5" x2="425.5" y1="352.5732" y2="357.5732"/><line style="stroke:#191919;stroke-width:1.0;" x1="425.5" x2="533.5" y1="357.5732" y2="357.5732"/><line style="stroke:#191919;stroke-width:1.0;" x1="533.5" x2="533.5" y1="357.5732" y2="372.5732"/><polygon fill="#191919" points="529.5,362.5732,533.5,372.5732,537.5,362.5732,533.5,366.5732" style="stroke:#191919;stroke-width:1.0;"/><text fill="#000000" font-family="sans-serif" font-size="18" lengthAdjust="spacing" textLength="124" x="48" y="29.4531">Actor_For_red</text><text fill="#000000" font-family="sans-serif" font-size="18" lengthAdjust="spacing" textLength="155" x="210" y="29.4531">Actor_For_no_red</text><text fill="#000000" font-family="sans-serif" font-size="18" lengthAdjust="spacing" textLength="99" x="375" y="29.4531">Next_Actor</text><text fill="#000000" font-family="sans-serif" font-size="18" lengthAdjust="spacing" textLength="97" x="484" y="29.4531">Final_Actor</text><!--SRC=[JO-z3e8m58NtFaMD2tJpRw63SM7q5KY52pJMUqbxJJJfmrj0nA5BltE-axlX7XuW7yO74RU3nNkyr4o-AjFpq4GHs7WMjfLPJOxyEPSso2oXNAOkYgbKA6LgjeGo0QMqA5gYdHRW0iWCYSV_F2qus_NSUVF-cq6QbrQuwhxLHRbFIcniA-8LNbnDZgLuSqyOCuSvUjGYbXQD-wK6uw3p03ZYaqwNqV01]--></g></svg>