<?xml version="1.0" encoding="UTF-8" standalone="no"?><svg xmlns="http://www.w3.org/2000/svg" xmlns:xlink="http://www.w3.org/1999/xlink" contentStyleType="text/css" height="236px" preserveAspectRatio="none" style="width:265px;height:236px;background:#FFFFFF;" version="1.1" viewBox="0 0 265 236" width="265px" zoomAndPan="magnify"><defs/><g><ellipse cx="82.5" cy="16" fill="#222222" rx="10" ry="10" style="stroke:none;stroke-width:1.0;"/><g id="State1"><rect fill="#F1F1F1" height="64.2344" rx="12.5" ry="12.5" style="stroke:#181818;stroke-width:0.5;" width="151" x="7" y="86"/><line style="stroke:#181818;stroke-width:0.5;" x1="7" x2="158" y1="112.2969" y2="112.2969"/><text fill="#000000" font-family="sans-serif" font-size="14" lengthAdjust="spacing" textLength="45" x="60" y="103.9951">State1</text><text fill="#000000" font-family="sans-serif" font-size="12" lengthAdjust="spacing" textLength="89" x="12" y="128.4355">this is a string</text><text fill="#000000" font-family="sans-serif" font-size="12" lengthAdjust="spacing" textLength="131" x="12" y="142.4043">this is another string</text></g><ellipse cx="153.5" cy="220" fill="none" rx="10" ry="10" style="stroke:#222222;stroke-width:1.0;"/><ellipse cx="154" cy="220.5" fill="#222222" rx="6" ry="6" style="stroke:none;stroke-width:1.0;"/><g id="State2"><rect fill="#F1F1F1" height="50" rx="12.5" ry="12.5" style="stroke:#181818;stroke-width:0.5;" width="65" x="193" y="93"/><line style="stroke:#181818;stroke-width:0.5;" x1="193" x2="258" y1="119.2969" y2="119.2969"/><text fill="#000000" font-family="sans-serif" font-size="14" lengthAdjust="spacing" textLength="45" x="203" y="110.9951">State2</text></g><!--link *start to State1--><g id="link_*start_State1"><path d="M82.5,26.23 C82.5,38.31 82.5,60.2 82.5,79.46 " fill="none" id="*start-to-State1" style="stroke:#181818;stroke-width:1.0;"/><polygon fill="#181818" points="82.5,84.36,86.5,75.36,82.5,79.36,78.5,75.36,82.5,84.36" style="stroke:#181818;stroke-width:1.0;"/></g><!--link State1 to *end--><g id="link_State1_*end"><path d="M104.77,150.37 C118.13,169.18 134.4,192.09 144.35,206.11 " fill="none" id="State1-to-*end" style="stroke:#181818;stroke-width:1.0;"/><polygon fill="#181818" points="147.08,209.96,145.1391,200.3043,144.1887,205.8807,138.6123,204.9303,147.08,209.96" style="stroke:#181818;stroke-width:1.0;"/></g><!--link State1 to State2--><g id="link_State1_State2"><path d="M158.47,118 C167.69,118 176.91,118 186.13,118 " fill="none" id="State1-to-State2" style="stroke:#181818;stroke-width:1.0;"/><polygon fill="#181818" points="190.99,118,181.99,114,185.99,118,181.99,122,190.99,118" style="stroke:#181818;stroke-width:1.0;"/></g><!--link State2 to *end--><g id="link_State2_*end"><path d="M207.89,143.46 C193.65,163.24 174.17,190.3 162.8,206.09 " fill="none" id="State2-to-*end" style="stroke:#181818;stroke-width:1.0;"/><polygon fill="#181818" points="159.88,210.13,168.3909,205.1737,162.8064,206.0759,161.9042,200.4914,159.88,210.13" style="stroke:#181818;stroke-width:1.0;"/></g><!--SRC=[YzQALT3LjLC8BaaiIJNaWb1WaMYjM1ZNIg4a8xDO0OWI5OfBYZBpqh78vEMNPAGMeSd3J3Q221Z1J0O0]--></g></svg>