<svg version="1.1" xmlns="http://www.w3.org/2000/svg" viewBox="0 0 371.3002860271414 325.1240959837712" width="371.3002860271414" height="325.1240959837712">
  <!-- svg-source:excalidraw -->
  
  <defs>
    <style class="style-fonts">
      @font-face {
        font-family: "Virgil";
        src: url("https://unpkg.com/@excalidraw/excalidraw@0.14.2/dist/excalidraw-assets/Virgil.woff2");
      }
      @font-face {
        font-family: "Cascadia";
        src: url("https://unpkg.com/@excalidraw/excalidraw@0.14.2/dist/excalidraw-assets/Cascadia.woff2");
      }
    </style>
  </defs>
  <rect x="0" y="0" width="371.3002860271414" height="325.1240959837712" fill="#ffffff"></rect><g stroke-linecap="round"><g transform="translate(188.08850757893742 87.52618931741586) rotate(269.97732772573056 0 74.61890463147324)"><path d="M1.68 0.68 C16.22 9.16, 33.28 20.55, 63.19 36.9 M0.69 0.49 C24.98 15.17, 48.31 29.57, 65.2 37.32 M65.39 36.4 C62.99 57.71, 62.69 76.22, 64.32 112.14 M64.57 37.32 C64.32 59.15, 64.31 79.34, 64.58 112.84 M65.27 112.94 C44.44 122.67, 27.36 133.52, 1.39 149.25 M64.82 112.76 C48.73 120.92, 33.16 130.65, 0.58 148.49 M-1.71 150.45 C-12.67 142.57, -27.83 132.09, -63.1 110.12 M-0.99 148.81 C-24.48 135.83, -50.55 121.22, -64.91 111.44 M-64.06 112.05 C-64.41 93.22, -63.37 76.99, -63.8 38.98 M-65.13 111.65 C-64.58 95.53, -65.08 80.67, -64.44 36.89 M-64.91 36.73 C-48.93 29.36, -34.98 20.75, 0.33 -1.32 M-65.5 36.74 C-42 23.85, -20.79 11.01, 0.19 -0.59" stroke="#000000" stroke-width="1" fill="none"></path></g></g><mask></mask><g transform="translate(168.45512517919462 144.10116929984747) rotate(0 21.277337131333525 18.483343366612985)"><text x="21.277337131333535" y="12.516656633387026" font-family="Virgil, Segoe UI Emoji" font-size="14.414072702613986px" fill="#000000" text-anchor="middle" style="white-space: pre;" direction="ltr">Use</text><text x="21.277337131333535" y="30.999999999999993" font-family="Virgil, Segoe UI Emoji" font-size="14.414072702613986px" fill="#000000" text-anchor="middle" style="white-space: pre;" direction="ltr">Cases</text></g><g stroke-linecap="round" transform="translate(187.06983888245975 96.91675219682452) rotate(0 0.306264701133216 0.3062647011331592)"><path d="M0.61 0.31 C0.61 0.32, 0.61 0.34, 0.61 0.36 C0.6 0.38, 0.6 0.39, 0.59 0.41 C0.59 0.43, 0.58 0.44, 0.57 0.46 C0.56 0.47, 0.55 0.49, 0.54 0.5 C0.53 0.52, 0.52 0.53, 0.5 0.54 C0.49 0.55, 0.47 0.56, 0.46 0.57 C0.44 0.58, 0.43 0.59, 0.41 0.59 C0.39 0.6, 0.38 0.6, 0.36 0.61 C0.34 0.61, 0.32 0.61, 0.31 0.61 C0.29 0.61, 0.27 0.61, 0.25 0.61 C0.24 0.6, 0.22 0.6, 0.2 0.59 C0.18 0.59, 0.17 0.58, 0.15 0.57 C0.14 0.56, 0.12 0.55, 0.11 0.54 C0.1 0.53, 0.08 0.52, 0.07 0.5 C0.06 0.49, 0.05 0.47, 0.04 0.46 C0.03 0.44, 0.02 0.43, 0.02 0.41 C0.01 0.39, 0.01 0.38, 0 0.36 C0 0.34, 0 0.32, 0 0.31 C0 0.29, 0 0.27, 0 0.25 C0.01 0.24, 0.01 0.22, 0.02 0.2 C0.02 0.18, 0.03 0.17, 0.04 0.15 C0.05 0.14, 0.06 0.12, 0.07 0.11 C0.08 0.1, 0.1 0.08, 0.11 0.07 C0.12 0.06, 0.14 0.05, 0.15 0.04 C0.17 0.03, 0.18 0.02, 0.2 0.02 C0.22 0.01, 0.24 0.01, 0.25 0 C0.27 0, 0.29 0, 0.31 0 C0.32 0, 0.34 0, 0.36 0 C0.38 0.01, 0.39 0.01, 0.41 0.02 C0.43 0.02, 0.44 0.03, 0.46 0.04 C0.47 0.05, 0.49 0.06, 0.5 0.07 C0.52 0.08, 0.53 0.1, 0.54 0.11 C0.55 0.12, 0.56 0.14, 0.57 0.15 C0.58 0.17, 0.59 0.18, 0.59 0.2 C0.6 0.22, 0.6 0.24, 0.61 0.25 C0.61 0.27, 0.61 0.3, 0.61 0.31 C0.61 0.32, 0.61 0.3, 0.61 0.31" stroke="none" stroke-width="0" fill="#000"></path><path d="M0.61 0.31 C0.61 0.32, 0.61 0.34, 0.61 0.36 C0.6 0.38, 0.6 0.39, 0.59 0.41 C0.59 0.43, 0.58 0.44, 0.57 0.46 C0.56 0.47, 0.55 0.49, 0.54 0.5 C0.53 0.52, 0.52 0.53, 0.5 0.54 C0.49 0.55, 0.47 0.56, 0.46 0.57 C0.44 0.58, 0.43 0.59, 0.41 0.59 C0.39 0.6, 0.38 0.6, 0.36 0.61 C0.34 0.61, 0.32 0.61, 0.31 0.61 C0.29 0.61, 0.27 0.61, 0.25 0.61 C0.24 0.6, 0.22 0.6, 0.2 0.59 C0.18 0.59, 0.17 0.58, 0.15 0.57 C0.14 0.56, 0.12 0.55, 0.11 0.54 C0.1 0.53, 0.08 0.52, 0.07 0.5 C0.06 0.49, 0.05 0.47, 0.04 0.46 C0.03 0.44, 0.02 0.43, 0.02 0.41 C0.01 0.39, 0.01 0.38, 0 0.36 C0 0.34, 0 0.32, 0 0.31 C0 0.29, 0 0.27, 0 0.25 C0.01 0.24, 0.01 0.22, 0.02 0.2 C0.02 0.18, 0.03 0.17, 0.04 0.15 C0.05 0.14, 0.06 0.12, 0.07 0.11 C0.08 0.1, 0.1 0.08, 0.11 0.07 C0.12 0.06, 0.14 0.05, 0.15 0.04 C0.17 0.03, 0.18 0.02, 0.2 0.02 C0.22 0.01, 0.24 0.01, 0.25 0 C0.27 0, 0.29 0, 0.31 0 C0.32 0, 0.34 0, 0.36 0 C0.38 0.01, 0.39 0.01, 0.41 0.02 C0.43 0.02, 0.44 0.03, 0.46 0.04 C0.47 0.05, 0.49 0.06, 0.5 0.07 C0.52 0.08, 0.53 0.1, 0.54 0.11 C0.55 0.12, 0.56 0.14, 0.57 0.15 C0.58 0.17, 0.59 0.18, 0.59 0.2 C0.6 0.22, 0.6 0.24, 0.61 0.25 C0.61 0.27, 0.61 0.3, 0.61 0.31 C0.61 0.32, 0.61 0.3, 0.61 0.31" stroke="#000" stroke-width="1.5" fill="none" stroke-dasharray="8 9"></path></g><g stroke-linecap="round" transform="translate(186.80413215533179 226.25475671896174) rotate(0 0.5719714282618042 0.5719714282618042)"><path d="M1.14 0.57 C1.14 0.61, 1.14 0.64, 1.14 0.67 C1.13 0.7, 1.12 0.74, 1.11 0.77 C1.1 0.8, 1.08 0.83, 1.07 0.86 C1.05 0.89, 1.03 0.91, 1.01 0.94 C0.99 0.96, 0.96 0.99, 0.94 1.01 C0.91 1.03, 0.89 1.05, 0.86 1.07 C0.83 1.08, 0.8 1.1, 0.77 1.11 C0.74 1.12, 0.7 1.13, 0.67 1.14 C0.64 1.14, 0.61 1.14, 0.57 1.14 C0.54 1.14, 0.51 1.14, 0.47 1.14 C0.44 1.13, 0.41 1.12, 0.38 1.11 C0.35 1.1, 0.31 1.08, 0.29 1.07 C0.26 1.05, 0.23 1.03, 0.2 1.01 C0.18 0.99, 0.16 0.96, 0.13 0.94 C0.11 0.91, 0.09 0.89, 0.08 0.86 C0.06 0.83, 0.05 0.8, 0.03 0.77 C0.02 0.74, 0.01 0.7, 0.01 0.67 C0 0.64, 0 0.61, 0 0.57 C0 0.54, 0 0.51, 0.01 0.47 C0.01 0.44, 0.02 0.41, 0.03 0.38 C0.05 0.35, 0.06 0.31, 0.08 0.29 C0.09 0.26, 0.11 0.23, 0.13 0.2 C0.16 0.18, 0.18 0.16, 0.2 0.13 C0.23 0.11, 0.26 0.09, 0.29 0.08 C0.31 0.06, 0.35 0.05, 0.38 0.03 C0.41 0.02, 0.44 0.01, 0.47 0.01 C0.51 0, 0.54 0, 0.57 0 C0.61 0, 0.64 0, 0.67 0.01 C0.7 0.01, 0.74 0.02, 0.77 0.03 C0.8 0.05, 0.83 0.06, 0.86 0.08 C0.89 0.09, 0.91 0.11, 0.94 0.13 C0.96 0.16, 0.99 0.18, 1.01 0.2 C1.03 0.23, 1.05 0.26, 1.07 0.29 C1.08 0.31, 1.1 0.35, 1.11 0.38 C1.12 0.41, 1.13 0.44, 1.14 0.47 C1.14 0.51, 1.14 0.56, 1.14 0.57 C1.15 0.59, 1.15 0.56, 1.14 0.57" stroke="none" stroke-width="0" fill="#000"></path><path d="M1.14 0.57 C1.14 0.61, 1.14 0.64, 1.14 0.67 C1.13 0.7, 1.12 0.74, 1.11 0.77 C1.1 0.8, 1.08 0.83, 1.07 0.86 C1.05 0.89, 1.03 0.91, 1.01 0.94 C0.99 0.96, 0.96 0.99, 0.94 1.01 C0.91 1.03, 0.89 1.05, 0.86 1.07 C0.83 1.08, 0.8 1.1, 0.77 1.11 C0.74 1.12, 0.7 1.13, 0.67 1.14 C0.64 1.14, 0.61 1.14, 0.57 1.14 C0.54 1.14, 0.51 1.14, 0.47 1.14 C0.44 1.13, 0.41 1.12, 0.38 1.11 C0.35 1.1, 0.31 1.08, 0.29 1.07 C0.26 1.05, 0.23 1.03, 0.2 1.01 C0.18 0.99, 0.16 0.96, 0.13 0.94 C0.11 0.91, 0.09 0.89, 0.08 0.86 C0.06 0.83, 0.05 0.8, 0.03 0.77 C0.02 0.74, 0.01 0.7, 0.01 0.67 C0 0.64, 0 0.61, 0 0.57 C0 0.54, 0 0.51, 0.01 0.47 C0.01 0.44, 0.02 0.41, 0.03 0.38 C0.05 0.35, 0.06 0.31, 0.08 0.29 C0.09 0.26, 0.11 0.23, 0.13 0.2 C0.16 0.18, 0.18 0.16, 0.2 0.13 C0.23 0.11, 0.26 0.09, 0.29 0.08 C0.31 0.06, 0.35 0.05, 0.38 0.03 C0.41 0.02, 0.44 0.01, 0.47 0.01 C0.51 0, 0.54 0, 0.57 0 C0.61 0, 0.64 0, 0.67 0.01 C0.7 0.01, 0.74 0.02, 0.77 0.03 C0.8 0.05, 0.83 0.06, 0.86 0.08 C0.89 0.09, 0.91 0.11, 0.94 0.13 C0.96 0.16, 0.99 0.18, 1.01 0.2 C1.03 0.23, 1.05 0.26, 1.07 0.29 C1.08 0.31, 1.1 0.35, 1.11 0.38 C1.12 0.41, 1.13 0.44, 1.14 0.47 C1.14 0.51, 1.14 0.56, 1.14 0.57 C1.15 0.59, 1.15 0.56, 1.14 0.57" stroke="#000000" stroke-width="1.5" fill="none" stroke-dasharray="8 9"></path></g><g stroke-linecap="round"><g transform="translate(186.3163155162033 -12.10943359999942) rotate(269.97732772573056 0 174.48093074041503)"><path d="M1.59 -1.47 C47.78 30.25, 99.33 58.87, 152.41 86.25 M-0.36 -0.65 C59.65 34.27, 117.5 67.22, 151.47 86.52 M150.84 87.12 C149.84 135.52, 150.87 183.5, 151.99 261.19 M151.02 86.97 C150.46 126.57, 151.53 164.63, 151.22 261.97 M150 263.49 C104.62 289.21, 59.53 315.12, -0.17 348.66 M150.32 262.45 C99.38 290.31, 46.28 322.69, 0.55 349.47 M1.79 347.32 C-35.54 324.35, -75.14 305.88, -150.09 260.74 M-0.6 348.04 C-50.75 318.57, -103.39 288.11, -151.5 262 M-152.79 261.91 C-152.55 200.54, -152.37 141.59, -151.68 86.47 M-151.81 260.76 C-151.84 192.41, -151.71 123.66, -150.94 87.08 M-150.13 89.03 C-103.16 59.17, -57.78 34.45, -0.39 -1.84 M-151.72 87.36 C-106.38 61.49, -61.28 35.53, -0.14 0.14" stroke="#000000" stroke-width="1" fill="none"></path></g></g><mask></mask><g stroke-linecap="round" transform="translate(186.00043074150085 11.121726178887002) rotate(269.97732772573056 0.12532939387773467 0.12532939387767783)"><path d="M0.25 0.13 C0.25 0.13, 0.25 0.14, 0.25 0.15 C0.25 0.15, 0.25 0.16, 0.24 0.17 C0.24 0.18, 0.24 0.18, 0.23 0.19 C0.23 0.19, 0.23 0.2, 0.22 0.21 C0.22 0.21, 0.21 0.22, 0.21 0.22 C0.2 0.23, 0.19 0.23, 0.19 0.23 C0.18 0.24, 0.18 0.24, 0.17 0.24 C0.16 0.25, 0.15 0.25, 0.15 0.25 C0.14 0.25, 0.13 0.25, 0.13 0.25 C0.12 0.25, 0.11 0.25, 0.1 0.25 C0.1 0.25, 0.09 0.25, 0.08 0.24 C0.08 0.24, 0.07 0.24, 0.06 0.23 C0.06 0.23, 0.05 0.23, 0.04 0.22 C0.04 0.22, 0.03 0.21, 0.03 0.21 C0.02 0.2, 0.02 0.19, 0.02 0.19 C0.01 0.18, 0.01 0.18, 0.01 0.17 C0.01 0.16, 0 0.15, 0 0.15 C0 0.14, 0 0.13, 0 0.13 C0 0.12, 0 0.11, 0 0.1 C0 0.1, 0.01 0.09, 0.01 0.08 C0.01 0.08, 0.01 0.07, 0.02 0.06 C0.02 0.06, 0.02 0.05, 0.03 0.04 C0.03 0.04, 0.04 0.03, 0.04 0.03 C0.05 0.02, 0.06 0.02, 0.06 0.02 C0.07 0.01, 0.08 0.01, 0.08 0.01 C0.09 0.01, 0.1 0, 0.1 0 C0.11 0, 0.12 0, 0.13 0 C0.13 0, 0.14 0, 0.15 0 C0.15 0, 0.16 0.01, 0.17 0.01 C0.18 0.01, 0.18 0.01, 0.19 0.02 C0.19 0.02, 0.2 0.02, 0.21 0.03 C0.21 0.03, 0.22 0.04, 0.22 0.04 C0.23 0.05, 0.23 0.06, 0.23 0.06 C0.24 0.07, 0.24 0.08, 0.24 0.08 C0.25 0.09, 0.25 0.1, 0.25 0.1 C0.25 0.11, 0.25 0.12, 0.25 0.13 C0.25 0.13, 0.25 0.12, 0.25 0.13" stroke="none" stroke-width="0" fill="#000"></path><path d="M0.25 0.13 C0.25 0.13, 0.25 0.14, 0.25 0.15 C0.25 0.15, 0.25 0.16, 0.24 0.17 C0.24 0.18, 0.24 0.18, 0.23 0.19 C0.23 0.19, 0.23 0.2, 0.22 0.21 C0.22 0.21, 0.21 0.22, 0.21 0.22 C0.2 0.23, 0.19 0.23, 0.19 0.23 C0.18 0.24, 0.18 0.24, 0.17 0.24 C0.16 0.25, 0.15 0.25, 0.15 0.25 C0.14 0.25, 0.13 0.25, 0.13 0.25 C0.12 0.25, 0.11 0.25, 0.1 0.25 C0.1 0.25, 0.09 0.25, 0.08 0.24 C0.08 0.24, 0.07 0.24, 0.06 0.23 C0.06 0.23, 0.05 0.23, 0.04 0.22 C0.04 0.22, 0.03 0.21, 0.03 0.21 C0.02 0.2, 0.02 0.19, 0.02 0.19 C0.01 0.18, 0.01 0.18, 0.01 0.17 C0.01 0.16, 0 0.15, 0 0.15 C0 0.14, 0 0.13, 0 0.13 C0 0.12, 0 0.11, 0 0.1 C0 0.1, 0.01 0.09, 0.01 0.08 C0.01 0.08, 0.01 0.07, 0.02 0.06 C0.02 0.06, 0.02 0.05, 0.03 0.04 C0.03 0.04, 0.04 0.03, 0.04 0.03 C0.05 0.02, 0.06 0.02, 0.06 0.02 C0.07 0.01, 0.08 0.01, 0.08 0.01 C0.09 0.01, 0.1 0, 0.1 0 C0.11 0, 0.12 0, 0.13 0 C0.13 0, 0.14 0, 0.15 0 C0.15 0, 0.16 0.01, 0.17 0.01 C0.18 0.01, 0.18 0.01, 0.19 0.02 C0.19 0.02, 0.2 0.02, 0.21 0.03 C0.21 0.03, 0.22 0.04, 0.22 0.04 C0.23 0.05, 0.23 0.06, 0.23 0.06 C0.24 0.07, 0.24 0.08, 0.24 0.08 C0.25 0.09, 0.25 0.1, 0.25 0.1 C0.25 0.11, 0.25 0.12, 0.25 0.13 C0.25 0.13, 0.25 0.12, 0.25 0.13" stroke="#000000" stroke-width="1.5" fill="none" stroke-dasharray="8 9"></path></g><g stroke-linecap="round" transform="translate(185.7643955890918 313.06572824514205) rotate(269.97732772573056 0.3613645462763202 0.36136454627626335)"><path d="M0.72 0.36 C0.72 0.38, 0.72 0.4, 0.72 0.42 C0.71 0.44, 0.71 0.47, 0.7 0.48 C0.69 0.5, 0.68 0.52, 0.67 0.54 C0.66 0.56, 0.65 0.58, 0.64 0.59 C0.62 0.61, 0.61 0.62, 0.59 0.64 C0.58 0.65, 0.56 0.66, 0.54 0.67 C0.52 0.68, 0.5 0.69, 0.48 0.7 C0.47 0.71, 0.44 0.71, 0.42 0.72 C0.4 0.72, 0.38 0.72, 0.36 0.72 C0.34 0.72, 0.32 0.72, 0.3 0.72 C0.28 0.71, 0.26 0.71, 0.24 0.7 C0.22 0.69, 0.2 0.68, 0.18 0.67 C0.16 0.66, 0.15 0.65, 0.13 0.64 C0.11 0.62, 0.1 0.61, 0.08 0.59 C0.07 0.58, 0.06 0.56, 0.05 0.54 C0.04 0.52, 0.03 0.5, 0.02 0.48 C0.01 0.47, 0.01 0.44, 0.01 0.42 C0 0.4, 0 0.38, 0 0.36 C0 0.34, 0 0.32, 0.01 0.3 C0.01 0.28, 0.01 0.26, 0.02 0.24 C0.03 0.22, 0.04 0.2, 0.05 0.18 C0.06 0.16, 0.07 0.15, 0.08 0.13 C0.1 0.11, 0.11 0.1, 0.13 0.08 C0.15 0.07, 0.16 0.06, 0.18 0.05 C0.2 0.04, 0.22 0.03, 0.24 0.02 C0.26 0.01, 0.28 0.01, 0.3 0.01 C0.32 0, 0.34 0, 0.36 0 C0.38 0, 0.4 0, 0.42 0.01 C0.44 0.01, 0.47 0.01, 0.48 0.02 C0.5 0.03, 0.52 0.04, 0.54 0.05 C0.56 0.06, 0.58 0.07, 0.59 0.08 C0.61 0.1, 0.62 0.11, 0.64 0.13 C0.65 0.15, 0.66 0.16, 0.67 0.18 C0.68 0.2, 0.69 0.22, 0.7 0.24 C0.71 0.26, 0.71 0.28, 0.72 0.3 C0.72 0.32, 0.72 0.35, 0.72 0.36 C0.72 0.37, 0.72 0.35, 0.72 0.36" stroke="none" stroke-width="0" fill="#000"></path><path d="M0.72 0.36 C0.72 0.38, 0.72 0.4, 0.72 0.42 C0.71 0.44, 0.71 0.47, 0.7 0.48 C0.69 0.5, 0.68 0.52, 0.67 0.54 C0.66 0.56, 0.65 0.58, 0.64 0.59 C0.62 0.61, 0.61 0.62, 0.59 0.64 C0.58 0.65, 0.56 0.66, 0.54 0.67 C0.52 0.68, 0.5 0.69, 0.48 0.7 C0.47 0.71, 0.44 0.71, 0.42 0.72 C0.4 0.72, 0.38 0.72, 0.36 0.72 C0.34 0.72, 0.32 0.72, 0.3 0.72 C0.28 0.71, 0.26 0.71, 0.24 0.7 C0.22 0.69, 0.2 0.68, 0.18 0.67 C0.16 0.66, 0.15 0.65, 0.13 0.64 C0.11 0.62, 0.1 0.61, 0.08 0.59 C0.07 0.58, 0.06 0.56, 0.05 0.54 C0.04 0.52, 0.03 0.5, 0.02 0.48 C0.01 0.47, 0.01 0.44, 0.01 0.42 C0 0.4, 0 0.38, 0 0.36 C0 0.34, 0 0.32, 0.01 0.3 C0.01 0.28, 0.01 0.26, 0.02 0.24 C0.03 0.22, 0.04 0.2, 0.05 0.18 C0.06 0.16, 0.07 0.15, 0.08 0.13 C0.1 0.11, 0.11 0.1, 0.13 0.08 C0.15 0.07, 0.16 0.06, 0.18 0.05 C0.2 0.04, 0.22 0.03, 0.24 0.02 C0.26 0.01, 0.28 0.01, 0.3 0.01 C0.32 0, 0.34 0, 0.36 0 C0.38 0, 0.4 0, 0.42 0.01 C0.44 0.01, 0.47 0.01, 0.48 0.02 C0.5 0.03, 0.52 0.04, 0.54 0.05 C0.56 0.06, 0.58 0.07, 0.59 0.08 C0.61 0.1, 0.62 0.11, 0.64 0.13 C0.65 0.15, 0.66 0.16, 0.67 0.18 C0.68 0.2, 0.69 0.22, 0.7 0.24 C0.71 0.26, 0.71 0.28, 0.72 0.3 C0.72 0.32, 0.72 0.35, 0.72 0.36 C0.72 0.37, 0.72 0.35, 0.72 0.36" stroke="#000000" stroke-width="1.5" fill="none" stroke-dasharray="8 9"></path></g><g stroke-linecap="round"><g transform="translate(187.39156027912418 96.4870692985196) rotate(0 -0.6460555553954919 -42.34273147780243)"><path d="M0 0 C-0.22 -14.11, -1.08 -70.57, -1.29 -84.69" stroke="#000000" stroke-width="1.5" fill="none" stroke-dasharray="8 9"></path></g></g><mask></mask><g stroke-linecap="round"><g transform="translate(187.32363948504667 227.82717008164582) rotate(0 -0.6243084672230452 42.405170729521046)"><path d="M0 0 C-0.21 14.14, -1.04 70.68, -1.25 84.81" stroke="#000000" stroke-width="1.5" fill="none" stroke-dasharray="8 9"></path></g></g><mask></mask><g stroke-linecap="round" transform="translate(30.67399887295403 79.12797999384406) rotate(0 24.443061925494135 23.344288094176704)"><path d="M-0.77 1.93 L49.25 -0.84 L47.47 44.76 L-0.83 46.41" stroke="none" stroke-width="0" fill="#fff"></path><path d="M0.02 -0.73 C10.95 0.56, 25.26 -1.19, 47.74 0.72 M0.11 -0.13 C11.06 -0.43, 22.19 0.09, 48.63 0.44 M50.72 -0.17 C48 11.63, 49.18 26.53, 47.63 46.92 M48.89 -0.55 C49.82 15.1, 49.13 31.21, 48.49 46.6 M47.38 45.11 C36.43 48.45, 19.33 48.19, 1.89 47.79 M47.98 47.59 C30.94 48.03, 13.64 46.63, 0.39 47.19 M-0.98 45.49 C-2.05 36.68, 0.36 23.4, -0.48 -0.8 M0.83 45.85 C-0.12 31, -0.71 15.77, 0.11 -0.29" stroke="#000000" stroke-width="1" fill="none"></path></g><g transform="translate(39.250012268436876 92.06852635328983) rotate(0 15.867048529994037 9.452709762549603)"><text x="15.867048529994047" y="6.547290237450355" font-family="Virgil, Segoe UI Emoji" font-size="8.002878257473016px" fill="#000000" text-anchor="middle" style="white-space: pre;" direction="ltr">Primary</text><text x="15.867048529994047" y="16" font-family="Virgil, Segoe UI Emoji" font-size="8.002878257473016px" fill="#000000" text-anchor="middle" style="white-space: pre;" direction="ltr">Adapter</text></g><g stroke-linecap="round"><g transform="translate(80.5601227239423 110.57762709097665) rotate(0 10.914265758148076 3.5404502646167657)"><path d="M0 0 C3.64 1.18, 18.19 5.9, 21.83 7.08 M0 0 C3.64 1.18, 18.19 5.9, 21.83 7.08" stroke="#000000" stroke-width="1" fill="none"></path></g></g><mask></mask><g stroke-linecap="round" transform="translate(103.02613834824126 101.4530647869476) rotate(0 24.443061925494135 23.344288094176704)"><path d="M-0.83 -0.28 L48.3 0.54 L49.21 46.37 L0.26 47.01" stroke="none" stroke-width="0" fill="#fff"></path><path d="M-1.14 0.72 C15.27 -0.23, 33.13 0.44, 48.62 -0.12 M-0.26 0.44 C11.95 -0.77, 24.38 0.91, 48.8 -0.27 M47.63 0.23 C49.54 11.59, 50.43 22.76, 47.78 48.46 M48.49 -0.09 C48.82 14.12, 49.56 26.48, 48.1 47.42 M50.78 47.79 C31.63 45.86, 13.88 45.17, 1.79 45.05 M49.28 47.19 C29.01 46.91, 9.84 45.99, -0.6 45.76 M-0.48 45.89 C0.43 29.6, 0.69 12.39, -1.68 0.18 M0.11 46.4 C-0.15 35.34, 0.42 21.64, -0.71 -0.96" stroke="#087f5b" stroke-width="1" fill="none"></path></g><g transform="translate(113.49923145011724 114.39361114639337) rotate(0 13.969968823602812 9.886439475165048)"><text x="13.969968823602825" y="6.113560524834924" font-family="Virgil, Segoe UI Emoji" font-size="8.002878257473016px" fill="#000000" text-anchor="middle" style="white-space: pre;" direction="ltr">Primary</text><text x="13.969968823602825" y="16" font-family="Virgil, Segoe UI Emoji" font-size="8.002878257473016px" fill="#000000" text-anchor="middle" style="white-space: pre;" direction="ltr">Port</text></g><g stroke-linecap="round" transform="translate(228.96868431185908 171.81179546789895) rotate(0 21.93529564910142 20.949251882779777)"><path d="M0 0 C0 0, 0 0, 0 0 M0 0 C0 0, 0 0, 0 0 M0.06 5.71 C0.56 4.33, 3.43 2.47, 5.12 -0.09 M-0.23 6.71 C0.92 4.78, 2.43 3.14, 4.85 0.24 M0.31 12.03 C1.8 9.88, 7.04 6.55, 11.35 -0.74 M0.23 12.02 C4.69 6.68, 9.2 3.21, 11.21 0.11 M1.01 19.69 C3.83 12.79, 12.82 6.64, 16.78 0.63 M-0.84 17.98 C6.09 11.44, 13.03 3.71, 15.69 0.27 M0.45 23.17 C6.78 14.69, 17.04 5.36, 21.99 -1.25 M-0.66 25.06 C6.1 16.67, 13.51 9.06, 20.59 -0.66 M-0.53 32.09 C9.22 18.53, 18.72 11.6, 25.87 -1.5 M0.2 30.96 C8.45 22.34, 16.21 13.12, 26.67 -0.55 M-0.23 38.47 C14.23 22.05, 24.3 10.05, 33.63 0.64 M0.19 36.52 C5.9 29.52, 12.85 20, 32.24 -0.47 M1.4 42.56 C8.22 32.69, 17.93 19.55, 37.13 1.26 M-0.41 41.67 C8.72 32.31, 16.3 23.35, 37.87 0.15 M4.18 41.89 C14.7 33.87, 22.11 24.04, 43.63 1.25 M6.23 41.69 C18.27 27.39, 32.52 11.4, 42.37 -0.87 M12.64 43.39 C19.7 33.14, 24.39 23.34, 46.61 3.47 M9.85 43.48 C20.34 32.36, 30.85 19.79, 46.08 1.87 M15.21 40.63 C21.85 35.23, 30.03 26.74, 45.83 7 M15.57 41.9 C26.57 31.38, 35.51 19.76, 46.17 7.75 M21.84 40.67 C30.54 33.48, 40 23.22, 46.67 13.91 M20.83 42.85 C30.43 31.6, 38.5 21.43, 46.38 14.07 M26.62 43.57 C33.37 35.94, 38.58 30.07, 47.07 19.15 M26.47 41.9 C33.96 34.21, 39.28 27.1, 45.3 20.11 M30.03 44.05 C34.53 38.36, 37.72 36.25, 46.88 27.12 M32.2 42.09 C37.16 38.58, 39.5 33.94, 46.06 26.77 M37.62 42.62 C39.98 37.38, 43.86 35.22, 45.64 32.98 M37.66 42.38 C40.3 38.66, 43.55 35.05, 46.79 32.46 M42.51 42 C43.18 41.32, 43.87 40.88, 45.57 38.11 M42.48 42.39 C43.57 41.12, 44.57 40.33, 45.96 38.63 M-0.37 41.58 C-0.37 41.58, -0.37 41.58, -0.37 41.58 M-0.37 41.58 C-0.37 41.58, -0.37 41.58, -0.37 41.58 M5.78 41.73 C3.14 39.37, 1.98 37.44, 0.58 36.67 M6.07 42.1 C3.67 39.48, 1.68 37.68, -0.41 36.46 M12.64 43.13 C8.18 39.36, 1.71 35.07, 0.91 33.09 M12.34 42.64 C8.58 39.5, 4.05 34.72, 0.47 32.34 M18.51 39.71 C14.37 38.16, 7.51 33.54, 1.44 27.41 M18.34 41.27 C13.04 36.74, 6.12 32.7, -0.81 26.94 M25.33 41.99 C17.98 34.96, 10.5 31.97, -0.89 22.5 M25.26 41.95 C19.82 36.89, 15.02 33.69, 0.79 21.92 M29.09 43.19 C18.44 33.41, 7.98 24.46, -1.08 16.09 M30.89 42.36 C23.31 37.58, 17.08 32.28, 0.78 14.9 M34.7 40.55 C23.2 32.61, 11.18 21.24, -0.41 11.95 M35.6 41.58 C21.05 30.56, 6.88 17.57, 1.27 11.32 M42.15 42.6 C33 35.38, 24.11 25.04, 1.18 4.48 M43.84 41.33 C33.43 32.76, 21.4 24.91, 0.69 4.08 M47.97 38.64 C34.95 28.15, 21.18 19.66, -1.56 -0.44 M45.91 40.7 C36.1 30.9, 28.28 24.11, 0.64 0.5 M45.2 34.35 C35.73 24.09, 26.35 15.47, 7.14 0.77 M45.27 33.82 C34.04 23.53, 22.52 13.82, 6.44 -0.28 M47.84 27.88 C39.34 25.16, 30.33 15.35, 11.53 -0.81 M45.32 29.17 C32.17 17.91, 19.14 5.73, 12.01 -1.36 M46.95 23.61 C36.77 16.79, 30.87 10.37, 18.26 0.64 M44.92 23.49 C35.46 13.76, 23.88 5.37, 18.08 0.31 M45.19 17.62 C39.08 12.53, 28.36 1.34, 24.42 -0.6 M47.15 18.36 C40.24 13.67, 34.51 7.55, 23.64 -0.13 M46.18 11.92 C40.02 9.72, 37.48 4.62, 29.07 1.09 M46.11 12.66 C41.01 8.67, 36.96 4.58, 29.74 0.46 M46.06 8.75 C43.04 5.4, 41.44 2.4, 36.06 0.91 M46.51 8.26 C44.23 5.76, 42.76 4.28, 37.04 0.22 M45.93 2.53 C45.02 1.13, 43.73 0.52, 42.66 -0.66 M45.72 2.14 C44.81 1.37, 43.74 0.48, 42.94 -0.38" stroke="#fa5252" stroke-width="0.5" fill="none"></path><path d="M-0.3 0.21 C14.48 -0.02, 28.48 -0.01, 43.9 -0.52 M-0.05 0.92 C15.01 0.07, 29.64 0.66, 44.38 -0.63 M45.26 0.01 C42.87 14.83, 43.81 26.5, 45.54 41.1 M44.45 -0.75 C43.02 12.94, 44.54 23.56, 44.48 42.84 M45.4 40.09 C30.08 40.01, 14.64 39.66, -0.86 42.68 M43.58 41.41 C27.89 41.16, 13.97 42.37, 0.06 41.66 M0.82 43.57 C-1.8 31.18, -0.84 19.08, -0.55 0.21 M0.18 41.48 C-0.55 29.57, -0.25 19.04, -0.29 0.27" stroke="#000000" stroke-width="1" fill="none"></path></g><g transform="translate(230.84487352228564 214.90242453143787) rotate(0 19.343033755757745 9.886439475165048)"><text x="19.34303375575776" y="6.113560524834924" font-family="Virgil, Segoe UI Emoji" font-size="8.002878257473016px" fill="#000000" text-anchor="middle" style="white-space: pre;" direction="ltr">Secondary</text><text x="19.34303375575776" y="16" font-family="Virgil, Segoe UI Emoji" font-size="8.002878257473016px" fill="#000000" text-anchor="middle" style="white-space: pre;" direction="ltr">Port</text></g><g stroke-linecap="round"><g transform="translate(273.8392756100618 204.47400400926313) rotate(0 11.51393689692975 5.9416760578289995)"><path d="M0 0 C3.84 1.98, 19.19 9.9, 23.03 11.88" stroke="#000000" stroke-width="1.5" fill="none" stroke-dasharray="8 9"></path></g></g><mask></mask><g transform="translate(296.72142305336797 250.7330918218654) rotate(0 19.343033755757745 9.886439475165048)"><text x="19.34303375575776" y="6.113560524834924" font-family="Virgil, Segoe UI Emoji" font-size="8.002878257473016px" fill="#000000" text-anchor="middle" style="white-space: pre;" direction="ltr">Secondary</text><text x="19.34303375575776" y="16" font-family="Virgil, Segoe UI Emoji" font-size="8.002878257473016px" fill="#000000" text-anchor="middle" style="white-space: pre;" direction="ltr">Adapter</text></g><g stroke-linecap="round" transform="translate(296.73824988675256 206.19817955828307) rotate(0 21.93529564910142 20.949251882779777)"><path d="M-1.76 -1.13 L44.7 -0.39 L42.04 41.87 L0.37 40.72" stroke="none" stroke-width="0" fill="#fa5252"></path><path d="M0.88 -0.53 C11.39 0.02, 27.66 -0.06, 43.34 -1.13 M0.12 0.25 C14.7 0.97, 29.19 -0.28, 44.76 -0.08 M43.7 -0.31 C45.23 14.55, 42.72 25.19, 45.33 43.37 M44.42 0.5 C43.56 9.75, 43.22 18.86, 43.05 42.86 M44.88 40.91 C35.94 41.49, 25.3 40.87, -1.85 43.6 M43.47 42.18 C29.93 42.2, 15.93 40.95, 0.09 41.54 M-0.58 41.13 C2.04 31.8, -0.73 19.56, -1.93 -0.83 M0.16 41.74 C0.25 30.09, -0.54 18.43, 0.89 0.39" stroke="#000000" stroke-width="1" fill="none"></path></g><g transform="translate(305.2626213186368 219.3875506064919) rotate(0 12.80006537782208 8.205170113988515)"><text x="12.800065377822067" y="11" font-family="Virgil, Segoe UI Emoji" font-size="13.128272182381604px" fill="#fff" text-anchor="middle" style="white-space: pre;" direction="ltr">Impl</text></g></svg>