<?xml version="1.0" encoding="UTF-8"?><svg xmlns="http://www.w3.org/2000/svg" width="540" height="336" version="1.0" shape-rendering="geometricPrecision"><defs><filter id="shadowBlur" x="0" y="0" width="200%" height="200%"><feOffset in="SourceGraphic" dx="3.0003002" dy="3.0003002" result="offOut"></feOffset><feGaussianBlur in="offOut" stdDeviation="3"></feGaussianBlur></filter></defs><g stroke-width="1" stroke-linecap="square" stroke-linejoin="round"><rect x="0" y="0" width="540" height="336" style="fill: #ffffff"></rect><path stroke="#969696" fill="#969696" filter="url(#shadowBlur)" d="M25.0 210.0 Q25.0 203.0 30.0 203.0 L200.0 203.0 Q205.0 203.0 205.0 210.0 L205.0 294.0 L205.0 294.0 Q205.0 301.0 200.0 301.0 L30.0 301.0 L30.0 301.0 Q25.0 301.0 25.0 294.0 L25.0 210.0 z"></path><path stroke="#969696" fill="#969696" filter="url(#shadowBlur)" d="M25.0 91.0 L123.0 91.0 L123.0 173.0 L25.0 173.0 z"></path><path stroke="#969696" fill="#969696" filter="url(#shadowBlur)" d="M75.0 133.0 L123.0 133.0 L123.0 173.0 L75.0 173.0 z"></path><path stroke="#969696" fill="#969696" filter="url(#shadowBlur)" d="M25.0 49.0 L59.0 35.0 L93.0 49.0 L59.0 63.0 z"></path><path stroke="#969696" fill="#969696" filter="url(#shadowBlur)" d="M452.0 35.0 L510.0 35.0 L520.0 63.0 L442.0 63.0 z"></path><path stroke="#969696" fill="#969696" filter="url(#shadowBlur)" d="M97.0 35.0 L163.0 35.0 L163.0 63.0 Q141.0 60.0 130.0 63.0 Q119.0 66.0 97.0 63.0 z"></path><path stroke="#969696" fill="#969696" filter="url(#shadowBlur)" d="M172.0 35.0 L238.0 35.0 L228.0 63.0 L162.0 63.0 z"></path><path stroke="#969696" fill="#969696" filter="url(#shadowBlur)" d="M232.0 35.0 L308.0 35.0 L298.0 63.0 L242.0 63.0 z"></path><path stroke="#969696" fill="#969696" filter="url(#shadowBlur)" d="M340.0 35.0 C358.2254 35.0 373.0 41.268013 373.0 49.0 C373.0 56.731987 358.2254 63.0 340.0 63.0 C321.7746 63.0 307.0 56.731987 307.0 49.0 C307.0 41.268013 321.7746 35.0 340.0 35.0 z"></path><path stroke="white" stroke-width="1.0" stroke-linecap="round" stroke-linejoin="round" fill="#ffffff" d="M377.0 35.0 C388.0 42.0 432.0 42.0 443.0 35.0 C432.0 28.0 388.0 28.0 377.0 35.0 M377.0 35.0 L377.0 63.0 C388.0 73.0 432.0 73.0 443.0 63.0 L443.0 35.0 "></path><path stroke="#000000" stroke-width="1.0" stroke-linecap="round" stroke-linejoin="round" fill="none" d="M377.0 35.0 C388.0 42.0 432.0 42.0 443.0 35.0 C432.0 28.0 388.0 28.0 377.0 35.0 M377.0 35.0 L377.0 63.0 C388.0 73.0 432.0 73.0 443.0 63.0 L443.0 35.0 "></path><path stroke="#000000" stroke-width="1.0" stroke-linecap="round" stroke-linejoin="round" fill="#99dd99" d="M25.0 210.0 Q25.0 203.0 30.0 203.0 L200.0 203.0 Q205.0 203.0 205.0 210.0 L205.0 294.0 L205.0 294.0 Q205.0 301.0 200.0 301.0 L30.0 301.0 L30.0 301.0 Q25.0 301.0 25.0 294.0 L25.0 210.0 z"></path><path stroke="#000000" stroke-width="1.0" stroke-linecap="round" stroke-linejoin="round" fill="#5555bb" d="M25.0 91.0 L123.0 91.0 L123.0 173.0 L25.0 173.0 z"></path><path stroke="#000000" stroke-width="1.0" stroke-linecap="round" stroke-linejoin="round" fill="#ffaaaa" d="M75.0 133.0 L123.0 133.0 L123.0 173.0 L75.0 173.0 z"></path><path stroke="#000000" stroke-width="1.0" stroke-linecap="round" stroke-linejoin="round" fill="white" d="M25.0 49.0 L59.0 35.0 L93.0 49.0 L59.0 63.0 z"></path><path stroke="#000000" stroke-width="1.0" stroke-linecap="round" stroke-linejoin="round" fill="white" d="M452.0 35.0 L510.0 35.0 L520.0 63.0 L442.0 63.0 z"></path><path stroke="#000000" stroke-width="1.0" stroke-linecap="round" stroke-linejoin="round" fill="white" d="M97.0 35.0 L163.0 35.0 L163.0 63.0 Q141.0 60.0 130.0 63.0 Q119.0 66.0 97.0 63.0 z"></path><path stroke="#000000" stroke-width="1.0" stroke-linecap="round" stroke-linejoin="round" fill="white" d="M172.0 35.0 L238.0 35.0 L228.0 63.0 L162.0 63.0 z"></path><path stroke="#000000" stroke-width="1.0" stroke-linecap="round" stroke-linejoin="round" fill="white" d="M232.0 35.0 L308.0 35.0 L298.0 63.0 L242.0 63.0 z"></path><path stroke="#000000" stroke-width="1.0" stroke-linecap="round" stroke-linejoin="round" fill="white" d="M340.0 35.0 C358.2254 35.0 373.0 41.268013 373.0 49.0 C373.0 56.731987 358.2254 63.0 340.0 63.0 C321.7746 63.0 307.0 56.731987 307.0 49.0 C307.0 41.268013 321.7746 35.0 340.0 35.0 z"></path><path stroke="#000000" stroke-width="1.0" stroke-linecap="round" stroke-linejoin="round" fill="none" d="M75.0 105.0 L75.0 133.0 "></path><path stroke="#000000" stroke-width="1.0" stroke-linecap="round" stroke-linejoin="round" fill="none" d="M35.0 133.0 L75.0 133.0 "></path><text x="43" y="54" font-family="sans-serif" font-size="15" stroke="none" fill="#000000"><![CDATA[c ]]></text><text x="103" y="54" font-family="sans-serif" font-size="15" stroke="none" fill="#000000"><![CDATA[d ]]></text><text x="173" y="54" font-family="sans-serif" font-size="15" stroke="none" fill="#000000"><![CDATA[io]]></text><text x="241" y="53" font-family="sans-serif" font-size="11" stroke="none" fill="#000000"><![CDATA[mo]]></text><text x="313" y="54" font-family="sans-serif" font-size="15" stroke="none" fill="#000000"><![CDATA[o ]]></text><text x="383" y="54" font-family="sans-serif" font-size="15" stroke="none" fill="#000000"><![CDATA[s ]]></text><text x="453" y="54" font-family="sans-serif" font-size="15" stroke="none" fill="#000000"><![CDATA[tr]]></text><text x="50" y="222" font-family="sans-serif" font-size="15" stroke="none" fill="#000000"><![CDATA[Things to do]]></text><text x="50" y="250" font-family="sans-serif" font-size="15" stroke="none" fill="#000000"><![CDATA[•Cut the grass]]></text><text x="50" y="264" font-family="sans-serif" font-size="15" stroke="none" fill="#000000"><![CDATA[•Buy jam]]></text><text x="50" y="278" font-family="sans-serif" font-size="15" stroke="none" fill="#000000"><![CDATA[•Fix car]]></text><text x="50" y="292" font-family="sans-serif" font-size="15" stroke="none" fill="#000000"><![CDATA[•Make website]]></text></g></svg>