<?xml version="1.0" encoding="UTF-8" standalone="no"?><svg xmlns="http://www.w3.org/2000/svg" xmlns:xlink="http://www.w3.org/1999/xlink" contentStyleType="text/css" height="67px" preserveAspectRatio="none" style="width:482px;height:67px;background:#FFFFFF;" version="1.1" viewBox="0 0 482 67" width="482px" zoomAndPan="magnify"><defs/><g><line style="stroke:#C0C0C0;stroke-width:1.0;" x1="0" x2="0" y1="0" y2="51.6094"/><line style="stroke:#C0C0C0;stroke-width:1.0;" x1="16" x2="16" y1="0" y2="51.6094"/><line style="stroke:#C0C0C0;stroke-width:1.0;" x1="32" x2="32" y1="0" y2="51.6094"/><line style="stroke:#C0C0C0;stroke-width:1.0;" x1="48" x2="48" y1="0" y2="51.6094"/><line style="stroke:#C0C0C0;stroke-width:1.0;" x1="64" x2="64" y1="0" y2="51.6094"/><line style="stroke:#C0C0C0;stroke-width:1.0;" x1="80" x2="80" y1="0" y2="51.6094"/><line style="stroke:#C0C0C0;stroke-width:1.0;" x1="96" x2="96" y1="0" y2="51.6094"/><line style="stroke:#C0C0C0;stroke-width:1.0;" x1="112" x2="112" y1="0" y2="51.6094"/><line style="stroke:#C0C0C0;stroke-width:1.0;" x1="128" x2="128" y1="0" y2="51.6094"/><line style="stroke:#C0C0C0;stroke-width:1.0;" x1="144" x2="144" y1="0" y2="51.6094"/><line style="stroke:#C0C0C0;stroke-width:1.0;" x1="160" x2="160" y1="0" y2="51.6094"/><line style="stroke:#C0C0C0;stroke-width:1.0;" x1="176" x2="176" y1="0" y2="51.6094"/><line style="stroke:#C0C0C0;stroke-width:1.0;" x1="192" x2="192" y1="0" y2="51.6094"/><line style="stroke:#C0C0C0;stroke-width:1.0;" x1="208" x2="208" y1="0" y2="51.6094"/><line style="stroke:#C0C0C0;stroke-width:1.0;" x1="224" x2="224" y1="0" y2="51.6094"/><line style="stroke:#C0C0C0;stroke-width:1.0;" x1="240" x2="240" y1="0" y2="51.6094"/><line style="stroke:#C0C0C0;stroke-width:1.0;" x1="256" x2="256" y1="0" y2="51.6094"/><line style="stroke:#C0C0C0;stroke-width:1.0;" x1="272" x2="272" y1="0" y2="51.6094"/><line style="stroke:#C0C0C0;stroke-width:1.0;" x1="288" x2="288" y1="0" y2="51.6094"/><line style="stroke:#C0C0C0;stroke-width:1.0;" x1="304" x2="304" y1="0" y2="51.6094"/><line style="stroke:#C0C0C0;stroke-width:1.0;" x1="320" x2="320" y1="0" y2="51.6094"/><line style="stroke:#C0C0C0;stroke-width:1.0;" x1="336" x2="336" y1="0" y2="51.6094"/><line style="stroke:#C0C0C0;stroke-width:1.0;" x1="352" x2="352" y1="0" y2="51.6094"/><line style="stroke:#C0C0C0;stroke-width:1.0;" x1="368" x2="368" y1="0" y2="51.6094"/><line style="stroke:#C0C0C0;stroke-width:1.0;" x1="384" x2="384" y1="0" y2="51.6094"/><line style="stroke:#C0C0C0;stroke-width:1.0;" x1="400" x2="400" y1="0" y2="51.6094"/><line style="stroke:#C0C0C0;stroke-width:1.0;" x1="416" x2="416" y1="0" y2="51.6094"/><line style="stroke:#C0C0C0;stroke-width:1.0;" x1="432" x2="432" y1="0" y2="51.6094"/><line style="stroke:#C0C0C0;stroke-width:1.0;" x1="448" x2="448" y1="0" y2="51.6094"/><line style="stroke:#C0C0C0;stroke-width:1.0;" x1="464" x2="464" y1="0" y2="51.6094"/><line style="stroke:#C0C0C0;stroke-width:1.0;" x1="480" x2="480" y1="0" y2="51.6094"/><text fill="#000000" font-family="Serif" font-size="10" lengthAdjust="spacing" textLength="6" x="5" y="9.2822">1</text><text fill="#000000" font-family="Serif" font-size="10" lengthAdjust="spacing" textLength="6" x="21" y="9.2822">2</text><text fill="#000000" font-family="Serif" font-size="10" lengthAdjust="spacing" textLength="6" x="37" y="9.2822">3</text><text fill="#000000" font-family="Serif" font-size="10" lengthAdjust="spacing" textLength="6" x="53" y="9.2822">4</text><text fill="#000000" font-family="Serif" font-size="10" lengthAdjust="spacing" textLength="6" x="69" y="9.2822">5</text><text fill="#000000" font-family="Serif" font-size="10" lengthAdjust="spacing" textLength="6" x="85" y="9.2822">6</text><text fill="#000000" font-family="Serif" font-size="10" lengthAdjust="spacing" textLength="6" x="101" y="9.2822">7</text><text fill="#000000" font-family="Serif" font-size="10" lengthAdjust="spacing" textLength="6" x="117" y="9.2822">8</text><text fill="#000000" font-family="Serif" font-size="10" lengthAdjust="spacing" textLength="6" x="133" y="9.2822">9</text><text fill="#000000" font-family="Serif" font-size="10" lengthAdjust="spacing" textLength="12" x="146" y="9.2822">10</text><text fill="#000000" font-family="Serif" font-size="10" lengthAdjust="spacing" textLength="12" x="162" y="9.2822">11</text><text fill="#000000" font-family="Serif" font-size="10" lengthAdjust="spacing" textLength="12" x="178" y="9.2822">12</text><text fill="#000000" font-family="Serif" font-size="10" lengthAdjust="spacing" textLength="12" x="194" y="9.2822">13</text><text fill="#000000" font-family="Serif" font-size="10" lengthAdjust="spacing" textLength="12" x="210" y="9.2822">14</text><text fill="#000000" font-family="Serif" font-size="10" lengthAdjust="spacing" textLength="12" x="226" y="9.2822">15</text><text fill="#000000" font-family="Serif" font-size="10" lengthAdjust="spacing" textLength="12" x="242" y="9.2822">16</text><text fill="#000000" font-family="Serif" font-size="10" lengthAdjust="spacing" textLength="12" x="258" y="9.2822">17</text><text fill="#000000" font-family="Serif" font-size="10" lengthAdjust="spacing" textLength="12" x="274" y="9.2822">18</text><text fill="#000000" font-family="Serif" font-size="10" lengthAdjust="spacing" textLength="12" x="290" y="9.2822">19</text><text fill="#000000" font-family="Serif" font-size="10" lengthAdjust="spacing" textLength="12" x="306" y="9.2822">20</text><text fill="#000000" font-family="Serif" font-size="10" lengthAdjust="spacing" textLength="12" x="322" y="9.2822">21</text><text fill="#000000" font-family="Serif" font-size="10" lengthAdjust="spacing" textLength="12" x="338" y="9.2822">22</text><text fill="#000000" font-family="Serif" font-size="10" lengthAdjust="spacing" textLength="12" x="354" y="9.2822">23</text><text fill="#000000" font-family="Serif" font-size="10" lengthAdjust="spacing" textLength="12" x="370" y="9.2822">24</text><text fill="#000000" font-family="Serif" font-size="10" lengthAdjust="spacing" textLength="12" x="386" y="9.2822">25</text><text fill="#000000" font-family="Serif" font-size="10" lengthAdjust="spacing" textLength="12" x="402" y="9.2822">26</text><text fill="#000000" font-family="Serif" font-size="10" lengthAdjust="spacing" textLength="12" x="418" y="9.2822">27</text><text fill="#000000" font-family="Serif" font-size="10" lengthAdjust="spacing" textLength="12" x="434" y="9.2822">28</text><text fill="#000000" font-family="Serif" font-size="10" lengthAdjust="spacing" textLength="12" x="450" y="9.2822">29</text><text fill="#000000" font-family="Serif" font-size="10" lengthAdjust="spacing" textLength="12" x="466" y="9.2822">30</text><line style="stroke:#C0C0C0;stroke-width:1.0;" x1="0" x2="480" y1="0" y2="0"/><line style="stroke:#C0C0C0;stroke-width:1.0;" x1="0" x2="480" y1="13" y2="13"/><rect fill="#E2E2F0" height="12.8047" style="stroke:none;stroke-width:1.0;" width="132.8" x="2" y="18"/><rect fill="#FFFFFF" height="12.8047" style="stroke:none;stroke-width:1.0;" width="199.2" x="134.8" y="18"/><line style="stroke:#181818;stroke-width:1.0;" x1="2" x2="334" y1="18" y2="18"/><line style="stroke:#181818;stroke-width:1.0;" x1="2" x2="334" y1="30.8047" y2="30.8047"/><line style="stroke:#181818;stroke-width:1.0;" x1="2" x2="2" y1="18" y2="30.8047"/><line style="stroke:#181818;stroke-width:1.0;" x1="334" x2="334" y1="18" y2="30.8047"/><rect fill="#E2E2F0" height="12.8047" style="stroke:none;stroke-width:1.0;" width="47.6" x="2" y="34.8047"/><rect fill="#FFFFFF" height="12.8047" style="stroke:none;stroke-width:1.0;" width="428.4" x="49.6" y="34.8047"/><line style="stroke:#181818;stroke-width:1.0;" x1="2" x2="478" y1="34.8047" y2="34.8047"/><line style="stroke:#181818;stroke-width:1.0;" x1="2" x2="478" y1="47.6094" y2="47.6094"/><line style="stroke:#181818;stroke-width:1.0;" x1="2" x2="2" y1="34.8047" y2="47.6094"/><line style="stroke:#181818;stroke-width:1.0;" x1="478" x2="478" y1="34.8047" y2="47.6094"/><text fill="#000000" font-family="sans-serif" font-size="11" lengthAdjust="spacing" textLength="18" x="6" y="28.2104">foo</text><text fill="#000000" font-family="sans-serif" font-size="11" lengthAdjust="spacing" textLength="19" x="6" y="45.0151">bar</text><line style="stroke:#C0C0C0;stroke-width:1.0;" x1="0" x2="0" y1="52.6094" y2="65.6094"/><line style="stroke:#C0C0C0;stroke-width:1.0;" x1="16" x2="16" y1="52.6094" y2="65.6094"/><line style="stroke:#C0C0C0;stroke-width:1.0;" x1="32" x2="32" y1="52.6094" y2="65.6094"/><line style="stroke:#C0C0C0;stroke-width:1.0;" x1="48" x2="48" y1="52.6094" y2="65.6094"/><line style="stroke:#C0C0C0;stroke-width:1.0;" x1="64" x2="64" y1="52.6094" y2="65.6094"/><line style="stroke:#C0C0C0;stroke-width:1.0;" x1="80" x2="80" y1="52.6094" y2="65.6094"/><line style="stroke:#C0C0C0;stroke-width:1.0;" x1="96" x2="96" y1="52.6094" y2="65.6094"/><line style="stroke:#C0C0C0;stroke-width:1.0;" x1="112" x2="112" y1="52.6094" y2="65.6094"/><line style="stroke:#C0C0C0;stroke-width:1.0;" x1="128" x2="128" y1="52.6094" y2="65.6094"/><line style="stroke:#C0C0C0;stroke-width:1.0;" x1="144" x2="144" y1="52.6094" y2="65.6094"/><line style="stroke:#C0C0C0;stroke-width:1.0;" x1="160" x2="160" y1="52.6094" y2="65.6094"/><line style="stroke:#C0C0C0;stroke-width:1.0;" x1="176" x2="176" y1="52.6094" y2="65.6094"/><line style="stroke:#C0C0C0;stroke-width:1.0;" x1="192" x2="192" y1="52.6094" y2="65.6094"/><line style="stroke:#C0C0C0;stroke-width:1.0;" x1="208" x2="208" y1="52.6094" y2="65.6094"/><line style="stroke:#C0C0C0;stroke-width:1.0;" x1="224" x2="224" y1="52.6094" y2="65.6094"/><line style="stroke:#C0C0C0;stroke-width:1.0;" x1="240" x2="240" y1="52.6094" y2="65.6094"/><line style="stroke:#C0C0C0;stroke-width:1.0;" x1="256" x2="256" y1="52.6094" y2="65.6094"/><line style="stroke:#C0C0C0;stroke-width:1.0;" x1="272" x2="272" y1="52.6094" y2="65.6094"/><line style="stroke:#C0C0C0;stroke-width:1.0;" x1="288" x2="288" y1="52.6094" y2="65.6094"/><line style="stroke:#C0C0C0;stroke-width:1.0;" x1="304" x2="304" y1="52.6094" y2="65.6094"/><line style="stroke:#C0C0C0;stroke-width:1.0;" x1="320" x2="320" y1="52.6094" y2="65.6094"/><line style="stroke:#C0C0C0;stroke-width:1.0;" x1="336" x2="336" y1="52.6094" y2="65.6094"/><line style="stroke:#C0C0C0;stroke-width:1.0;" x1="352" x2="352" y1="52.6094" y2="65.6094"/><line style="stroke:#C0C0C0;stroke-width:1.0;" x1="368" x2="368" y1="52.6094" y2="65.6094"/><line style="stroke:#C0C0C0;stroke-width:1.0;" x1="384" x2="384" y1="52.6094" y2="65.6094"/><line style="stroke:#C0C0C0;stroke-width:1.0;" x1="400" x2="400" y1="52.6094" y2="65.6094"/><line style="stroke:#C0C0C0;stroke-width:1.0;" x1="416" x2="416" y1="52.6094" y2="65.6094"/><line style="stroke:#C0C0C0;stroke-width:1.0;" x1="432" x2="432" y1="52.6094" y2="65.6094"/><line style="stroke:#C0C0C0;stroke-width:1.0;" x1="448" x2="448" y1="52.6094" y2="65.6094"/><line style="stroke:#C0C0C0;stroke-width:1.0;" x1="464" x2="464" y1="52.6094" y2="65.6094"/><line style="stroke:#C0C0C0;stroke-width:1.0;" x1="480" x2="480" y1="52.6094" y2="65.6094"/><text fill="#000000" font-family="Serif" font-size="10" lengthAdjust="spacing" textLength="6" x="5" y="61.8916">1</text><text fill="#000000" font-family="Serif" font-size="10" lengthAdjust="spacing" textLength="6" x="21" y="61.8916">2</text><text fill="#000000" font-family="Serif" font-size="10" lengthAdjust="spacing" textLength="6" x="37" y="61.8916">3</text><text fill="#000000" font-family="Serif" font-size="10" lengthAdjust="spacing" textLength="6" x="53" y="61.8916">4</text><text fill="#000000" font-family="Serif" font-size="10" lengthAdjust="spacing" textLength="6" x="69" y="61.8916">5</text><text fill="#000000" font-family="Serif" font-size="10" lengthAdjust="spacing" textLength="6" x="85" y="61.8916">6</text><text fill="#000000" font-family="Serif" font-size="10" lengthAdjust="spacing" textLength="6" x="101" y="61.8916">7</text><text fill="#000000" font-family="Serif" font-size="10" lengthAdjust="spacing" textLength="6" x="117" y="61.8916">8</text><text fill="#000000" font-family="Serif" font-size="10" lengthAdjust="spacing" textLength="6" x="133" y="61.8916">9</text><text fill="#000000" font-family="Serif" font-size="10" lengthAdjust="spacing" textLength="12" x="146" y="61.8916">10</text><text fill="#000000" font-family="Serif" font-size="10" lengthAdjust="spacing" textLength="12" x="162" y="61.8916">11</text><text fill="#000000" font-family="Serif" font-size="10" lengthAdjust="spacing" textLength="12" x="178" y="61.8916">12</text><text fill="#000000" font-family="Serif" font-size="10" lengthAdjust="spacing" textLength="12" x="194" y="61.8916">13</text><text fill="#000000" font-family="Serif" font-size="10" lengthAdjust="spacing" textLength="12" x="210" y="61.8916">14</text><text fill="#000000" font-family="Serif" font-size="10" lengthAdjust="spacing" textLength="12" x="226" y="61.8916">15</text><text fill="#000000" font-family="Serif" font-size="10" lengthAdjust="spacing" textLength="12" x="242" y="61.8916">16</text><text fill="#000000" font-family="Serif" font-size="10" lengthAdjust="spacing" textLength="12" x="258" y="61.8916">17</text><text fill="#000000" font-family="Serif" font-size="10" lengthAdjust="spacing" textLength="12" x="274" y="61.8916">18</text><text fill="#000000" font-family="Serif" font-size="10" lengthAdjust="spacing" textLength="12" x="290" y="61.8916">19</text><text fill="#000000" font-family="Serif" font-size="10" lengthAdjust="spacing" textLength="12" x="306" y="61.8916">20</text><text fill="#000000" font-family="Serif" font-size="10" lengthAdjust="spacing" textLength="12" x="322" y="61.8916">21</text><text fill="#000000" font-family="Serif" font-size="10" lengthAdjust="spacing" textLength="12" x="338" y="61.8916">22</text><text fill="#000000" font-family="Serif" font-size="10" lengthAdjust="spacing" textLength="12" x="354" y="61.8916">23</text><text fill="#000000" font-family="Serif" font-size="10" lengthAdjust="spacing" textLength="12" x="370" y="61.8916">24</text><text fill="#000000" font-family="Serif" font-size="10" lengthAdjust="spacing" textLength="12" x="386" y="61.8916">25</text><text fill="#000000" font-family="Serif" font-size="10" lengthAdjust="spacing" textLength="12" x="402" y="61.8916">26</text><text fill="#000000" font-family="Serif" font-size="10" lengthAdjust="spacing" textLength="12" x="418" y="61.8916">27</text><text fill="#000000" font-family="Serif" font-size="10" lengthAdjust="spacing" textLength="12" x="434" y="61.8916">28</text><text fill="#000000" font-family="Serif" font-size="10" lengthAdjust="spacing" textLength="12" x="450" y="61.8916">29</text><text fill="#000000" font-family="Serif" font-size="10" lengthAdjust="spacing" textLength="12" x="466" y="61.8916">30</text><line style="stroke:#C0C0C0;stroke-width:1.0;" x1="0" x2="480" y1="52.6094" y2="52.6094"/><!--SRC=[JOv1Qy9048Nl-olcKj23aer192TfqmffGgL6B-9XpOvX8PcLtTc0_xvhMsbF0-zzxsFMdfNZJX6pE5wiFK6lF7j89MXryx-PyP0bJz3QuTeZenR7it8FT95yew18tq7v3nHh9FqZ5zi-tdrTmOZE6qiWvscIfdEPJPg0K60BoHBaAa-pN2vWKpTmxwTYijbMu6rmBO8sdfqv1uw2gIZLgE0p49i1S_Yu8fN5-oE0LngDipGWiIWFzH-mp6RFXc67Bhu2XreKU56XvxXehJRKvR1ltcOhKIdgWkgY6qcysEXrjzZjlW00]--></g></svg>