<?xml version="1.0" encoding="UTF-8"?><svg xmlns="http://www.w3.org/2000/svg" width="540" height="196" version="1.0" shape-rendering="geometricPrecision"><defs><filter id="shadowBlur" x="0" y="0" width="200%" height="200%"><feOffset in="SourceGraphic" dx="3.0003002" dy="3.0003002" result="offOut"></feOffset><feGaussianBlur in="offOut" stdDeviation="3"></feGaussianBlur></filter></defs><g stroke-width="1" stroke-linecap="square" stroke-linejoin="round"><rect x="0" y="0" width="540" height="196" style="fill: #ffffff"></rect><path stroke="#969696" fill="#969696" filter="url(#shadowBlur)" d="M165.0 35.0 L305.0 35.0 L305.0 77.0 L165.0 77.0 z"></path><path stroke="#969696" fill="#969696" filter="url(#shadowBlur)" d="M355.0 140.0 Q355.0 133.0 360.0 133.0 L510.0 133.0 Q515.0 133.0 515.0 140.0 L515.0 154.0 L515.0 154.0 Q515.0 161.0 510.0 161.0 L360.0 161.0 L360.0 161.0 Q355.0 161.0 355.0 154.0 L355.0 140.0 z"></path><path stroke="#969696" fill="#969696" filter="url(#shadowBlur)" d="M165.0 133.0 L305.0 133.0 L305.0 161.0 L165.0 161.0 z"></path><path stroke="#969696" fill="#969696" filter="url(#shadowBlur)" d="M35.0 133.0 L125.0 133.0 L125.0 161.0 L35.0 161.0 z"></path><path stroke="#000000" stroke-width="1.0" stroke-linecap="round" stroke-linejoin="round" fill="white" d="M165.0 35.0 L305.0 35.0 L305.0 77.0 L165.0 77.0 z"></path><path stroke="#000000" stroke-width="1.0" stroke-linecap="round" stroke-linejoin="round" fill="white" d="M355.0 140.0 Q355.0 133.0 360.0 133.0 L510.0 133.0 Q515.0 133.0 515.0 140.0 L515.0 154.0 L515.0 154.0 Q515.0 161.0 510.0 161.0 L360.0 161.0 L360.0 161.0 Q355.0 161.0 355.0 154.0 L355.0 140.0 z"></path><path stroke="#000000" stroke-width="1.0" stroke-linecap="round" stroke-linejoin="round" fill="white" d="M165.0 133.0 L305.0 133.0 L305.0 161.0 L165.0 161.0 z"></path><path stroke="#000000" stroke-width="1.0" stroke-linecap="round" stroke-linejoin="round" fill="none" d="M315.0 49.0 L425.0 49.0 L425.0 119.0 "></path><path stroke="#000000" stroke-width="1.0" stroke-linecap="round" stroke-linejoin="round" fill="white" d="M35.0 133.0 L125.0 133.0 L125.0 161.0 L35.0 161.0 z"></path><path stroke="none" stroke-width="1.0" stroke-linecap="round" stroke-linejoin="round" fill="#000000" d="M225.0 84.0 L220.0 98.0 L230.0 98.0 z"></path><path stroke="none" stroke-width="1.0" stroke-linecap="round" stroke-linejoin="round" fill="#000000" d="M420.0 112.0 L425.0 126.0 L430.0 112.0 z"></path><path stroke="none" stroke-width="1.0" stroke-linecap="round" stroke-linejoin="round" fill="#000000" d="M150.0 140.0 L160.0 147.0 L150.0 154.0 z"></path><path stroke="#000000" stroke-width="1.0" stroke-linecap="round" stroke-linejoin="round" fill="none" d="M135.0 147.0 L155.0 147.0 "></path><path stroke="#000000" stroke-width="1.0" stroke-linecap="round" stroke-linejoin="round" fill="none" d="M225.0 91.0 L225.0 133.0 "></path><text x="191" y="54" font-family="sans-serif" font-size="15" stroke="none" fill="#000000"><![CDATA[asciidoctor]]></text><text x="192" y="68" font-family="sans-serif" font-size="15" stroke="none" fill="#000000"><![CDATA[diagram]]></text><text x="440" y="82" font-family="sans-serif" font-size="15" stroke="none" fill="#000000"><![CDATA[image]]></text><text x="247" y="110" font-family="sans-serif" font-size="15" stroke="none" fill="#000000"><![CDATA[diagram source]]></text><text x="61" y="152" font-family="sans-serif" font-size="15" stroke="none" fill="#000000"><![CDATA[adoc]]></text><text x="191" y="152" font-family="sans-serif" font-size="15" stroke="none" fill="#000000"><![CDATA[asciidoctor]]></text><text x="371" y="152" font-family="sans-serif" font-size="15" stroke="none" fill="#000000"><![CDATA[HTML + image]]></text></g></svg>