<svg version="1.1" xmlns="http://www.w3.org/2000/svg" viewBox="0 0 891.7158673964252 725.4088530890836" width="1783.4317347928504" height="1450.817706178167">
  <!-- svg-source:excalidraw -->
  
  <defs>
    <style class="style-fonts">
      @font-face {
        font-family: "Virgil";
        src: url("https://excalidraw.com/Virgil.woff2");
      }
      @font-face {
        font-family: "Cascadia";
        src: url("https://excalidraw.com/Cascadia.woff2");
      }
    </style>
  </defs>
  <rect x="0" y="0" width="891.7158673964252" height="725.4088530890836" fill="#ffffff"></rect><g stroke-linecap="round"><g transform="translate(420.9718650255862 188.39187411652347) rotate(269.97732772573056 -0.04357544429723248 173.38107731960372)"><path d="M-1.8 -0.24 C47.34 29.95, 96.48 55.09, 151.77 86.38 M0.81 -0.31 C50 31.14, 100.04 59.11, 150.92 86.32 M150.25 88.41 C147.96 134.27, 147.93 180.21, 150.81 260.29 M150.96 86.03 C152.36 132.38, 152.23 178.66, 151.03 260.3 M151.24 258.53 C96.25 291.62, 36.18 325.4, -0.47 345.69 M149.39 260.15 C109.79 283.26, 69.67 306.45, -0.18 346.47 M0.06 345.96 C-50.49 316.8, -102.82 284.53, -148.61 262.21 M0.79 347.07 C-39.88 323.23, -78.87 301.31, -149.82 260.66 M-152.05 261.02 C-150.57 222.64, -151.58 188.43, -151.24 85.84 M-150.08 260.5 C-149.64 193.88, -149.54 126.35, -149.61 87.58 M-151.96 85.44 C-110.36 64.46, -73.56 43.43, 0.4 0.3 M-149.59 87.55 C-90.14 50.48, -29.14 16.35, 0.76 0.01" stroke="#000000" stroke-width="1" fill="none"></path></g></g><mask></mask><g transform="translate(375.440252305595 320.0089788249097) rotate(0 49.35614013671875 43)"><text x="49.35614013671875" y="0" font-family="Virgil, Segoe UI Emoji" font-size="33.533171673474094px" fill="#000000" text-anchor="middle" style="white-space: pre;" direction="ltr" dominant-baseline="text-before-edge">Use</text><text x="49.35614013671875" y="43" font-family="Virgil, Segoe UI Emoji" font-size="33.533171673474094px" fill="#000000" text-anchor="middle" style="white-space: pre;" direction="ltr" dominant-baseline="text-before-edge">Cases</text></g><g stroke-linecap="round" transform="translate(418.6020148810684 210.23825741446944) rotate(0 0.7125000000008299 0.7125000000007731)"><path d="M1.43 0.71 C1.43 0.75, 1.42 0.8, 1.41 0.84 C1.41 0.88, 1.4 0.92, 1.38 0.96 C1.37 0.99, 1.35 1.03, 1.33 1.07 C1.31 1.1, 1.28 1.14, 1.26 1.17 C1.23 1.2, 1.2 1.23, 1.17 1.26 C1.14 1.28, 1.1 1.31, 1.07 1.33 C1.03 1.35, 0.99 1.37, 0.96 1.38 C0.92 1.4, 0.88 1.41, 0.84 1.41 C0.8 1.42, 0.75 1.43, 0.71 1.43 C0.67 1.43, 0.63 1.42, 0.59 1.41 C0.55 1.41, 0.51 1.4, 0.47 1.38 C0.43 1.37, 0.39 1.35, 0.36 1.33 C0.32 1.31, 0.29 1.28, 0.25 1.26 C0.22 1.23, 0.19 1.2, 0.17 1.17 C0.14 1.14, 0.12 1.1, 0.1 1.07 C0.07 1.03, 0.06 0.99, 0.04 0.96 C0.03 0.92, 0.02 0.88, 0.01 0.84 C0 0.8, 0 0.75, 0 0.71 C0 0.67, 0 0.63, 0.01 0.59 C0.02 0.55, 0.03 0.51, 0.04 0.47 C0.06 0.43, 0.07 0.39, 0.1 0.36 C0.12 0.32, 0.14 0.29, 0.17 0.25 C0.19 0.22, 0.22 0.19, 0.25 0.17 C0.29 0.14, 0.32 0.12, 0.36 0.1 C0.39 0.07, 0.43 0.06, 0.47 0.04 C0.51 0.03, 0.55 0.02, 0.59 0.01 C0.63 0, 0.67 0, 0.71 0 C0.75 0, 0.8 0, 0.84 0.01 C0.88 0.02, 0.92 0.03, 0.96 0.04 C0.99 0.06, 1.03 0.07, 1.07 0.1 C1.1 0.12, 1.14 0.14, 1.17 0.17 C1.2 0.19, 1.23 0.22, 1.26 0.25 C1.28 0.29, 1.31 0.32, 1.33 0.36 C1.35 0.39, 1.37 0.43, 1.38 0.47 C1.4 0.51, 1.41 0.55, 1.41 0.59 C1.42 0.63, 1.42 0.69, 1.43 0.71 C1.43 0.73, 1.43 0.69, 1.43 0.71" stroke="none" stroke-width="0" fill="#000"></path><path d="M1.43 0.71 C1.43 0.75, 1.42 0.8, 1.41 0.84 C1.41 0.88, 1.4 0.92, 1.38 0.96 C1.37 0.99, 1.35 1.03, 1.33 1.07 C1.31 1.1, 1.28 1.14, 1.26 1.17 C1.23 1.2, 1.2 1.23, 1.17 1.26 C1.14 1.28, 1.1 1.31, 1.07 1.33 C1.03 1.35, 0.99 1.37, 0.96 1.38 C0.92 1.4, 0.88 1.41, 0.84 1.41 C0.8 1.42, 0.75 1.43, 0.71 1.43 C0.67 1.43, 0.63 1.42, 0.59 1.41 C0.55 1.41, 0.51 1.4, 0.47 1.38 C0.43 1.37, 0.39 1.35, 0.36 1.33 C0.32 1.31, 0.29 1.28, 0.25 1.26 C0.22 1.23, 0.19 1.2, 0.17 1.17 C0.14 1.14, 0.12 1.1, 0.1 1.07 C0.07 1.03, 0.06 0.99, 0.04 0.96 C0.03 0.92, 0.02 0.88, 0.01 0.84 C0 0.8, 0 0.75, 0 0.71 C0 0.67, 0 0.63, 0.01 0.59 C0.02 0.55, 0.03 0.51, 0.04 0.47 C0.06 0.43, 0.07 0.39, 0.1 0.36 C0.12 0.32, 0.14 0.29, 0.17 0.25 C0.19 0.22, 0.22 0.19, 0.25 0.17 C0.29 0.14, 0.32 0.12, 0.36 0.1 C0.39 0.07, 0.43 0.06, 0.47 0.04 C0.51 0.03, 0.55 0.02, 0.59 0.01 C0.63 0, 0.67 0, 0.71 0 C0.75 0, 0.8 0, 0.84 0.01 C0.88 0.02, 0.92 0.03, 0.96 0.04 C0.99 0.06, 1.03 0.07, 1.07 0.1 C1.1 0.12, 1.14 0.14, 1.17 0.17 C1.2 0.19, 1.23 0.22, 1.26 0.25 C1.28 0.29, 1.31 0.32, 1.33 0.36 C1.35 0.39, 1.37 0.43, 1.38 0.47 C1.4 0.51, 1.41 0.55, 1.41 0.59 C1.42 0.63, 1.42 0.69, 1.43 0.71 C1.43 0.73, 1.43 0.69, 1.43 0.71" stroke="#000" stroke-width="1.5" fill="none" stroke-dasharray="8 9"></path></g><g stroke-linecap="round" transform="translate(417.98386971978005 511.13264021849545) rotate(0 1.330645161290704 1.330645161290704)"><path d="M2.66 1.33 C2.66 1.41, 2.65 1.49, 2.64 1.56 C2.63 1.64, 2.61 1.71, 2.58 1.79 C2.55 1.86, 2.52 1.93, 2.48 2 C2.44 2.06, 2.4 2.13, 2.35 2.19 C2.3 2.24, 2.24 2.3, 2.19 2.35 C2.13 2.4, 2.06 2.44, 2 2.48 C1.93 2.52, 1.86 2.55, 1.79 2.58 C1.71 2.61, 1.64 2.63, 1.56 2.64 C1.49 2.65, 1.41 2.66, 1.33 2.66 C1.25 2.66, 1.18 2.65, 1.1 2.64 C1.02 2.63, 0.95 2.61, 0.88 2.58 C0.8 2.55, 0.73 2.52, 0.67 2.48 C0.6 2.44, 0.53 2.4, 0.48 2.35 C0.42 2.3, 0.36 2.24, 0.31 2.19 C0.26 2.13, 0.22 2.06, 0.18 2 C0.14 1.93, 0.11 1.86, 0.08 1.79 C0.05 1.71, 0.03 1.64, 0.02 1.56 C0.01 1.49, 0 1.41, 0 1.33 C0 1.25, 0.01 1.18, 0.02 1.1 C0.03 1.02, 0.05 0.95, 0.08 0.88 C0.11 0.8, 0.14 0.73, 0.18 0.67 C0.22 0.6, 0.26 0.53, 0.31 0.48 C0.36 0.42, 0.42 0.36, 0.48 0.31 C0.53 0.26, 0.6 0.22, 0.67 0.18 C0.73 0.14, 0.8 0.11, 0.88 0.08 C0.95 0.05, 1.02 0.03, 1.1 0.02 C1.18 0.01, 1.25 0, 1.33 0 C1.41 0, 1.49 0.01, 1.56 0.02 C1.64 0.03, 1.71 0.05, 1.79 0.08 C1.86 0.11, 1.93 0.14, 2 0.18 C2.06 0.22, 2.13 0.26, 2.19 0.31 C2.24 0.36, 2.3 0.42, 2.35 0.48 C2.4 0.53, 2.44 0.6, 2.48 0.67 C2.52 0.73, 2.55 0.8, 2.58 0.88 C2.61 0.95, 2.63 1.02, 2.64 1.1 C2.65 1.18, 2.66 1.29, 2.66 1.33 C2.66 1.37, 2.66 1.29, 2.66 1.33" stroke="none" stroke-width="0" fill="#000"></path><path d="M2.66 1.33 C2.66 1.41, 2.65 1.49, 2.64 1.56 C2.63 1.64, 2.61 1.71, 2.58 1.79 C2.55 1.86, 2.52 1.93, 2.48 2 C2.44 2.06, 2.4 2.13, 2.35 2.19 C2.3 2.24, 2.24 2.3, 2.19 2.35 C2.13 2.4, 2.06 2.44, 2 2.48 C1.93 2.52, 1.86 2.55, 1.79 2.58 C1.71 2.61, 1.64 2.63, 1.56 2.64 C1.49 2.65, 1.41 2.66, 1.33 2.66 C1.25 2.66, 1.18 2.65, 1.1 2.64 C1.02 2.63, 0.95 2.61, 0.88 2.58 C0.8 2.55, 0.73 2.52, 0.67 2.48 C0.6 2.44, 0.53 2.4, 0.48 2.35 C0.42 2.3, 0.36 2.24, 0.31 2.19 C0.26 2.13, 0.22 2.06, 0.18 2 C0.14 1.93, 0.11 1.86, 0.08 1.79 C0.05 1.71, 0.03 1.64, 0.02 1.56 C0.01 1.49, 0 1.41, 0 1.33 C0 1.25, 0.01 1.18, 0.02 1.1 C0.03 1.02, 0.05 0.95, 0.08 0.88 C0.11 0.8, 0.14 0.73, 0.18 0.67 C0.22 0.6, 0.26 0.53, 0.31 0.48 C0.36 0.42, 0.42 0.36, 0.48 0.31 C0.53 0.26, 0.6 0.22, 0.67 0.18 C0.73 0.14, 0.8 0.11, 0.88 0.08 C0.95 0.05, 1.02 0.03, 1.1 0.02 C1.18 0.01, 1.25 0, 1.33 0 C1.41 0, 1.49 0.01, 1.56 0.02 C1.64 0.03, 1.71 0.05, 1.79 0.08 C1.86 0.11, 1.93 0.14, 2 0.18 C2.06 0.22, 2.13 0.26, 2.19 0.31 C2.24 0.36, 2.3 0.42, 2.35 0.48 C2.4 0.53, 2.44 0.6, 2.48 0.67 C2.52 0.73, 2.55 0.8, 2.58 0.88 C2.61 0.95, 2.63 1.02, 2.64 1.1 C2.65 1.18, 2.66 1.29, 2.66 1.33 C2.66 1.37, 2.66 1.29, 2.66 1.33" stroke="#000000" stroke-width="1.5" fill="none" stroke-dasharray="8 9"></path></g><g stroke-linecap="round"><g transform="translate(416.8490038534445 -43.4023256919254) rotate(269.97732772573056 -0.26917119617229446 406.0633234730915)"><path d="M0.4 -0.52 C90.76 53.72, 182.01 105.07, 352.47 202.24 M-0.2 -0.38 C93.13 54.42, 186.48 107.63, 352 202.62 M351.17 203.91 C351.7 361.83, 351.21 519.91, 350.64 609.32 M351.96 203.46 C352.55 288.38, 352.59 373.77, 351.55 608.38 M351.22 609.45 C223.98 679.23, 98.55 753.07, 0.76 812.64 M351.8 608.79 C236.56 673.46, 122.45 739.85, 0.31 812.22 M-0.38 811.46 C-88.51 764.25, -175.14 712.88, -351.76 609.66 M-0.5 812.37 C-139.09 732.06, -276.91 653.12, -351.87 608.99 M-350.56 608.92 C-351.2 464, -350.39 319.4, -350.7 203.93 M-351.79 608.98 C-353.3 466.75, -353.56 326.08, -351.71 203.12 M-350.45 201.9 C-238.58 138.68, -126.39 72.66, -0.7 1.09 M-351.4 203.26 C-257.13 148.17, -161.87 93.18, -0.19 0.02" stroke="#000000" stroke-width="1" fill="none"></path></g></g><mask></mask><g stroke-linecap="round" transform="translate(416.114123532131 10.643084312009705) rotate(269.97732772573056 0.29156867509573203 0.29156867509573203)"><path d="M0.58 0.29 C0.58 0.31, 0.58 0.33, 0.58 0.34 C0.58 0.36, 0.57 0.38, 0.57 0.39 C0.56 0.41, 0.55 0.42, 0.54 0.44 C0.54 0.45, 0.53 0.47, 0.51 0.48 C0.5 0.49, 0.49 0.5, 0.48 0.51 C0.47 0.53, 0.45 0.54, 0.44 0.54 C0.42 0.55, 0.41 0.56, 0.39 0.57 C0.38 0.57, 0.36 0.58, 0.34 0.58 C0.33 0.58, 0.31 0.58, 0.29 0.58 C0.27 0.58, 0.26 0.58, 0.24 0.58 C0.22 0.58, 0.21 0.57, 0.19 0.57 C0.18 0.56, 0.16 0.55, 0.15 0.54 C0.13 0.54, 0.12 0.53, 0.1 0.51 C0.09 0.5, 0.08 0.49, 0.07 0.48 C0.06 0.47, 0.05 0.45, 0.04 0.44 C0.03 0.42, 0.02 0.41, 0.02 0.39 C0.01 0.38, 0.01 0.36, 0 0.34 C0 0.33, 0 0.31, 0 0.29 C0 0.27, 0 0.26, 0 0.24 C0.01 0.22, 0.01 0.21, 0.02 0.19 C0.02 0.18, 0.03 0.16, 0.04 0.15 C0.05 0.13, 0.06 0.12, 0.07 0.1 C0.08 0.09, 0.09 0.08, 0.1 0.07 C0.12 0.06, 0.13 0.05, 0.15 0.04 C0.16 0.03, 0.18 0.02, 0.19 0.02 C0.21 0.01, 0.22 0.01, 0.24 0 C0.26 0, 0.27 0, 0.29 0 C0.31 0, 0.33 0, 0.34 0 C0.36 0.01, 0.38 0.01, 0.39 0.02 C0.41 0.02, 0.42 0.03, 0.44 0.04 C0.45 0.05, 0.47 0.06, 0.48 0.07 C0.49 0.08, 0.5 0.09, 0.51 0.1 C0.53 0.12, 0.54 0.13, 0.54 0.15 C0.55 0.16, 0.56 0.18, 0.57 0.19 C0.57 0.21, 0.58 0.22, 0.58 0.24 C0.58 0.26, 0.58 0.28, 0.58 0.29 C0.58 0.3, 0.58 0.28, 0.58 0.29" stroke="none" stroke-width="0" fill="#000"></path><path d="M0.58 0.29 C0.58 0.31, 0.58 0.33, 0.58 0.34 C0.58 0.36, 0.57 0.38, 0.57 0.39 C0.56 0.41, 0.55 0.42, 0.54 0.44 C0.54 0.45, 0.53 0.47, 0.51 0.48 C0.5 0.49, 0.49 0.5, 0.48 0.51 C0.47 0.53, 0.45 0.54, 0.44 0.54 C0.42 0.55, 0.41 0.56, 0.39 0.57 C0.38 0.57, 0.36 0.58, 0.34 0.58 C0.33 0.58, 0.31 0.58, 0.29 0.58 C0.27 0.58, 0.26 0.58, 0.24 0.58 C0.22 0.58, 0.21 0.57, 0.19 0.57 C0.18 0.56, 0.16 0.55, 0.15 0.54 C0.13 0.54, 0.12 0.53, 0.1 0.51 C0.09 0.5, 0.08 0.49, 0.07 0.48 C0.06 0.47, 0.05 0.45, 0.04 0.44 C0.03 0.42, 0.02 0.41, 0.02 0.39 C0.01 0.38, 0.01 0.36, 0 0.34 C0 0.33, 0 0.31, 0 0.29 C0 0.27, 0 0.26, 0 0.24 C0.01 0.22, 0.01 0.21, 0.02 0.19 C0.02 0.18, 0.03 0.16, 0.04 0.15 C0.05 0.13, 0.06 0.12, 0.07 0.1 C0.08 0.09, 0.09 0.08, 0.1 0.07 C0.12 0.06, 0.13 0.05, 0.15 0.04 C0.16 0.03, 0.18 0.02, 0.19 0.02 C0.21 0.01, 0.22 0.01, 0.24 0 C0.26 0, 0.27 0, 0.29 0 C0.31 0, 0.33 0, 0.34 0 C0.36 0.01, 0.38 0.01, 0.39 0.02 C0.41 0.02, 0.42 0.03, 0.44 0.04 C0.45 0.05, 0.47 0.06, 0.48 0.07 C0.49 0.08, 0.5 0.09, 0.51 0.1 C0.53 0.12, 0.54 0.13, 0.54 0.15 C0.55 0.16, 0.56 0.18, 0.57 0.19 C0.57 0.21, 0.58 0.22, 0.58 0.24 C0.58 0.26, 0.58 0.28, 0.58 0.29 C0.58 0.3, 0.58 0.28, 0.58 0.29" stroke="#000000" stroke-width="1.5" fill="none" stroke-dasharray="8 9"></path></g><g stroke-linecap="round" transform="translate(415.56500688411586 713.0913281887983) rotate(269.97732772573056 0.840685323086575 0.8406853230865181)"><path d="M1.68 0.84 C1.68 0.89, 1.68 0.94, 1.67 0.99 C1.66 1.03, 1.65 1.08, 1.63 1.13 C1.61 1.17, 1.59 1.22, 1.57 1.26 C1.54 1.3, 1.52 1.34, 1.48 1.38 C1.45 1.42, 1.42 1.45, 1.38 1.48 C1.34 1.52, 1.3 1.54, 1.26 1.57 C1.22 1.59, 1.17 1.61, 1.13 1.63 C1.08 1.65, 1.03 1.66, 0.99 1.67 C0.94 1.68, 0.89 1.68, 0.84 1.68 C0.79 1.68, 0.74 1.68, 0.69 1.67 C0.65 1.66, 0.6 1.65, 0.55 1.63 C0.51 1.61, 0.46 1.59, 0.42 1.57 C0.38 1.54, 0.34 1.52, 0.3 1.48 C0.26 1.45, 0.23 1.42, 0.2 1.38 C0.17 1.34, 0.14 1.3, 0.11 1.26 C0.09 1.22, 0.07 1.17, 0.05 1.13 C0.03 1.08, 0.02 1.03, 0.01 0.99 C0 0.94, 0 0.89, 0 0.84 C0 0.79, 0 0.74, 0.01 0.69 C0.02 0.65, 0.03 0.6, 0.05 0.55 C0.07 0.51, 0.09 0.46, 0.11 0.42 C0.14 0.38, 0.17 0.34, 0.2 0.3 C0.23 0.26, 0.26 0.23, 0.3 0.2 C0.34 0.17, 0.38 0.14, 0.42 0.11 C0.46 0.09, 0.51 0.07, 0.55 0.05 C0.6 0.03, 0.65 0.02, 0.69 0.01 C0.74 0, 0.79 0, 0.84 0 C0.89 0, 0.94 0, 0.99 0.01 C1.03 0.02, 1.08 0.03, 1.13 0.05 C1.17 0.07, 1.22 0.09, 1.26 0.11 C1.3 0.14, 1.34 0.17, 1.38 0.2 C1.42 0.23, 1.45 0.26, 1.48 0.3 C1.52 0.34, 1.54 0.38, 1.57 0.42 C1.59 0.46, 1.61 0.51, 1.63 0.55 C1.65 0.6, 1.66 0.65, 1.67 0.69 C1.68 0.74, 1.68 0.82, 1.68 0.84 C1.68 0.87, 1.68 0.82, 1.68 0.84" stroke="none" stroke-width="0" fill="#000"></path><path d="M1.68 0.84 C1.68 0.89, 1.68 0.94, 1.67 0.99 C1.66 1.03, 1.65 1.08, 1.63 1.13 C1.61 1.17, 1.59 1.22, 1.57 1.26 C1.54 1.3, 1.52 1.34, 1.48 1.38 C1.45 1.42, 1.42 1.45, 1.38 1.48 C1.34 1.52, 1.3 1.54, 1.26 1.57 C1.22 1.59, 1.17 1.61, 1.13 1.63 C1.08 1.65, 1.03 1.66, 0.99 1.67 C0.94 1.68, 0.89 1.68, 0.84 1.68 C0.79 1.68, 0.74 1.68, 0.69 1.67 C0.65 1.66, 0.6 1.65, 0.55 1.63 C0.51 1.61, 0.46 1.59, 0.42 1.57 C0.38 1.54, 0.34 1.52, 0.3 1.48 C0.26 1.45, 0.23 1.42, 0.2 1.38 C0.17 1.34, 0.14 1.3, 0.11 1.26 C0.09 1.22, 0.07 1.17, 0.05 1.13 C0.03 1.08, 0.02 1.03, 0.01 0.99 C0 0.94, 0 0.89, 0 0.84 C0 0.79, 0 0.74, 0.01 0.69 C0.02 0.65, 0.03 0.6, 0.05 0.55 C0.07 0.51, 0.09 0.46, 0.11 0.42 C0.14 0.38, 0.17 0.34, 0.2 0.3 C0.23 0.26, 0.26 0.23, 0.3 0.2 C0.34 0.17, 0.38 0.14, 0.42 0.11 C0.46 0.09, 0.51 0.07, 0.55 0.05 C0.6 0.03, 0.65 0.02, 0.69 0.01 C0.74 0, 0.79 0, 0.84 0 C0.89 0, 0.94 0, 0.99 0.01 C1.03 0.02, 1.08 0.03, 1.13 0.05 C1.17 0.07, 1.22 0.09, 1.26 0.11 C1.3 0.14, 1.34 0.17, 1.38 0.2 C1.42 0.23, 1.45 0.26, 1.48 0.3 C1.52 0.34, 1.54 0.38, 1.57 0.42 C1.59 0.46, 1.61 0.51, 1.63 0.55 C1.65 0.6, 1.66 0.65, 1.67 0.69 C1.68 0.74, 1.68 0.82, 1.68 0.84 C1.68 0.87, 1.68 0.82, 1.68 0.84" stroke="#000000" stroke-width="1.5" fill="none" stroke-dasharray="8 9"></path></g><g stroke-linecap="round"><g transform="translate(419.35047363023375 209.23863498357923) rotate(0 -1.5029958774766783 -98.50693229204194)"><path d="M0 0 C-0.5 -32.84, -2.5 -164.18, -3.01 -197.01" stroke="#000000" stroke-width="1.5" fill="none" stroke-dasharray="8 9"></path></g></g><mask></mask><g stroke-linecap="round"><g transform="translate(419.19246140877556 514.7907324399248) rotate(0 -1.4524030397597016 98.65219214956028)"><path d="M0 0 C-0.48 32.88, -2.42 164.42, -2.9 197.3" stroke="#000000" stroke-width="1.5" fill="none" stroke-dasharray="8 9"></path></g></g><mask></mask><g stroke-linecap="round" transform="translate(54.759771244759406 168.85412092161732) rotate(0 56.86480210581354 54.308593858771246)"><path d="M1.75 0.98 L115.19 1.56 L112.81 109 L-0.45 107" stroke="none" stroke-width="0" fill="#fff"></path><path d="M-0.95 -0.72 C25.37 -1.41, 53.42 0.96, 112.55 1.66 M-0.05 -0.33 C28.07 -0.6, 55.05 -1.04, 114.27 -0.8 M113.54 1.53 C114.55 34.97, 113.65 72.06, 115.43 108.68 M112.98 -0.28 C114.88 21.9, 113.43 45.48, 113.65 109.3 M112.3 109.56 C71.02 106.59, 28.97 107.17, 1.55 109.72 M114.64 108.27 C71.38 109.14, 30.49 109.48, -0.23 108.42 M0.54 106.83 C0.91 67.42, -2.73 28.65, 1.44 -1.19 M-0.48 109.49 C-0.58 73.09, -0.37 38.91, 0.77 0.75" stroke="#000000" stroke-width="1" fill="none"></path></g><g transform="translate(75.08386290131409 198.95925300834188) rotate(0 36.54071044921875 21.990962983669306)"><text x="36.54071044921875" y="0" font-family="Virgil, Segoe UI Emoji" font-size="18.618047516930353px" fill="#000000" text-anchor="middle" style="white-space: pre;" direction="ltr" dominant-baseline="text-before-edge">Primary</text><text x="36.54071044921875" y="21.99096298366927" font-family="Virgil, Segoe UI Emoji" font-size="18.618047516930353px" fill="#000000" text-anchor="middle" style="white-space: pre;" direction="ltr" dominant-baseline="text-before-edge">Adapter</text></g><g stroke-linecap="round"><g transform="translate(170.1805798074027 241.38580002460048) rotate(0 23.9898775547872 7.720109829161629)"><path d="M0 0 C8 2.57, 39.98 12.87, 47.98 15.44 M0 0 C8 2.57, 39.98 12.87, 47.98 15.44" stroke="#000000" stroke-width="1" fill="none"></path></g></g><mask></mask><g stroke-linecap="round" transform="translate(223.08115854620956 220.79162092161732) rotate(0 56.86480210581354 54.308593858771246)"><path d="M-0.45 -1.62 L112.37 1.95 L113.1 109.18 L0.39 109.02" stroke="none" stroke-width="0" fill="#fff"></path><path d="M-1.18 1.66 C28.62 0.88, 60.14 -1.02, 113.07 1.71 M0.54 -0.8 C30.77 -0.03, 61.44 0.78, 114.49 0.9 M115.43 0.06 C112.43 22.95, 113.75 42.05, 113.17 109.64 M113.65 0.68 C113.43 22.43, 112.52 43.63, 114.2 108.46 M115.28 109.72 C91.35 106.87, 67.92 109.74, -0.69 107.94 M113.5 108.42 C85.6 109.42, 56.58 108.75, -0.89 109.58 M1.44 107.42 C1.36 82.06, 0.03 52.23, 1.75 0.09 M0.77 109.37 C0.6 83.23, 0.45 57.65, -0.46 0.19" stroke="#087f5b" stroke-width="1" fill="none"></path></g><g transform="translate(247.29474605237812 250.89675300834188) rotate(0 32.651214599609375 23)"><text x="32.651214599609375" y="0" font-family="Virgil, Segoe UI Emoji" font-size="18.618047516930353px" fill="#000000" text-anchor="middle" style="white-space: pre;" direction="ltr" dominant-baseline="text-before-edge">Primary</text><text x="32.651214599609375" y="23" font-family="Virgil, Segoe UI Emoji" font-size="18.618047516930353px" fill="#000000" text-anchor="middle" style="white-space: pre;" direction="ltr" dominant-baseline="text-before-edge">Port</text></g><g stroke-linecap="round" transform="translate(516.0762822648875 384.4755042576712) rotate(0 51.03068715452872 48.736736265296486)"><path d="M0 0 C0 0, 0 0, 0 0 M0 0 C0 0, 0 0, 0 0 M-0.64 5.9 C0.86 5.36, 2.54 2.69, 4.89 0.58 M-0.1 6.52 C1 5.12, 1.96 3.87, 5.1 0.75 M0.92 12.68 C4.37 7.17, 4.53 5.99, 9.44 0.85 M0.09 11.41 C4.44 7.32, 8.61 2.91, 10 0.39 M0.37 18.5 C4.43 14.86, 8.26 8.33, 16.19 -0.29 M-0.82 17.72 C6.18 10.9, 10.9 5.17, 15.94 0.18 M0.44 23.71 C4.25 18.23, 11.14 9.57, 21.11 -1.79 M-0.71 24.17 C8.19 14.2, 15.86 6.26, 20.77 0.03 M-1.27 28.61 C5.38 23.14, 12.01 17.41, 27.54 -0.3 M-0.64 30.64 C8.37 21.08, 14.72 13.15, 26.18 1.06 M-1.4 36.75 C8.15 25.69, 19.64 15.79, 32.61 1.03 M-0.92 37.79 C10.38 23.35, 22.04 10.78, 31.01 -0.41 M-0.67 43.49 C8.27 31.66, 16.68 23.76, 37.62 1.04 M-0.01 43.07 C10.67 30.66, 22.63 17.57, 36.86 1.22 M-2.02 48.37 C14.33 35.33, 25.56 21.69, 41.08 0.59 M0.53 48.98 C8.41 38.32, 18.66 28.53, 42.42 0.72 M1.85 55.97 C17.5 32.33, 38.58 11.26, 49.43 -1.28 M-0.24 53.67 C10.79 40.98, 22.36 28.24, 47.27 0.01 M-0.83 60.06 C11.21 48.86, 21.53 33.94, 54.1 0.77 M-0.87 60.96 C14.92 43.7, 28.16 28.04, 52.22 0.06 M-0.52 68.44 C18.12 44.07, 36.89 23.53, 58.17 -1.48 M0.14 66.97 C14.11 50.02, 29.55 33.66, 59.09 0.88 M-0.38 71.35 C16.58 51.37, 37.46 32, 65.47 -1.72 M-0.55 72.31 C16.19 54.09, 33.18 34.95, 63.06 -0.64 M1.57 77.83 C24.91 50.17, 47.36 21.44, 67.23 1.05 M-0.04 80.32 C27.7 47.03, 54.22 16.96, 68.43 -0.65 M0.96 84.59 C23.06 57.86, 48.75 30.11, 75.16 -1.38 M0.46 85.69 C23.3 59.69, 45.09 33.74, 75 -0.55 M1.69 92.16 C31.22 57.48, 63.24 20.69, 80.16 1.71 M-0.52 92.44 C18.24 70.2, 38.92 46.73, 79.8 1.06 M0.36 97.71 C21.66 72.67, 42.7 45.8, 85.34 0.11 M-1.1 98.59 C30.76 61.98, 61.58 26.77, 85.48 0.24 M5.49 97.46 C23.62 73.22, 42.73 52.41, 88.73 -1.25 M6.3 98.33 C26.66 72.19, 49.5 45.64, 90.09 -0.27 M11.63 97.1 C41.05 62.35, 71.73 27.48, 96.35 -2.12 M10.34 98.29 C45.13 59.46, 77.27 21.48, 95.38 -1.23 M15.59 98.61 C41.23 67.41, 65.87 36.94, 100.88 1.19 M16.14 98.14 C37.56 72.12, 58.78 48.69, 100.64 -0.83 M21.82 98.38 C43.81 71.84, 63.71 47.78, 104.77 2.16 M21.84 98.56 C50.3 63.68, 81.16 28.1, 105 1.4 M27.52 99.35 C44.68 72.56, 64.69 52.12, 105.53 9.2 M26.91 97.15 C49.29 70.91, 71.23 45.33, 103.93 7.6 M33.3 99.15 C54.7 74.58, 76.49 47.25, 104.76 13.23 M31.98 98.43 C48.69 78.14, 65.12 56.89, 105.45 14.89 M36.26 98.18 C52.65 81.41, 66.34 65.15, 102.92 20.9 M37.15 97.69 C63.89 67.88, 90.39 37.16, 104.05 20.49 M40.64 95.82 C65.59 71.11, 88.84 41.25, 103.75 26.87 M41.78 97.02 C54.95 82.67, 66.82 67.73, 104.34 25.74 M46.96 98.44 C64.32 76.59, 83.13 60.59, 104.86 34.01 M48.83 97.18 C63.7 79.33, 80.17 59.32, 104.81 32.16 M54.61 99.63 C72.47 77.09, 91.5 52.7, 102.21 38.21 M52.65 97.57 C66.43 82.87, 80.5 67.6, 103.51 38.08 M58.98 96.25 C73.22 81.69, 88.17 65.1, 104.03 44.81 M59.31 98.14 C75.96 77.58, 92.09 57.6, 105.15 44.81 M62.14 96.61 C72.46 85.61, 79.69 76.56, 104.72 48.94 M64.4 97.38 C73.23 86.99, 81.06 77.3, 104.16 50.89 M69.87 96.55 C79.64 88.07, 88.94 74.85, 105.32 56.41 M69.35 98.19 C82.75 79.91, 97.24 64.38, 104.41 56.72 M74.36 95.62 C80 89.73, 90.25 81.97, 104.11 63.82 M73.25 97.87 C83.06 86.87, 90.23 78.93, 104.94 62.52 M79.33 97.12 C84.14 89.07, 90.91 82.29, 105.13 67.47 M79.13 98.02 C85.67 91.66, 89.07 85.23, 103.7 69.02 M86.61 96.32 C89.74 91.48, 95.99 82.57, 104.04 75.68 M83.83 98.53 C90.25 90.53, 94.88 84.76, 104.56 75.64 M89.29 96.51 C94.94 92.67, 99.47 86.51, 106.04 81.22 M90.25 97.45 C95.18 92.46, 100.04 87.25, 104.48 80.68 M94.69 97.29 C98.7 95.21, 99.85 90.98, 105.83 86.38 M95.26 97.14 C97.92 94.54, 99.31 93.35, 104.97 86.3 M100.76 97.38 C102.09 96.45, 102.67 94.88, 104.47 93.5 M101.22 97.19 C101.81 96.01, 102.52 95.36, 104.43 93.27 M0.04 97.51 C0.04 97.51, 0.04 97.51, 0.04 97.51 M0.04 97.51 C0.04 97.51, 0.04 97.51, 0.04 97.51 M7.16 98.23 C3.81 96.47, 2.12 93.58, -0.95 91.23 M6.49 98.06 C4.19 95.85, 1.36 93.68, -0.01 91.54 M11.09 98.93 C7.82 94.08, 3.74 88.79, -0.29 85.63 M11.84 97.85 C7.88 94.05, 4.05 89.33, -0.22 86.9 M18.25 98.13 C13.34 93.45, 6.11 87.42, -1.44 81 M18.61 98.27 C12.87 93.8, 8.51 88.69, 1.34 80.9 M25.5 95.58 C15.5 91.85, 8.79 86.92, 1.94 74.85 M23.13 98.17 C18.09 92.36, 11.63 85.36, -0.29 75.94 M30.49 98.7 C24.83 92.8, 17.62 85.3, 1.39 69.35 M30.39 97.84 C23.54 91.5, 15.8 86.07, 1.06 70.93 M36.35 98.71 C25.85 89.54, 16.78 81.66, -0.1 65.65 M36.21 98.13 C24.45 85.8, 11.26 75.1, -0.83 66.23 M41.6 99.14 C29.48 84.44, 13.59 71.65, 1.75 58.97 M42.5 96.42 C29.56 85.55, 14.81 73.75, 0.52 60.84 M50.31 95.92 C29.73 81.85, 10.31 62.87, -1.68 55.42 M48.57 98.59 C33.83 85.23, 18.88 71.9, -0.76 55.04 M54.63 98.9 C41.32 85.5, 26.75 73.28, 2.04 51.45 M54.96 96.35 C35.09 81.4, 16.26 65.03, 0.31 49.65 M60.77 99.23 C38.62 80.56, 16.92 63.32, 0.18 42.66 M60.46 98.39 C36.94 75.41, 12.92 54.92, 0.48 44.68 M67.55 98.89 C42.07 72.75, 13.12 52.74, 0.81 39.21 M67.95 97.76 C50.98 85.43, 36.4 70.73, -0.56 38.51 M72.55 98.8 C50.47 76.49, 30.36 57.5, -1.37 34.69 M73.73 97.77 C49.46 75.86, 25.29 54.74, -1.17 34.59 M78.26 98.88 C52.14 73.59, 23 49.4, 0.83 29.49 M78.81 97.89 C61.95 83.92, 46.6 71.41, -0.67 28.64 M86.66 95.61 C51.21 67.7, 18.43 41.69, 1.02 23.65 M84.69 97.08 C66.83 82.76, 48.39 65.97, -0.32 23.29 M93.13 97.4 C68.54 80.26, 50.34 61.46, 1.04 16.31 M90.51 97.02 C56.34 66.77, 21.36 35.21, -0.21 17.34 M97.05 98.11 C72.62 76.47, 47.17 51.77, 0.89 10.49 M98.77 97.41 C62.1 67.67, 27.4 35.17, -0.23 12.38 M103.18 96.49 C69.59 65.74, 36.45 37.59, 0.58 8.53 M101.95 97.25 C77.8 75.03, 52.74 53.16, 1.03 8.03 M104.04 93.02 C63.95 58.49, 28.27 29.31, -2.02 0.95 M102.02 91.44 C70.87 64.31, 39.53 36.75, -0.7 2.58 M103.83 86.48 C63.53 53.2, 24.61 17.65, 0.26 -0.87 M103.62 85.22 C71.72 59.29, 41.9 31.92, 1.21 -2.48 M101.73 81.7 C66.16 50.97, 27.18 15.58, 6.48 -3.16 M102.47 81.71 C68.15 49.07, 32.83 19.16, 8.14 -1.11 M102.56 73.53 C81.32 58.52, 65.39 39.45, 12.66 -1.54 M103.29 75.7 C80.06 54.62, 55.88 35.45, 14.41 -2.71 M102.9 70.99 C80.92 48.65, 57.05 30.88, 21.99 -2.41 M103.06 69.59 C76.77 48.77, 52.73 25.96, 20.76 -1.71 M101.71 66.77 C83.52 45.58, 63.9 30.31, 26.9 -1.38 M102.83 64.71 C80.91 46.9, 60.55 30.09, 25.52 -2.16 M102.24 60.6 C86.54 43.39, 67.4 28.27, 31 0.13 M102.84 60.53 C83.99 42.9, 64.88 26.25, 31.77 -2.53 M101.83 56.15 C78.39 34.97, 51.94 13.2, 39.62 0.38 M103.51 53.35 C88.14 41.15, 74.52 28.32, 39.12 -2.39 M101.89 48.38 C87.49 37.07, 75.87 25.17, 46 -2.54 M102.55 49.46 C91.08 37.13, 77.93 25.73, 44.99 -2.48 M101.65 44.43 C86.22 28.18, 72.8 15.32, 49.38 -2.67 M102 43.84 C86.27 29.53, 69.55 15.25, 49.97 -0.83 M104.16 38.99 C95.2 30.9, 82.41 21.51, 57.65 -0.6 M103.31 39.37 C87.82 26.51, 72.47 12.4, 55.61 -1.39 M102.07 31.17 C86.96 20.27, 72.73 9.77, 61.19 -0.14 M102.38 33.48 C92.45 24.79, 84.64 17.26, 63.48 -0.86 M103.56 27.9 C92.05 18.69, 76.14 6.08, 67.55 -2.75 M102.66 27.37 C90.09 17.26, 78.33 5.68, 69 -1.33 M102.2 20.77 C92.24 12.96, 80.29 2.68, 75.5 -3.49 M102.16 22.66 C95.81 16.48, 90.92 11.49, 74.72 -2.41 M102.8 17.42 C96.98 9.12, 86.94 3.33, 81.23 -2.87 M102.55 16.63 C95.62 11.73, 88.04 4.11, 81.68 -1.26 M103.32 10.42 C98.61 5.83, 89.39 0.23, 84.93 -1.37 M102.21 10.86 C96.78 6.53, 91.44 2.57, 87.17 -1.31 M104.08 7.95 C101.37 5.83, 98.74 2.2, 92.8 -0.67 M103.15 6.53 C100.74 4.12, 98.13 2.85, 93.55 -1.33 M102.14 1.25 C101.43 0.09, 100.83 0.06, 99.36 -1.86 M102.53 0.96 C101.64 0.23, 100.66 -0.31, 99.44 -1.41" stroke="#fa5252" stroke-width="0.5" fill="none"></path><path d="M0.47 -0.11 C38.45 0.8, 77.55 0.32, 100.52 1.07 M0.7 -0.09 C23.24 1.82, 43.95 1.37, 101.13 0.85 M101.59 -1.5 C100.63 30.56, 99.27 57.18, 101.57 97.32 M101.88 -0.71 C103.24 35.76, 101.86 71.86, 101.44 98.25 M103.79 99.29 C65.14 96.27, 28.66 98.52, -0.24 97.01 M102.58 97.74 C72.58 99.39, 44.44 97.57, 0.31 98.19 M-0.9 96.52 C1.54 74.14, -1.44 51.15, 0.22 1.55 M0.73 98.26 C-1.32 61.09, -1.08 23.51, -0.68 0.97" stroke="#000000" stroke-width="1" fill="none"></path></g><g transform="translate(520.6561570024977 484.72235965500795) rotate(0 44.78492736816406 23)"><text x="44.78492736816406" y="0" font-family="Virgil, Segoe UI Emoji" font-size="18.618047516930353px" fill="#000000" text-anchor="middle" style="white-space: pre;" direction="ltr" dominant-baseline="text-before-edge">Secondary</text><text x="44.78492736816406" y="23" font-family="Virgil, Segoe UI Emoji" font-size="18.618047516930353px" fill="#000000" text-anchor="middle" style="white-space: pre;" direction="ltr" dominant-baseline="text-before-edge">Port</text></g><g stroke-linecap="round"><g transform="translate(619.1376565739455 459.7837889037778) rotate(0 26.141697615380508 13.356351980151885)"><path d="M0 0 C8.71 4.45, 43.57 22.26, 52.28 26.71" stroke="#000000" stroke-width="1.5" fill="none" stroke-dasharray="8 9"></path></g></g><mask></mask><g transform="translate(673.9126092390187 568.0795025121511) rotate(0 44.78492736816406 23)"><text x="44.78492736816406" y="0" font-family="Virgil, Segoe UI Emoji" font-size="18.618047516930353px" fill="#000000" text-anchor="middle" style="white-space: pre;" direction="ltr" dominant-baseline="text-before-edge">Secondary</text><text x="44.78492736816406" y="23" font-family="Virgil, Segoe UI Emoji" font-size="18.618047516930353px" fill="#000000" text-anchor="middle" style="white-space: pre;" direction="ltr" dominant-baseline="text-before-edge">Adapter</text></g><g stroke-linecap="round" transform="translate(673.7366828709936 464.47263932996475) rotate(0 51.03068715452872 48.736736265296486)"><path d="M1.49 1.5 L101.4 -1.25 L104.01 96.9 L1.52 97.49" stroke="none" stroke-width="0" fill="#fa5252"></path><path d="M-1.6 0.81 C35.12 0.85, 73.67 0.98, 103.86 -1.99 M0.03 -0.9 C35.82 -1.1, 69.72 -1.15, 102.58 -0.96 M103.43 1.46 C102.32 19.66, 100.39 41, 101.75 95.65 M102.61 0.69 C100.94 30.38, 102.37 58.69, 101.73 97.01 M101.66 98.89 C65.26 98.28, 25.27 95.45, 1.93 96.58 M101.46 97.69 C80.78 97.76, 57.87 99.08, 0.04 96.86 M1.51 99.23 C0.87 67.16, 1.46 33.01, 0.38 -0.45 M-0.31 97.76 C0.86 76.34, 0.81 55.77, -0.95 0.82" stroke="#000000" stroke-width="1" fill="none"></path></g><g transform="translate(693.5679419836241 495.15664188425535) rotate(0 29.53216552734375 19.088663122431626)"><text x="29.53216552734375" y="0" font-family="Virgil, Segoe UI Emoji" font-size="30.541860995890552px" fill="#fff" text-anchor="middle" style="white-space: pre;" direction="ltr" dominant-baseline="text-before-edge">Impl</text></g><g stroke-linecap="round" transform="translate(816.6350263319721 204.791182300914) rotate(0 32.54042053222656 32.54042053222656)"><path d="M0 0 C0 0, 0 0, 0 0 M0 0 C0 0, 0 0, 0 0 M0.13 12.04 C3.22 8.48, 6.32 4.93, 10.63 -0.03 M0.13 12.04 C3.54 8.12, 6.96 4.19, 10.63 -0.03 M0.27 24.08 C5.11 18.51, 9.95 12.94, 21.26 -0.07 M0.27 24.08 C6.75 16.62, 13.23 9.17, 21.26 -0.07 M-0.26 36.88 C6.25 29.39, 12.75 21.91, 31.89 -0.1 M-0.26 36.88 C7.33 28.15, 14.92 19.42, 31.89 -0.1 M-0.12 48.92 C9.93 37.36, 19.98 25.8, 42.52 -0.14 M-0.12 48.92 C10.23 37, 20.59 25.09, 42.52 -0.14 M0.01 60.96 C12.45 46.65, 24.89 32.34, 53.15 -0.17 M0.01 60.96 C13.81 45.08, 27.61 29.21, 53.15 -0.17 M4.08 68.47 C21.09 48.91, 38.09 29.34, 63.78 -0.21 M4.08 68.47 C16.31 54.4, 28.55 40.32, 63.78 -0.21 M14.71 68.44 C35.08 45.01, 55.44 21.58, 70.47 4.29 M14.71 68.44 C35.85 44.12, 56.98 19.81, 70.47 4.29 M25.34 68.4 C36.44 55.63, 47.54 42.86, 69.95 17.08 M25.34 68.4 C36.84 55.17, 48.34 41.94, 69.95 17.08 M35.97 68.37 C43.2 60.05, 50.42 51.74, 70.08 29.12 M35.97 68.37 C45.75 57.12, 55.53 45.87, 70.08 29.12 M46.6 68.33 C54.61 59.12, 62.62 49.91, 70.22 41.16 M46.6 68.33 C53.07 60.9, 59.53 53.46, 70.22 41.16 M57.23 68.3 C60.25 64.82, 63.28 61.34, 70.35 53.2 M57.23 68.3 C62.27 62.5, 67.32 56.69, 70.35 53.2 M0.23 65.28 C0.23 65.28, 0.23 65.28, 0.23 65.28 M0.23 65.28 C0.23 65.28, 0.23 65.28, 0.23 65.28 M12.27 65.15 C8.42 61.8, 4.57 58.46, 0.19 54.65 M12.27 65.15 C7.64 61.12, 3.01 57.09, 0.19 54.65 M24.31 65.01 C18.35 59.83, 12.39 54.65, 0.16 44.02 M24.31 65.01 C16.33 58.08, 8.35 51.14, 0.16 44.02 M36.35 64.88 C28.59 58.13, 20.82 51.38, 0.13 33.39 M36.35 64.88 C25.31 55.28, 14.26 45.68, 0.13 33.39 M49.15 65.4 C30.01 48.77, 10.87 32.13, 0.09 22.76 M49.15 65.4 C31.36 49.94, 13.58 34.48, 0.09 22.76 M61.19 65.27 C43.1 49.55, 25.02 33.83, 0.06 12.13 M61.19 65.27 C44.17 50.48, 27.16 35.69, 0.06 12.13 M68.7 61.2 C47.31 42.6, 25.91 24.01, 0.02 1.5 M68.7 61.2 C45.33 40.89, 21.96 20.57, 0.02 1.5 M68.67 50.57 C44.13 29.24, 19.59 7.91, 4.52 -5.19 M68.67 50.57 C46.65 31.43, 24.63 12.29, 4.52 -5.19 M68.63 39.94 C51.69 25.21, 34.75 10.49, 16.56 -5.33 M68.63 39.94 C48.7 22.61, 28.77 5.29, 16.56 -5.33 M68.6 29.31 C55.23 17.69, 41.87 6.08, 28.6 -5.46 M68.6 29.31 C58.66 20.67, 48.72 12.03, 28.6 -5.46 M68.56 18.68 C60.77 11.91, 52.98 5.14, 41.39 -4.94 M68.56 18.68 C62.63 13.52, 56.69 8.36, 41.39 -4.94 M68.53 8.05 C64.74 4.76, 60.95 1.46, 53.43 -5.07 M68.53 8.05 C64.72 4.74, 60.91 1.43, 53.43 -5.07" stroke="#7950f288" stroke-width="1" fill="none"></path><path d="M0 0 C18.33 0, 36.66 0, 65.08 0 M0 0 C25.16 0, 50.31 0, 65.08 0 M65.08 0 C65.08 22.91, 65.08 45.82, 65.08 65.08 M65.08 0 C65.08 16.58, 65.08 33.17, 65.08 65.08 M65.08 65.08 C40.82 65.08, 16.56 65.08, 0 65.08 M65.08 65.08 C44.25 65.08, 23.43 65.08, 0 65.08 M0 65.08 C0 40.62, 0 16.16, 0 0 M0 65.08 C0 48.63, 0 32.19, 0 0" stroke="#000000" stroke-width="2" fill="none"></path></g><g stroke-linecap="round"><g transform="translate(874.3981126162328 238.040937897586) rotate(0 -23.92666242714654 -5.951793871149221)"><path d="M0 0 C-3.09 0, -13.13 0.33, -18.56 0.01 C-23.98 -0.31, -28.59 -0.77, -32.55 -1.9 C-36.52 -3.03, -39.8 -5.08, -42.35 -6.77 C-44.9 -8.46, -46.94 -11.17, -47.85 -12.05 M0 0 C-3.09 0, -13.13 0.33, -18.56 0.01 C-23.98 -0.31, -28.59 -0.77, -32.55 -1.9 C-36.52 -3.03, -39.8 -5.08, -42.35 -6.77 C-44.9 -8.46, -46.94 -11.17, -47.85 -12.05" stroke="#000000" stroke-width="2" fill="none"></path></g></g><mask></mask><g stroke-linecap="round"><g transform="translate(874.4579654248553 238.09690102914055) rotate(0 -23.92666242714654 6.516454677534966)"><path d="M0 0 C-3.09 0.02, -13.1 -0.23, -18.52 0.12 C-23.95 0.46, -28.58 0.86, -32.55 2.07 C-36.52 3.27, -39.8 5.52, -42.35 7.36 C-44.9 9.2, -46.94 12.14, -47.85 13.1 M0 0 C-3.09 0.02, -13.1 -0.23, -18.52 0.12 C-23.95 0.46, -28.58 0.86, -32.55 2.07 C-36.52 3.27, -39.8 5.52, -42.35 7.36 C-44.9 9.2, -46.94 12.14, -47.85 13.1" stroke="#000000" stroke-width="2" fill="none"></path></g></g><mask></mask><g stroke-linecap="round"><g transform="translate(873.9444080618953 233.8300152785191) rotate(0 -21.258550608287578 -5.951793871149221)"><path d="M0 0 C-2.75 0, -11.67 0.33, -16.49 0.01 C-21.31 -0.31, -25.4 -0.77, -28.92 -1.9 C-32.45 -3.03, -35.37 -5.08, -37.63 -6.77 C-39.9 -8.46, -41.7 -11.17, -42.52 -12.05 M0 0 C-2.75 0, -11.67 0.33, -16.49 0.01 C-21.31 -0.31, -25.4 -0.77, -28.92 -1.9 C-32.45 -3.03, -35.37 -5.08, -37.63 -6.77 C-39.9 -8.46, -41.7 -11.17, -42.52 -12.05" stroke="#000000" stroke-width="2" fill="none"></path></g></g><mask></mask><g stroke-linecap="round"><g transform="translate(874.1542306418078 229.1563721869752) rotate(0 -18.566138584680857 -6.6956354485714655)"><path d="M0 0 C-2.46 0, -10.45 0.33, -14.77 0.01 C-19.08 -0.31, -22.75 -0.77, -25.9 -1.9 C-29.06 -3.03, -31.83 -4.83, -33.7 -6.77 C-35.57 -8.71, -36.56 -12.41, -37.13 -13.54 M0 0 C-2.46 0, -10.45 0.33, -14.77 0.01 C-19.08 -0.31, -22.75 -0.77, -25.9 -1.9 C-29.06 -3.03, -31.83 -4.83, -33.7 -6.77 C-35.57 -8.71, -36.56 -12.41, -37.13 -13.54" stroke="#000000" stroke-width="2" fill="none"></path></g></g><mask></mask><g stroke-linecap="round"><g transform="translate(874.5276085317687 242.74092681719003) rotate(0 -21.258550608287578 6.0359808529080965)"><path d="M0 0 C-2.75 0, -11.67 -0.33, -16.49 -0.01 C-21.31 0.31, -25.4 0.78, -28.92 1.93 C-32.45 3.07, -35.37 5.15, -37.63 6.86 C-39.9 8.58, -41.7 11.33, -42.52 12.22 M0 0 C-2.75 0, -11.67 -0.33, -16.49 -0.01 C-21.31 0.31, -25.4 0.78, -28.92 1.93 C-32.45 3.07, -35.37 5.15, -37.63 6.86 C-39.9 8.58, -41.7 11.33, -42.52 12.22" stroke="#000000" stroke-width="2" fill="none"></path></g></g><mask></mask><g stroke-linecap="round"><g transform="translate(874.5891500890746 247.6683493287528) rotate(0 -18.836258380764775 5.9004608173420365)"><path d="M0 0 C-2.46 0, -10.45 -0.29, -14.77 -0.01 C-19.08 0.27, -22.75 0.68, -25.9 1.69 C-29.06 2.69, -31.74 4.29, -33.7 6 C-35.66 7.71, -37.01 10.95, -37.67 11.93 M0 0 C-2.46 0, -10.45 -0.29, -14.77 -0.01 C-19.08 0.27, -22.75 0.68, -25.9 1.69 C-29.06 2.69, -31.74 4.29, -33.7 6 C-35.66 7.71, -37.01 10.95, -37.67 11.93" stroke="#000000" stroke-width="2" fill="none"></path></g></g><mask></mask><g transform="translate(817.6654828749406 273.6277791010625) rotate(0 31.509963989257812 12)"><text x="31.509963989257812" y="0" font-family="Virgil, Segoe UI Emoji" font-size="20px" fill="#000000" text-anchor="middle" style="white-space: pre;" direction="ltr" dominant-baseline="text-before-edge">Kinesis</text></g></svg>